<svg width="254" height="48" viewBox="0 0 254 48" fill="none" xmlns="http://www.w3.org/2000/svg">
<rect width="254" height="48" rx="4" fill="black"/>
<path d="M41.532 27.106C41.2659 27.1059 41.0107 27 40.8226 26.8117C40.6345 26.6234 40.5289 26.3681 40.529 26.102C40.5291 25.8358 40.635 25.5807 40.8233 25.3926C41.0116 25.2045 41.2669 25.0989 41.533 25.099C41.7991 25.099 42.0544 25.2047 42.2426 25.3929C42.4308 25.5811 42.5365 25.8363 42.5365 26.1025C42.5365 26.3686 42.4308 26.6239 42.2426 26.8121C42.0544 27.0003 41.7991 27.106 41.533 27.106H41.532ZM30.488 27.106C30.3562 27.1059 30.2257 27.0799 30.104 27.0294C29.9823 26.9789 29.8717 26.9049 29.7786 26.8117C29.5905 26.6234 29.4849 26.3681 29.485 26.102C29.4851 25.8358 29.591 25.5807 29.7793 25.3926C29.9676 25.2045 30.2229 25.0989 30.489 25.099C30.7551 25.099 31.0104 25.2047 31.1986 25.3929C31.3868 25.5811 31.4925 25.8363 31.4925 26.1025C31.4925 26.3686 31.3868 26.6239 31.1986 26.8121C31.0104 27.0003 30.7541 27.106 30.488 27.106ZM41.888 21.088L43.894 17.629C43.948 17.5334 43.9618 17.4202 43.9323 17.3145C43.9029 17.2087 43.8326 17.119 43.737 17.065C43.6414 17.011 43.5283 16.9972 43.4225 17.0267C43.3167 17.0561 43.227 17.1264 43.173 17.222L41.146 20.722C39.5362 19.9862 37.786 19.6082 36.016 19.614C34.166 19.614 32.421 20.012 30.875 20.712L28.848 17.212C28.8213 17.1647 28.7855 17.1232 28.7427 17.0897C28.6999 17.0563 28.651 17.0316 28.5987 17.017C28.5463 17.0025 28.4917 16.9984 28.4378 17.005C28.3839 17.0116 28.3318 17.0288 28.2845 17.0555C28.2372 17.0822 28.1957 17.118 28.1622 17.1608C28.1288 17.2036 28.1041 17.2525 28.0895 17.3048C28.075 17.3572 28.0709 17.4118 28.0775 17.4657C28.0841 17.5196 28.1013 17.5717 28.128 17.619L30.123 21.077C26.696 22.947 24.345 26.417 24 30.523H48C47.666 26.427 45.325 22.958 41.888 21.088Z" fill="white"/>
<path d="M63.1364 29.5H59.0114V17.8636H63.1705C64.3409 17.8636 65.3485 18.0966 66.1932 18.5625C67.0379 19.0246 67.6875 19.6894 68.142 20.5568C68.6004 21.4242 68.8295 22.4621 68.8295 23.6705C68.8295 24.8826 68.6004 25.9242 68.142 26.7955C67.6875 27.6667 67.0341 28.3352 66.1818 28.8011C65.3333 29.267 64.3182 29.5 63.1364 29.5ZM61.4716 27.392H63.0341C63.7614 27.392 64.3731 27.2633 64.8693 27.0057C65.3693 26.7443 65.7443 26.3409 65.9943 25.7955C66.2481 25.2462 66.375 24.5379 66.375 23.6705C66.375 22.8106 66.2481 22.108 65.9943 21.5625C65.7443 21.017 65.3712 20.6155 64.875 20.358C64.3788 20.1004 63.767 19.9716 63.0398 19.9716H61.4716V27.392ZM74.5497 29.6705C73.6671 29.6705 72.9039 29.483 72.2599 29.108C71.6198 28.7292 71.1255 28.2027 70.777 27.5284C70.4285 26.8504 70.2543 26.0644 70.2543 25.1705C70.2543 24.2689 70.4285 23.4811 70.777 22.8068C71.1255 22.1288 71.6198 21.6023 72.2599 21.2273C72.9039 20.8485 73.6671 20.6591 74.5497 20.6591C75.4323 20.6591 76.1937 20.8485 76.8338 21.2273C77.4777 21.6023 77.974 22.1288 78.3224 22.8068C78.6709 23.4811 78.8452 24.2689 78.8452 25.1705C78.8452 26.0644 78.6709 26.8504 78.3224 27.5284C77.974 28.2027 77.4777 28.7292 76.8338 29.108C76.1937 29.483 75.4323 29.6705 74.5497 29.6705ZM74.5611 27.7955C74.9626 27.7955 75.2978 27.6818 75.5668 27.4545C75.8357 27.2235 76.0384 26.9091 76.1747 26.5114C76.3149 26.1136 76.3849 25.661 76.3849 25.1534C76.3849 24.6458 76.3149 24.1932 76.1747 23.7955C76.0384 23.3977 75.8357 23.0833 75.5668 22.8523C75.2978 22.6212 74.9626 22.5057 74.5611 22.5057C74.1558 22.5057 73.8149 22.6212 73.5384 22.8523C73.2656 23.0833 73.0592 23.3977 72.919 23.7955C72.7827 24.1932 72.7145 24.6458 72.7145 25.1534C72.7145 25.661 72.7827 26.1136 72.919 26.5114C73.0592 26.9091 73.2656 27.2235 73.5384 27.4545C73.8149 27.6818 74.1558 27.7955 74.5611 27.7955ZM81.9219 29.5L79.5469 20.7727H81.9957L83.348 26.6364H83.4276L84.8366 20.7727H87.2401L88.6719 26.6023H88.7457L90.0753 20.7727H92.5185L90.1491 29.5H87.5866L86.0866 24.0114H85.9787L84.4787 29.5H81.9219ZM96.2301 24.4545V29.5H93.8097V20.7727H96.1165V22.3125H96.2188C96.4119 21.8049 96.7358 21.4034 97.1903 21.108C97.6449 20.8087 98.196 20.6591 98.8438 20.6591C99.4498 20.6591 99.9782 20.7917 100.429 21.0568C100.88 21.322 101.23 21.7008 101.48 22.1932C101.73 22.6818 101.855 23.2652 101.855 23.9432V29.5H99.4347V24.375C99.4384 23.8409 99.3021 23.4242 99.0256 23.125C98.7491 22.822 98.3684 22.6705 97.8835 22.6705C97.5578 22.6705 97.2699 22.7405 97.0199 22.8807C96.7737 23.0208 96.5805 23.2254 96.4403 23.4943C96.304 23.7595 96.2339 24.0795 96.2301 24.4545ZM106.183 17.8636V29.5H103.763V17.8636H106.183ZM112.065 29.6705C111.183 29.6705 110.42 29.483 109.776 29.108C109.135 28.7292 108.641 28.2027 108.293 27.5284C107.944 26.8504 107.77 26.0644 107.77 25.1705C107.77 24.2689 107.944 23.4811 108.293 22.8068C108.641 22.1288 109.135 21.6023 109.776 21.2273C110.42 20.8485 111.183 20.6591 112.065 20.6591C112.948 20.6591 113.709 20.8485 114.349 21.2273C114.993 21.6023 115.49 22.1288 115.838 22.8068C116.187 23.4811 116.361 24.2689 116.361 25.1705C116.361 26.0644 116.187 26.8504 115.838 27.5284C115.49 28.2027 114.993 28.7292 114.349 29.108C113.709 29.483 112.948 29.6705 112.065 29.6705ZM112.077 27.7955C112.478 27.7955 112.813 27.6818 113.082 27.4545C113.351 27.2235 113.554 26.9091 113.69 26.5114C113.83 26.1136 113.901 25.661 113.901 25.1534C113.901 24.6458 113.83 24.1932 113.69 23.7955C113.554 23.3977 113.351 23.0833 113.082 22.8523C112.813 22.6212 112.478 22.5057 112.077 22.5057C111.671 22.5057 111.33 22.6212 111.054 22.8523C110.781 23.0833 110.575 23.3977 110.435 23.7955C110.298 24.1932 110.23 24.6458 110.23 25.1534C110.23 25.661 110.298 26.1136 110.435 26.5114C110.575 26.9091 110.781 27.2235 111.054 27.4545C111.33 27.6818 111.671 27.7955 112.077 27.7955ZM120.423 29.6648C119.866 29.6648 119.37 29.5682 118.935 29.375C118.499 29.178 118.154 28.8883 117.901 28.5057C117.651 28.1193 117.526 27.6383 117.526 27.0625C117.526 26.5777 117.615 26.1705 117.793 25.8409C117.971 25.5114 118.213 25.2462 118.52 25.0455C118.827 24.8447 119.175 24.6932 119.565 24.5909C119.959 24.4886 120.372 24.4167 120.804 24.375C121.312 24.322 121.721 24.2727 122.031 24.2273C122.342 24.178 122.567 24.1061 122.707 24.0114C122.848 23.9167 122.918 23.7765 122.918 23.5909V23.5568C122.918 23.197 122.804 22.9186 122.577 22.7216C122.353 22.5246 122.035 22.4261 121.622 22.4261C121.187 22.4261 120.84 22.5227 120.582 22.7159C120.325 22.9053 120.154 23.1439 120.071 23.4318L117.832 23.25C117.946 22.7197 118.17 22.2614 118.503 21.875C118.836 21.4848 119.266 21.1856 119.793 20.9773C120.323 20.7652 120.937 20.6591 121.634 20.6591C122.118 20.6591 122.582 20.7159 123.026 20.8295C123.473 20.9432 123.868 21.1193 124.213 21.358C124.562 21.5966 124.836 21.9034 125.037 22.2784C125.238 22.6496 125.338 23.0947 125.338 23.6136V29.5H123.043V28.2898H122.974C122.834 28.5625 122.647 28.803 122.412 29.0114C122.177 29.2159 121.895 29.3769 121.565 29.4943C121.236 29.608 120.855 29.6648 120.423 29.6648ZM121.116 27.9943C121.473 27.9943 121.787 27.9242 122.06 27.7841C122.332 27.6402 122.546 27.447 122.702 27.2045C122.857 26.9621 122.935 26.6875 122.935 26.3807V25.4545C122.859 25.5038 122.755 25.5492 122.622 25.5909C122.493 25.6288 122.348 25.6648 122.185 25.6989C122.022 25.7292 121.859 25.7576 121.696 25.7841C121.533 25.8068 121.385 25.8277 121.253 25.8466C120.969 25.8883 120.721 25.9545 120.509 26.0455C120.296 26.1364 120.132 26.2595 120.014 26.4148C119.897 26.5663 119.838 26.7557 119.838 26.983C119.838 27.3125 119.957 27.5644 120.196 27.7386C120.438 27.9091 120.745 27.9943 121.116 27.9943ZM130.432 29.642C129.769 29.642 129.169 29.4716 128.631 29.1307C128.097 28.786 127.672 28.2803 127.358 27.6136C127.047 26.9432 126.892 26.1212 126.892 25.1477C126.892 24.1477 127.053 23.3163 127.375 22.6534C127.697 21.9867 128.125 21.4886 128.659 21.1591C129.197 20.8258 129.786 20.6591 130.426 20.6591C130.915 20.6591 131.322 20.7424 131.648 20.9091C131.977 21.072 132.242 21.2765 132.443 21.5227C132.648 21.7652 132.803 22.0038 132.909 22.2386H132.983V17.8636H135.398V29.5H133.011V28.1023H132.909C132.795 28.3447 132.634 28.5852 132.426 28.8239C132.222 29.0587 131.955 29.2538 131.625 29.4091C131.299 29.5644 130.902 29.642 130.432 29.642ZM131.199 27.7159C131.589 27.7159 131.919 27.6098 132.188 27.3977C132.46 27.1818 132.669 26.8807 132.812 26.4943C132.96 26.108 133.034 25.6553 133.034 25.1364C133.034 24.6174 132.962 24.1667 132.818 23.7841C132.674 23.4015 132.466 23.1061 132.193 22.8977C131.92 22.6894 131.589 22.5852 131.199 22.5852C130.801 22.5852 130.466 22.6932 130.193 22.9091C129.92 23.125 129.714 23.4242 129.574 23.8068C129.434 24.1894 129.364 24.6326 129.364 25.1364C129.364 25.6439 129.434 26.0928 129.574 26.483C129.718 26.8693 129.924 27.1723 130.193 27.392C130.466 27.608 130.801 27.7159 131.199 27.7159ZM145.784 20.7727V22.5909H140.398V20.7727H145.784ZM141.631 29.5V20.142C141.631 19.5095 141.754 18.9848 142 18.5682C142.25 18.1515 142.591 17.839 143.023 17.6307C143.455 17.4223 143.945 17.3182 144.494 17.3182C144.866 17.3182 145.205 17.3466 145.511 17.4034C145.822 17.4602 146.053 17.5114 146.205 17.5568L145.773 19.375C145.678 19.3447 145.561 19.3163 145.42 19.2898C145.284 19.2633 145.144 19.25 145 19.25C144.644 19.25 144.396 19.3333 144.256 19.5C144.116 19.6629 144.045 19.892 144.045 20.1875V29.5H141.631ZM150.893 29.6705C150.011 29.6705 149.248 29.483 148.604 29.108C147.964 28.7292 147.469 28.2027 147.121 27.5284C146.772 26.8504 146.598 26.0644 146.598 25.1705C146.598 24.2689 146.772 23.4811 147.121 22.8068C147.469 22.1288 147.964 21.6023 148.604 21.2273C149.248 20.8485 150.011 20.6591 150.893 20.6591C151.776 20.6591 152.537 20.8485 153.178 21.2273C153.821 21.6023 154.318 22.1288 154.666 22.8068C155.015 23.4811 155.189 24.2689 155.189 25.1705C155.189 26.0644 155.015 26.8504 154.666 27.5284C154.318 28.2027 153.821 28.7292 153.178 29.108C152.537 29.483 151.776 29.6705 150.893 29.6705ZM150.905 27.7955C151.306 27.7955 151.642 27.6818 151.911 27.4545C152.179 27.2235 152.382 26.9091 152.518 26.5114C152.659 26.1136 152.729 25.661 152.729 25.1534C152.729 24.6458 152.659 24.1932 152.518 23.7955C152.382 23.3977 152.179 23.0833 151.911 22.8523C151.642 22.6212 151.306 22.5057 150.905 22.5057C150.5 22.5057 150.159 22.6212 149.882 22.8523C149.609 23.0833 149.403 23.3977 149.263 23.7955C149.126 24.1932 149.058 24.6458 149.058 25.1534C149.058 25.661 149.126 26.1136 149.263 26.5114C149.403 26.9091 149.609 27.2235 149.882 27.4545C150.159 27.6818 150.5 27.7955 150.905 27.7955ZM156.763 29.5V20.7727H159.109V22.2955H159.2C159.359 21.7538 159.626 21.3447 160.001 21.0682C160.376 20.7879 160.808 20.6477 161.297 20.6477C161.418 20.6477 161.549 20.6553 161.689 20.6705C161.829 20.6856 161.952 20.7064 162.058 20.733V22.8807C161.945 22.8466 161.787 22.8163 161.587 22.7898C161.386 22.7633 161.202 22.75 161.036 22.75C160.679 22.75 160.361 22.8277 160.081 22.983C159.804 23.1345 159.585 23.3466 159.422 23.6193C159.263 23.892 159.183 24.2064 159.183 24.5625V29.5H156.763ZM169.064 29.5H166.428L170.445 17.8636H173.615L177.626 29.5H174.99L172.075 20.5227H171.984L169.064 29.5ZM168.899 24.9261H175.126V26.8466H168.899V24.9261ZM181.402 24.4545V29.5H178.982V20.7727H181.288V22.3125H181.391C181.584 21.8049 181.908 21.4034 182.362 21.108C182.817 20.8087 183.368 20.6591 184.016 20.6591C184.622 20.6591 185.15 20.7917 185.601 21.0568C186.052 21.322 186.402 21.7008 186.652 22.1932C186.902 22.6818 187.027 23.2652 187.027 23.9432V29.5H184.607V24.375C184.61 23.8409 184.474 23.4242 184.197 23.125C183.921 22.822 183.54 22.6705 183.055 22.6705C182.73 22.6705 182.442 22.7405 182.192 22.8807C181.946 23.0208 181.752 23.2254 181.612 23.4943C181.476 23.7595 181.406 24.0795 181.402 24.4545ZM192.151 29.642C191.488 29.642 190.887 29.4716 190.349 29.1307C189.815 28.786 189.391 28.2803 189.077 27.6136C188.766 26.9432 188.611 26.1212 188.611 25.1477C188.611 24.1477 188.772 23.3163 189.094 22.6534C189.416 21.9867 189.844 21.4886 190.378 21.1591C190.916 20.8258 191.505 20.6591 192.145 20.6591C192.634 20.6591 193.041 20.7424 193.366 20.9091C193.696 21.072 193.961 21.2765 194.162 21.5227C194.366 21.7652 194.522 22.0038 194.628 22.2386H194.702V17.8636H197.116V29.5H194.73V28.1023H194.628C194.514 28.3447 194.353 28.5852 194.145 28.8239C193.94 29.0587 193.673 29.2538 193.344 29.4091C193.018 29.5644 192.62 29.642 192.151 29.642ZM192.918 27.7159C193.308 27.7159 193.637 27.6098 193.906 27.3977C194.179 27.1818 194.387 26.8807 194.531 26.4943C194.679 26.108 194.753 25.6553 194.753 25.1364C194.753 24.6174 194.681 24.1667 194.537 23.7841C194.393 23.4015 194.185 23.1061 193.912 22.8977C193.639 22.6894 193.308 22.5852 192.918 22.5852C192.52 22.5852 192.185 22.6932 191.912 22.9091C191.639 23.125 191.433 23.4242 191.293 23.8068C191.152 24.1894 191.082 24.6326 191.082 25.1364C191.082 25.6439 191.152 26.0928 191.293 26.483C191.437 26.8693 191.643 27.1723 191.912 27.392C192.185 27.608 192.52 27.7159 192.918 27.7159ZM199.107 29.5V20.7727H201.453V22.2955H201.544C201.703 21.7538 201.97 21.3447 202.345 21.0682C202.72 20.7879 203.152 20.6477 203.641 20.6477C203.762 20.6477 203.893 20.6553 204.033 20.6705C204.173 20.6856 204.296 20.7064 204.402 20.733V22.8807C204.288 22.8466 204.131 22.8163 203.93 22.7898C203.73 22.7633 203.546 22.75 203.379 22.75C203.023 22.75 202.705 22.8277 202.425 22.983C202.148 23.1345 201.929 23.3466 201.766 23.6193C201.607 23.892 201.527 24.2064 201.527 24.5625V29.5H199.107ZM205.653 29.5V20.7727H208.074V29.5H205.653ZM206.869 19.6477C206.509 19.6477 206.201 19.5284 205.943 19.2898C205.689 19.0473 205.562 18.7576 205.562 18.4205C205.562 18.0871 205.689 17.8011 205.943 17.5625C206.201 17.3201 206.509 17.1989 206.869 17.1989C207.229 17.1989 207.536 17.3201 207.79 17.5625C208.047 17.8011 208.176 18.0871 208.176 18.4205C208.176 18.7576 208.047 19.0473 207.79 19.2898C207.536 19.5284 207.229 19.6477 206.869 19.6477ZM213.956 29.6705C213.073 29.6705 212.31 29.483 211.666 29.108C211.026 28.7292 210.532 28.2027 210.183 27.5284C209.835 26.8504 209.661 26.0644 209.661 25.1705C209.661 24.2689 209.835 23.4811 210.183 22.8068C210.532 22.1288 211.026 21.6023 211.666 21.2273C212.31 20.8485 213.073 20.6591 213.956 20.6591C214.839 20.6591 215.6 20.8485 216.24 21.2273C216.884 21.6023 217.38 22.1288 217.729 22.8068C218.077 23.4811 218.251 24.2689 218.251 25.1705C218.251 26.0644 218.077 26.8504 217.729 27.5284C217.38 28.2027 216.884 28.7292 216.24 29.108C215.6 29.483 214.839 29.6705 213.956 29.6705ZM213.967 27.7955C214.369 27.7955 214.704 27.6818 214.973 27.4545C215.242 27.2235 215.445 26.9091 215.581 26.5114C215.721 26.1136 215.791 25.661 215.791 25.1534C215.791 24.6458 215.721 24.1932 215.581 23.7955C215.445 23.3977 215.242 23.0833 214.973 22.8523C214.704 22.6212 214.369 22.5057 213.967 22.5057C213.562 22.5057 213.221 22.6212 212.945 22.8523C212.672 23.0833 212.465 23.3977 212.325 23.7955C212.189 24.1932 212.121 24.6458 212.121 25.1534C212.121 25.661 212.189 26.1136 212.325 26.5114C212.465 26.9091 212.672 27.2235 212.945 27.4545C213.221 27.6818 213.562 27.7955 213.967 27.7955ZM223.041 29.642C222.378 29.642 221.778 29.4716 221.24 29.1307C220.706 28.786 220.282 28.2803 219.967 27.6136C219.657 26.9432 219.501 26.1212 219.501 25.1477C219.501 24.1477 219.662 23.3163 219.984 22.6534C220.306 21.9867 220.734 21.4886 221.268 21.1591C221.806 20.8258 222.395 20.6591 223.036 20.6591C223.524 20.6591 223.931 20.7424 224.257 20.9091C224.587 21.072 224.852 21.2765 225.053 21.5227C225.257 21.7652 225.412 22.0038 225.518 22.2386H225.592V17.8636H228.007V29.5H225.621V28.1023H225.518C225.405 28.3447 225.244 28.5852 225.036 28.8239C224.831 29.0587 224.564 29.2538 224.234 29.4091C223.909 29.5644 223.511 29.642 223.041 29.642ZM223.808 27.7159C224.198 27.7159 224.528 27.6098 224.797 27.3977C225.07 27.1818 225.278 26.8807 225.422 26.4943C225.57 26.108 225.643 25.6553 225.643 25.1364C225.643 24.6174 225.571 24.1667 225.428 23.7841C225.284 23.4015 225.075 23.1061 224.803 22.8977C224.53 22.6894 224.198 22.5852 223.808 22.5852C223.411 22.5852 223.075 22.6932 222.803 22.9091C222.53 23.125 222.323 23.4242 222.183 23.8068C222.043 24.1894 221.973 24.6326 221.973 25.1364C221.973 25.6439 222.043 26.0928 222.183 26.483C222.327 26.8693 222.534 27.1723 222.803 27.392C223.075 27.608 223.411 27.7159 223.808 27.7159Z" fill="white"/>
</svg>
