<svg width="255" height="48" viewBox="0 0 255 48" fill="none" xmlns="http://www.w3.org/2000/svg">
<rect x="0.105286" width="254" height="48" rx="4" fill="black"/>
<g clip-path="url(#clip0_145_33)">
<path d="M41.6373 27.106C41.3711 27.1059 41.1159 27 40.9279 26.8117C40.7398 26.6234 40.6342 26.3681 40.6343 26.102C40.6344 25.8358 40.7403 25.5807 40.9286 25.3926C41.1168 25.2045 41.3721 25.0989 41.6383 25.099C41.9044 25.099 42.1597 25.2047 42.3479 25.3929C42.5361 25.5811 42.6418 25.8363 42.6418 26.1025C42.6418 26.3686 42.5361 26.6239 42.3479 26.8121C42.1597 27.0003 41.9044 27.106 41.6383 27.106H41.6373ZM30.5933 27.106C30.4615 27.1059 30.331 27.0799 30.2093 27.0294C30.0876 26.9789 29.977 26.9049 29.8839 26.8117C29.6958 26.6234 29.5902 26.3681 29.5903 26.102C29.5904 25.8358 29.6963 25.5807 29.8846 25.3926C30.0728 25.2045 30.3281 25.0989 30.5943 25.099C30.8604 25.099 31.1157 25.2047 31.3039 25.3929C31.4921 25.5811 31.5978 25.8363 31.5978 26.1025C31.5978 26.3686 31.4921 26.6239 31.3039 26.8121C31.1157 27.0003 30.8594 27.106 30.5933 27.106ZM41.9933 21.088L43.9993 17.629C44.0533 17.5334 44.067 17.4202 44.0376 17.3145C44.0082 17.2087 43.9379 17.119 43.8423 17.065C43.7467 17.011 43.6335 16.9972 43.5278 17.0267C43.422 17.0561 43.3323 17.1264 43.2783 17.222L41.2513 20.722C39.6415 19.9862 37.8913 19.6082 36.1213 19.614C34.2713 19.614 32.5263 20.012 30.9803 20.712L28.9533 17.212C28.9266 17.1647 28.8908 17.1232 28.848 17.0897C28.8052 17.0563 28.7563 17.0316 28.7039 17.017C28.6516 17.0025 28.5969 16.9984 28.543 17.005C28.4891 17.0116 28.4371 17.0288 28.3898 17.0555C28.3425 17.0822 28.301 17.118 28.2675 17.1608C28.2341 17.2036 28.2094 17.2525 28.1948 17.3048C28.1803 17.3572 28.1762 17.4118 28.1828 17.4657C28.1894 17.5196 28.2066 17.5717 28.2333 17.619L30.2283 21.077C26.8013 22.947 24.4503 26.417 24.1053 30.523H48.1053C47.7713 26.427 45.4303 22.958 41.9933 21.088Z" fill="white"/>
</g>
<path d="M63.2416 29.5H59.1166V17.8636H63.2757C64.4462 17.8636 65.4538 18.0966 66.2985 18.5625C67.1432 19.0246 67.7928 19.6894 68.2473 20.5568C68.7057 21.4242 68.9348 22.4621 68.9348 23.6705C68.9348 24.8826 68.7057 25.9242 68.2473 26.7955C67.7928 27.6667 67.1394 28.3352 66.2871 28.8011C65.4386 29.267 64.4235 29.5 63.2416 29.5ZM61.5769 27.392H63.1394C63.8666 27.392 64.4784 27.2633 64.9746 27.0057C65.4746 26.7443 65.8496 26.3409 66.0996 25.7955C66.3534 25.2462 66.4803 24.5379 66.4803 23.6705C66.4803 22.8106 66.3534 22.108 66.0996 21.5625C65.8496 21.017 65.4765 20.6155 64.9803 20.358C64.4841 20.1004 63.8723 19.9716 63.1451 19.9716H61.5769V27.392ZM74.655 29.6705C73.7724 29.6705 73.0092 29.483 72.3652 29.108C71.7251 28.7292 71.2308 28.2027 70.8823 27.5284C70.5338 26.8504 70.3595 26.0644 70.3595 25.1705C70.3595 24.2689 70.5338 23.4811 70.8823 22.8068C71.2308 22.1288 71.7251 21.6023 72.3652 21.2273C73.0092 20.8485 73.7724 20.6591 74.655 20.6591C75.5376 20.6591 76.2989 20.8485 76.9391 21.2273C77.583 21.6023 78.0792 22.1288 78.4277 22.8068C78.7762 23.4811 78.9505 24.2689 78.9505 25.1705C78.9505 26.0644 78.7762 26.8504 78.4277 27.5284C78.0792 28.2027 77.583 28.7292 76.9391 29.108C76.2989 29.483 75.5376 29.6705 74.655 29.6705ZM74.6664 27.7955C75.0679 27.7955 75.4031 27.6818 75.672 27.4545C75.941 27.2235 76.1436 26.9091 76.28 26.5114C76.4202 26.1136 76.4902 25.661 76.4902 25.1534C76.4902 24.6458 76.4202 24.1932 76.28 23.7955C76.1436 23.3977 75.941 23.0833 75.672 22.8523C75.4031 22.6212 75.0679 22.5057 74.6664 22.5057C74.2611 22.5057 73.9202 22.6212 73.6436 22.8523C73.3709 23.0833 73.1645 23.3977 73.0243 23.7955C72.888 24.1932 72.8198 24.6458 72.8198 25.1534C72.8198 25.661 72.888 26.1136 73.0243 26.5114C73.1645 26.9091 73.3709 27.2235 73.6436 27.4545C73.9202 27.6818 74.2611 27.7955 74.6664 27.7955ZM82.0272 29.5L79.6522 20.7727H82.101L83.4533 26.6364H83.5328L84.9419 20.7727H87.3453L88.7772 26.6023H88.851L90.1806 20.7727H92.6238L90.2544 29.5H87.6919L86.1919 24.0114H86.084L84.584 29.5H82.0272ZM96.3354 24.4545V29.5H93.9149V20.7727H96.2218V22.3125H96.324C96.5172 21.8049 96.8411 21.4034 97.2956 21.108C97.7502 20.8087 98.3013 20.6591 98.949 20.6591C99.5551 20.6591 100.084 20.7917 100.534 21.0568C100.985 21.322 101.335 21.7008 101.585 22.1932C101.835 22.6818 101.96 23.2652 101.96 23.9432V29.5H99.5399V24.375C99.5437 23.8409 99.4074 23.4242 99.1309 23.125C98.8543 22.822 98.4737 22.6705 97.9888 22.6705C97.6631 22.6705 97.3752 22.7405 97.1252 22.8807C96.879 23.0208 96.6858 23.2254 96.5456 23.4943C96.4093 23.7595 96.3392 24.0795 96.3354 24.4545ZM106.289 17.8636V29.5H103.868V17.8636H106.289ZM112.171 29.6705C111.288 29.6705 110.525 29.483 109.881 29.108C109.241 28.7292 108.746 28.2027 108.398 27.5284C108.049 26.8504 107.875 26.0644 107.875 25.1705C107.875 24.2689 108.049 23.4811 108.398 22.8068C108.746 22.1288 109.241 21.6023 109.881 21.2273C110.525 20.8485 111.288 20.6591 112.171 20.6591C113.053 20.6591 113.815 20.8485 114.455 21.2273C115.099 21.6023 115.595 22.1288 115.943 22.8068C116.292 23.4811 116.466 24.2689 116.466 25.1705C116.466 26.0644 116.292 26.8504 115.943 27.5284C115.595 28.2027 115.099 28.7292 114.455 29.108C113.815 29.483 113.053 29.6705 112.171 29.6705ZM112.182 27.7955C112.584 27.7955 112.919 27.6818 113.188 27.4545C113.457 27.2235 113.659 26.9091 113.796 26.5114C113.936 26.1136 114.006 25.661 114.006 25.1534C114.006 24.6458 113.936 24.1932 113.796 23.7955C113.659 23.3977 113.457 23.0833 113.188 22.8523C112.919 22.6212 112.584 22.5057 112.182 22.5057C111.777 22.5057 111.436 22.6212 111.159 22.8523C110.887 23.0833 110.68 23.3977 110.54 23.7955C110.404 24.1932 110.335 24.6458 110.335 25.1534C110.335 25.661 110.404 26.1136 110.54 26.5114C110.68 26.9091 110.887 27.2235 111.159 27.4545C111.436 27.6818 111.777 27.7955 112.182 27.7955ZM120.529 29.6648C119.972 29.6648 119.476 29.5682 119.04 29.375C118.604 29.178 118.26 28.8883 118.006 28.5057C117.756 28.1193 117.631 27.6383 117.631 27.0625C117.631 26.5777 117.72 26.1705 117.898 25.8409C118.076 25.5114 118.318 25.2462 118.625 25.0455C118.932 24.8447 119.28 24.6932 119.671 24.5909C120.065 24.4886 120.477 24.4167 120.909 24.375C121.417 24.322 121.826 24.2727 122.137 24.2273C122.447 24.178 122.673 24.1061 122.813 24.0114C122.953 23.9167 123.023 23.7765 123.023 23.5909V23.5568C123.023 23.197 122.909 22.9186 122.682 22.7216C122.459 22.5246 122.14 22.4261 121.727 22.4261C121.292 22.4261 120.945 22.5227 120.688 22.7159C120.43 22.9053 120.26 23.1439 120.176 23.4318L117.938 23.25C118.051 22.7197 118.275 22.2614 118.608 21.875C118.941 21.4848 119.371 21.1856 119.898 20.9773C120.428 20.7652 121.042 20.6591 121.739 20.6591C122.224 20.6591 122.688 20.7159 123.131 20.8295C123.578 20.9432 123.974 21.1193 124.318 21.358C124.667 21.5966 124.941 21.9034 125.142 22.2784C125.343 22.6496 125.443 23.0947 125.443 23.6136V29.5H123.148V28.2898H123.08C122.94 28.5625 122.752 28.803 122.517 29.0114C122.282 29.2159 122 29.3769 121.671 29.4943C121.341 29.608 120.96 29.6648 120.529 29.6648ZM121.222 27.9943C121.578 27.9943 121.892 27.9242 122.165 27.7841C122.438 27.6402 122.652 27.447 122.807 27.2045C122.962 26.9621 123.04 26.6875 123.04 26.3807V25.4545C122.964 25.5038 122.86 25.5492 122.727 25.5909C122.599 25.6288 122.453 25.6648 122.29 25.6989C122.127 25.7292 121.964 25.7576 121.801 25.7841C121.638 25.8068 121.491 25.8277 121.358 25.8466C121.074 25.8883 120.826 25.9545 120.614 26.0455C120.402 26.1364 120.237 26.2595 120.119 26.4148C120.002 26.5663 119.943 26.7557 119.943 26.983C119.943 27.3125 120.063 27.5644 120.301 27.7386C120.544 27.9091 120.851 27.9943 121.222 27.9943ZM130.537 29.642C129.874 29.642 129.274 29.4716 128.736 29.1307C128.202 28.786 127.778 28.2803 127.463 27.6136C127.153 26.9432 126.997 26.1212 126.997 25.1477C126.997 24.1477 127.158 23.3163 127.48 22.6534C127.802 21.9867 128.23 21.4886 128.764 21.1591C129.302 20.8258 129.891 20.6591 130.531 20.6591C131.02 20.6591 131.427 20.7424 131.753 20.9091C132.083 21.072 132.348 21.2765 132.548 21.5227C132.753 21.7652 132.908 22.0038 133.014 22.2386H133.088V17.8636H135.503V29.5H133.117V28.1023H133.014C132.901 28.3447 132.74 28.5852 132.531 28.8239C132.327 29.0587 132.06 29.2538 131.73 29.4091C131.405 29.5644 131.007 29.642 130.537 29.642ZM131.304 27.7159C131.694 27.7159 132.024 27.6098 132.293 27.3977C132.566 27.1818 132.774 26.8807 132.918 26.4943C133.066 26.108 133.139 25.6553 133.139 25.1364C133.139 24.6174 133.067 24.1667 132.923 23.7841C132.78 23.4015 132.571 23.1061 132.298 22.8977C132.026 22.6894 131.694 22.5852 131.304 22.5852C130.906 22.5852 130.571 22.6932 130.298 22.9091C130.026 23.125 129.819 23.4242 129.679 23.8068C129.539 24.1894 129.469 24.6326 129.469 25.1364C129.469 25.6439 129.539 26.0928 129.679 26.483C129.823 26.8693 130.03 27.1723 130.298 27.392C130.571 27.608 130.906 27.7159 131.304 27.7159ZM145.889 20.7727V22.5909H140.503V20.7727H145.889ZM141.736 29.5V20.142C141.736 19.5095 141.859 18.9848 142.105 18.5682C142.355 18.1515 142.696 17.839 143.128 17.6307C143.56 17.4223 144.05 17.3182 144.6 17.3182C144.971 17.3182 145.31 17.3466 145.617 17.4034C145.927 17.4602 146.158 17.5114 146.31 17.5568L145.878 19.375C145.783 19.3447 145.666 19.3163 145.526 19.2898C145.389 19.2633 145.249 19.25 145.105 19.25C144.749 19.25 144.501 19.3333 144.361 19.5C144.221 19.6629 144.151 19.892 144.151 20.1875V29.5H141.736ZM150.999 29.6705C150.116 29.6705 149.353 29.483 148.709 29.108C148.069 28.7292 147.575 28.2027 147.226 27.5284C146.878 26.8504 146.703 26.0644 146.703 25.1705C146.703 24.2689 146.878 23.4811 147.226 22.8068C147.575 22.1288 148.069 21.6023 148.709 21.2273C149.353 20.8485 150.116 20.6591 150.999 20.6591C151.881 20.6591 152.643 20.8485 153.283 21.2273C153.927 21.6023 154.423 22.1288 154.771 22.8068C155.12 23.4811 155.294 24.2689 155.294 25.1705C155.294 26.0644 155.12 26.8504 154.771 27.5284C154.423 28.2027 153.927 28.7292 153.283 29.108C152.643 29.483 151.881 29.6705 150.999 29.6705ZM151.01 27.7955C151.412 27.7955 151.747 27.6818 152.016 27.4545C152.285 27.2235 152.487 26.9091 152.624 26.5114C152.764 26.1136 152.834 25.661 152.834 25.1534C152.834 24.6458 152.764 24.1932 152.624 23.7955C152.487 23.3977 152.285 23.0833 152.016 22.8523C151.747 22.6212 151.412 22.5057 151.01 22.5057C150.605 22.5057 150.264 22.6212 149.987 22.8523C149.715 23.0833 149.508 23.3977 149.368 23.7955C149.232 24.1932 149.164 24.6458 149.164 25.1534C149.164 25.661 149.232 26.1136 149.368 26.5114C149.508 26.9091 149.715 27.2235 149.987 27.4545C150.264 27.6818 150.605 27.7955 151.01 27.7955ZM156.868 29.5V20.7727H159.215V22.2955H159.306C159.465 21.7538 159.732 21.3447 160.107 21.0682C160.482 20.7879 160.914 20.6477 161.402 20.6477C161.523 20.6477 161.654 20.6553 161.794 20.6705C161.934 20.6856 162.057 20.7064 162.164 20.733V22.8807C162.05 22.8466 161.893 22.8163 161.692 22.7898C161.491 22.7633 161.307 22.75 161.141 22.75C160.785 22.75 160.467 22.8277 160.186 22.983C159.91 23.1345 159.69 23.3466 159.527 23.6193C159.368 23.892 159.289 24.2064 159.289 24.5625V29.5H156.868ZM169.169 29.5H166.533L170.55 17.8636H173.72L177.732 29.5H175.095L172.181 20.5227H172.09L169.169 29.5ZM169.004 24.9261H175.232V26.8466H169.004V24.9261ZM181.507 24.4545V29.5H179.087V20.7727H181.394V22.3125H181.496C181.689 21.8049 182.013 21.4034 182.468 21.108C182.922 20.8087 183.473 20.6591 184.121 20.6591C184.727 20.6591 185.255 20.7917 185.706 21.0568C186.157 21.322 186.507 21.7008 186.757 22.1932C187.007 22.6818 187.132 23.2652 187.132 23.9432V29.5H184.712V24.375C184.716 23.8409 184.579 23.4242 184.303 23.125C184.026 22.822 183.646 22.6705 183.161 22.6705C182.835 22.6705 182.547 22.7405 182.297 22.8807C182.051 23.0208 181.858 23.2254 181.718 23.4943C181.581 23.7595 181.511 24.0795 181.507 24.4545ZM192.256 29.642C191.593 29.642 190.993 29.4716 190.455 29.1307C189.921 28.786 189.496 28.2803 189.182 27.6136C188.871 26.9432 188.716 26.1212 188.716 25.1477C188.716 24.1477 188.877 23.3163 189.199 22.6534C189.521 21.9867 189.949 21.4886 190.483 21.1591C191.021 20.8258 191.61 20.6591 192.25 20.6591C192.739 20.6591 193.146 20.7424 193.472 20.9091C193.801 21.072 194.066 21.2765 194.267 21.5227C194.472 21.7652 194.627 22.0038 194.733 22.2386H194.807V17.8636H197.222V29.5H194.835V28.1023H194.733C194.619 28.3447 194.459 28.5852 194.25 28.8239C194.046 29.0587 193.779 29.2538 193.449 29.4091C193.123 29.5644 192.726 29.642 192.256 29.642ZM193.023 27.7159C193.413 27.7159 193.743 27.6098 194.012 27.3977C194.284 27.1818 194.493 26.8807 194.637 26.4943C194.784 26.108 194.858 25.6553 194.858 25.1364C194.858 24.6174 194.786 24.1667 194.642 23.7841C194.498 23.4015 194.29 23.1061 194.017 22.8977C193.744 22.6894 193.413 22.5852 193.023 22.5852C192.625 22.5852 192.29 22.6932 192.017 22.9091C191.744 23.125 191.538 23.4242 191.398 23.8068C191.258 24.1894 191.188 24.6326 191.188 25.1364C191.188 25.6439 191.258 26.0928 191.398 26.483C191.542 26.8693 191.748 27.1723 192.017 27.392C192.29 27.608 192.625 27.7159 193.023 27.7159ZM199.212 29.5V20.7727H201.558V22.2955H201.649C201.808 21.7538 202.075 21.3447 202.45 21.0682C202.825 20.7879 203.257 20.6477 203.746 20.6477C203.867 20.6477 203.998 20.6553 204.138 20.6705C204.278 20.6856 204.401 20.7064 204.507 20.733V22.8807C204.394 22.8466 204.236 22.8163 204.036 22.7898C203.835 22.7633 203.651 22.75 203.485 22.75C203.128 22.75 202.81 22.8277 202.53 22.983C202.253 23.1345 202.034 23.3466 201.871 23.6193C201.712 23.892 201.632 24.2064 201.632 24.5625V29.5H199.212ZM205.759 29.5V20.7727H208.179V29.5H205.759ZM206.975 19.6477C206.615 19.6477 206.306 19.5284 206.048 19.2898C205.795 19.0473 205.668 18.7576 205.668 18.4205C205.668 18.0871 205.795 17.8011 206.048 17.5625C206.306 17.3201 206.615 17.1989 206.975 17.1989C207.334 17.1989 207.641 17.3201 207.895 17.5625C208.153 17.8011 208.281 18.0871 208.281 18.4205C208.281 18.7576 208.153 19.0473 207.895 19.2898C207.641 19.5284 207.334 19.6477 206.975 19.6477ZM214.061 29.6705C213.179 29.6705 212.415 29.483 211.771 29.108C211.131 28.7292 210.637 28.2027 210.289 27.5284C209.94 26.8504 209.766 26.0644 209.766 25.1705C209.766 24.2689 209.94 23.4811 210.289 22.8068C210.637 22.1288 211.131 21.6023 211.771 21.2273C212.415 20.8485 213.179 20.6591 214.061 20.6591C214.944 20.6591 215.705 20.8485 216.345 21.2273C216.989 21.6023 217.485 22.1288 217.834 22.8068C218.182 23.4811 218.357 24.2689 218.357 25.1705C218.357 26.0644 218.182 26.8504 217.834 27.5284C217.485 28.2027 216.989 28.7292 216.345 29.108C215.705 29.483 214.944 29.6705 214.061 29.6705ZM214.073 27.7955C214.474 27.7955 214.809 27.6818 215.078 27.4545C215.347 27.2235 215.55 26.9091 215.686 26.5114C215.826 26.1136 215.896 25.661 215.896 25.1534C215.896 24.6458 215.826 24.1932 215.686 23.7955C215.55 23.3977 215.347 23.0833 215.078 22.8523C214.809 22.6212 214.474 22.5057 214.073 22.5057C213.667 22.5057 213.326 22.6212 213.05 22.8523C212.777 23.0833 212.571 23.3977 212.431 23.7955C212.294 24.1932 212.226 24.6458 212.226 25.1534C212.226 25.661 212.294 26.1136 212.431 26.5114C212.571 26.9091 212.777 27.2235 213.05 27.4545C213.326 27.6818 213.667 27.7955 214.073 27.7955ZM223.146 29.642C222.484 29.642 221.883 29.4716 221.345 29.1307C220.811 28.786 220.387 28.2803 220.073 27.6136C219.762 26.9432 219.607 26.1212 219.607 25.1477C219.607 24.1477 219.768 23.3163 220.09 22.6534C220.412 21.9867 220.84 21.4886 221.374 21.1591C221.912 20.8258 222.501 20.6591 223.141 20.6591C223.629 20.6591 224.037 20.7424 224.362 20.9091C224.692 21.072 224.957 21.2765 225.158 21.5227C225.362 21.7652 225.518 22.0038 225.624 22.2386H225.698V17.8636H228.112V29.5H225.726V28.1023H225.624C225.51 28.3447 225.349 28.5852 225.141 28.8239C224.936 29.0587 224.669 29.2538 224.34 29.4091C224.014 29.5644 223.616 29.642 223.146 29.642ZM223.914 27.7159C224.304 27.7159 224.633 27.6098 224.902 27.3977C225.175 27.1818 225.383 26.8807 225.527 26.4943C225.675 26.108 225.749 25.6553 225.749 25.1364C225.749 24.6174 225.677 24.1667 225.533 23.7841C225.389 23.4015 225.181 23.1061 224.908 22.8977C224.635 22.6894 224.304 22.5852 223.914 22.5852C223.516 22.5852 223.181 22.6932 222.908 22.9091C222.635 23.125 222.429 23.4242 222.289 23.8068C222.148 24.1894 222.078 24.6326 222.078 25.1364C222.078 25.6439 222.148 26.0928 222.289 26.483C222.432 26.8693 222.639 27.1723 222.908 27.392C223.181 27.608 223.516 27.7159 223.914 27.7159Z" fill="white"/>
<defs>
<clipPath id="clip0_145_33">
<rect width="24" height="24" fill="white" transform="translate(24.1053 12)"/>
</clipPath>
</defs>
</svg>
