<svg width="60" height="69" viewBox="0 0 60 69" fill="none" xmlns="http://www.w3.org/2000/svg">
<g clip-path="url(#clip0_15_50)">
<path d="M30 0C27.6295 0 25.7143 1.92351 25.7143 4.30435V6.88696C15.9375 8.87772 8.57143 17.5671 8.57143 27.9783V30.5071C8.57143 36.8291 6.25446 42.9359 2.07589 47.6707L1.08482 48.7871C-0.0401787 50.0515 -0.308036 51.8674 0.375 53.4143C1.05804 54.9611 2.59821 55.9565 4.28571 55.9565H55.7143C57.4018 55.9565 58.9286 54.9611 59.625 53.4143C60.3214 51.8674 60.0402 50.0515 58.9152 48.7871L57.9241 47.6707C53.7455 42.9359 51.4286 36.8425 51.4286 30.5071V27.9783C51.4286 17.5671 44.0625 8.87772 34.2857 6.88696V4.30435C34.2857 1.92351 32.3705 0 30 0ZM36.067 66.3542C37.6741 64.7401 38.5714 62.5476 38.5714 60.2609H30H21.4286C21.4286 62.5476 22.3259 64.7401 23.933 66.3542C25.5402 67.9683 27.7232 68.8696 30 68.8696C32.2768 68.8696 34.4598 67.9683 36.067 66.3542Z" fill="#3A49F9"/>
</g>
<defs>
<clipPath id="clip0_15_50">
<rect width="60" height="68.8696" fill="white"/>
</clipPath>
</defs>
</svg>
