<svg width="60" height="60" viewBox="0 0 60 60" fill="none" xmlns="http://www.w3.org/2000/svg">
<g clip-path="url(#clip0_15_63)">
<path d="M17.1429 0C19.5134 0 21.4286 1.67578 21.4286 3.75V7.5H38.5714V3.75C38.5714 1.67578 40.4866 0 42.8571 0C45.2277 0 47.1429 1.67578 47.1429 3.75V7.5H53.5714C57.1205 7.5 60 10.0195 60 13.125V18.75H0V13.125C0 10.0195 2.87946 7.5 6.42857 7.5H12.8571V3.75C12.8571 1.67578 14.7723 0 17.1429 0ZM0 22.5H60V54.375C60 57.4805 57.1205 60 53.5714 60H6.42857C2.87946 60 0 57.4805 0 54.375V22.5ZM8.57143 31.875V35.625C8.57143 36.6563 9.53571 37.5 10.7143 37.5H15C16.1786 37.5 17.1429 36.6563 17.1429 35.625V31.875C17.1429 30.8437 16.1786 30 15 30H10.7143C9.53571 30 8.57143 30.8437 8.57143 31.875ZM25.7143 31.875V35.625C25.7143 36.6563 26.6786 37.5 27.8571 37.5H32.1429C33.3214 37.5 34.2857 36.6563 34.2857 35.625V31.875C34.2857 30.8437 33.3214 30 32.1429 30H27.8571C26.6786 30 25.7143 30.8437 25.7143 31.875ZM45 30C43.8214 30 42.8571 30.8437 42.8571 31.875V35.625C42.8571 36.6563 43.8214 37.5 45 37.5H49.2857C50.4643 37.5 51.4286 36.6563 51.4286 35.625V31.875C51.4286 30.8437 50.4643 30 49.2857 30H45ZM8.57143 46.875V50.625C8.57143 51.6563 9.53571 52.5 10.7143 52.5H15C16.1786 52.5 17.1429 51.6563 17.1429 50.625V46.875C17.1429 45.8437 16.1786 45 15 45H10.7143C9.53571 45 8.57143 45.8437 8.57143 46.875ZM27.8571 45C26.6786 45 25.7143 45.8437 25.7143 46.875V50.625C25.7143 51.6563 26.6786 52.5 27.8571 52.5H32.1429C33.3214 52.5 34.2857 51.6563 34.2857 50.625V46.875C34.2857 45.8437 33.3214 45 32.1429 45H27.8571ZM42.8571 46.875V50.625C42.8571 51.6563 43.8214 52.5 45 52.5H49.2857C50.4643 52.5 51.4286 51.6563 51.4286 50.625V46.875C51.4286 45.8437 50.4643 45 49.2857 45H45C43.8214 45 42.8571 45.8437 42.8571 46.875Z" fill="#3A49F9"/>
</g>
<defs>
<clipPath id="clip0_15_63">
<rect width="60" height="60" fill="white"/>
</clipPath>
</defs>
</svg>
