<svg width="60" height="60" viewBox="0 0 60 60" fill="none" xmlns="http://www.w3.org/2000/svg">
<path d="M17.4727 7.59375L16.2539 11.25H7.5C3.36328 11.25 0 14.6133 0 18.75V48.75C0 52.8867 3.36328 56.25 7.5 56.25H52.5C56.6367 56.25 60 52.8867 60 48.75V18.75C60 14.6133 56.6367 11.25 52.5 11.25H43.7461L42.5273 7.59375C41.7656 5.29688 39.6211 3.75 37.1953 3.75H22.8047C20.3789 3.75 18.2344 5.29688 17.4727 7.59375ZM30 22.5C32.9837 22.5 35.8452 23.6853 37.955 25.795C40.0647 27.9048 41.25 30.7663 41.25 33.75C41.25 36.7337 40.0647 39.5952 37.955 41.705C35.8452 43.8147 32.9837 45 30 45C27.0163 45 24.1548 43.8147 22.045 41.705C19.9353 39.5952 18.75 36.7337 18.75 33.75C18.75 30.7663 19.9353 27.9048 22.045 25.795C24.1548 23.6853 27.0163 22.5 30 22.5Z" fill="#3A49F9"/>
</svg>
