<svg width="512" height="88" viewBox="0 0 512 88" fill="none" xmlns="http://www.w3.org/2000/svg">
<g filter="url(#filter0_d_0_215)">
<rect x="12" width="488" height="88" rx="10" fill="white"/>
<rect x="36" y="24" width="40" height="40" rx="4" fill="#F4F8FB"/>
<path d="M62 36H50C47.7909 36 46 37.7909 46 40V50C46 52.2091 47.7909 54 50 54H62C64.2091 54 66 52.2091 66 50V40C66 37.7909 64.2091 36 62 36Z" stroke="#5D5D5D" stroke-width="2" stroke-linecap="round" stroke-linejoin="round"/>
<path d="M52 34V38" stroke="#5D5D5D" stroke-width="2" stroke-linecap="round" stroke-linejoin="round"/>
<path d="M60 34V38" stroke="#5D5D5D" stroke-width="2" stroke-linecap="round" stroke-linejoin="round"/>
<path d="M46 42H66" stroke="#5D5D5D" stroke-width="2" stroke-linecap="round" stroke-linejoin="round"/>
<path d="M94.5781 40.348C94.5099 39.7429 94.2287 39.2741 93.7344 38.9418C93.2401 38.6051 92.6179 38.4368 91.8679 38.4368C91.331 38.4368 90.8665 38.522 90.4744 38.6925C90.0824 38.8587 89.7777 39.0888 89.5604 39.3828C89.3473 39.6726 89.2408 40.0028 89.2408 40.3736C89.2408 40.6847 89.3132 40.9531 89.4581 41.179C89.6072 41.4048 89.8011 41.5945 90.0398 41.7479C90.2827 41.897 90.5426 42.0227 90.8196 42.125C91.0966 42.223 91.3629 42.304 91.6186 42.3679L92.897 42.7003C93.3146 42.8026 93.7429 42.9411 94.1818 43.1158C94.6207 43.2905 95.0277 43.5206 95.4027 43.8061C95.7777 44.0916 96.0803 44.4453 96.3104 44.8672C96.5447 45.2891 96.6619 45.794 96.6619 46.3821C96.6619 47.1236 96.4702 47.782 96.0866 48.3572C95.7074 48.9325 95.1555 49.3864 94.4311 49.7188C93.7109 50.0511 92.8395 50.2173 91.8168 50.2173C90.8366 50.2173 89.9886 50.0618 89.2727 49.7507C88.5568 49.4396 87.9964 48.9986 87.5916 48.4276C87.1868 47.8523 86.9631 47.1705 86.9205 46.3821H88.902C88.9403 46.8551 89.0938 47.2493 89.3622 47.5646C89.6349 47.8757 89.9822 48.108 90.4041 48.2614C90.8303 48.4105 91.2969 48.4851 91.804 48.4851C92.3622 48.4851 92.8587 48.3977 93.2933 48.223C93.7322 48.044 94.0774 47.7969 94.3288 47.4815C94.5803 47.1619 94.706 46.7891 94.706 46.3629C94.706 45.9751 94.5952 45.6577 94.3736 45.4105C94.1563 45.1634 93.8601 44.9588 93.4851 44.7969C93.1143 44.6349 92.6946 44.4922 92.2259 44.3686L90.679 43.9467C89.6307 43.6612 88.7997 43.2415 88.1861 42.6875C87.5767 42.1335 87.272 41.4006 87.272 40.4886C87.272 39.7344 87.4766 39.076 87.8857 38.5135C88.2947 37.951 88.8487 37.5142 89.5476 37.2031C90.2464 36.8878 91.0348 36.7301 91.9126 36.7301C92.799 36.7301 93.581 36.8857 94.2585 37.1967C94.9403 37.5078 95.4773 37.9361 95.8693 38.4815C96.2614 39.0227 96.4659 39.6449 96.483 40.348H94.5781ZM103.1 50.1982C102.133 50.1982 101.3 49.9915 100.601 49.5781C99.9064 49.1605 99.3695 48.5746 98.9902 47.8203C98.6152 47.0618 98.4277 46.1733 98.4277 45.1548C98.4277 44.1491 98.6152 43.2628 98.9902 42.4957C99.3695 41.7287 99.8979 41.13 100.575 40.6996C101.257 40.2692 102.054 40.054 102.966 40.054C103.52 40.054 104.057 40.1456 104.577 40.3288C105.097 40.5121 105.563 40.7997 105.977 41.1918C106.39 41.5838 106.716 42.093 106.955 42.7195C107.193 43.3416 107.313 44.098 107.313 44.9886V45.6662H99.508V44.2344H105.44C105.44 43.7315 105.338 43.2862 105.133 42.8984C104.928 42.5064 104.641 42.1974 104.27 41.9716C103.904 41.7457 103.473 41.6328 102.979 41.6328C102.442 41.6328 101.973 41.7649 101.573 42.0291C101.176 42.2891 100.869 42.63 100.652 43.0518C100.439 43.4695 100.333 43.9233 100.333 44.4134V45.532C100.333 46.1882 100.448 46.7464 100.678 47.2067C100.912 47.6669 101.238 48.0185 101.656 48.2614C102.073 48.5 102.561 48.6193 103.119 48.6193C103.482 48.6193 103.812 48.5682 104.11 48.4659C104.409 48.3594 104.666 48.2017 104.884 47.9929C105.101 47.7841 105.267 47.5263 105.382 47.2195L107.191 47.5455C107.046 48.0781 106.786 48.5447 106.411 48.9453C106.041 49.3416 105.574 49.6506 105.012 49.8722C104.453 50.0895 103.816 50.1982 103.1 50.1982ZM114.016 40.1818V41.7159H108.653V40.1818H114.016ZM110.092 37.8295H112.003V47.1172C112.003 47.4879 112.058 47.767 112.169 47.9545C112.28 48.1378 112.423 48.2635 112.597 48.3317C112.776 48.3956 112.97 48.4276 113.179 48.4276C113.332 48.4276 113.467 48.4169 113.582 48.3956C113.697 48.3743 113.786 48.3572 113.85 48.3445L114.195 49.9233C114.085 49.9659 113.927 50.0085 113.722 50.0511C113.518 50.098 113.262 50.1236 112.955 50.1278C112.452 50.1364 111.984 50.0469 111.549 49.8594C111.114 49.6719 110.763 49.3821 110.494 48.9901C110.226 48.598 110.092 48.1058 110.092 47.5135V37.8295ZM120.894 50V40.1818H122.741V41.7415H122.844C123.023 41.2131 123.338 40.7976 123.79 40.495C124.246 40.1882 124.761 40.0348 125.337 40.0348C125.456 40.0348 125.597 40.0391 125.759 40.0476C125.925 40.0561 126.055 40.0668 126.148 40.0795V41.9077C126.072 41.8864 125.935 41.8629 125.739 41.8374C125.543 41.8075 125.347 41.7926 125.151 41.7926C124.7 41.7926 124.297 41.8885 123.943 42.0803C123.594 42.2678 123.317 42.5298 123.112 42.8665C122.908 43.1989 122.805 43.5781 122.805 44.0043V50H120.894ZM131.682 50.1982C130.715 50.1982 129.882 49.9915 129.183 49.5781C128.488 49.1605 127.952 48.5746 127.572 47.8203C127.197 47.0618 127.01 46.1733 127.01 45.1548C127.01 44.1491 127.197 43.2628 127.572 42.4957C127.952 41.7287 128.48 41.13 129.157 40.6996C129.839 40.2692 130.636 40.054 131.548 40.054C132.102 40.054 132.639 40.1456 133.159 40.3288C133.679 40.5121 134.145 40.7997 134.559 41.1918C134.972 41.5838 135.298 42.093 135.537 42.7195C135.775 43.3416 135.895 44.098 135.895 44.9886V45.6662H128.09V44.2344H134.022C134.022 43.7315 133.92 43.2862 133.715 42.8984C133.51 42.5064 133.223 42.1974 132.852 41.9716C132.486 41.7457 132.055 41.6328 131.561 41.6328C131.024 41.6328 130.555 41.7649 130.155 42.0291C129.758 42.2891 129.452 42.63 129.234 43.0518C129.021 43.4695 128.915 43.9233 128.915 44.4134V45.532C128.915 46.1882 129.03 46.7464 129.26 47.2067C129.494 47.6669 129.82 48.0185 130.238 48.2614C130.655 48.5 131.143 48.6193 131.702 48.6193C132.064 48.6193 132.394 48.5682 132.692 48.4659C132.991 48.3594 133.248 48.2017 133.466 47.9929C133.683 47.7841 133.849 47.5263 133.964 47.2195L135.773 47.5455C135.628 48.0781 135.368 48.5447 134.993 48.9453C134.623 49.3416 134.156 49.6506 133.594 49.8722C133.035 50.0895 132.398 50.1982 131.682 50.1982ZM138.015 50V40.1818H139.85V41.7798H139.971C140.176 41.2386 140.51 40.8168 140.975 40.5142C141.439 40.2074 141.995 40.054 142.643 40.054C143.299 40.054 143.849 40.2074 144.292 40.5142C144.74 40.821 145.07 41.2429 145.283 41.7798H145.385C145.62 41.2557 145.993 40.8381 146.504 40.527C147.015 40.2116 147.625 40.054 148.332 40.054C149.223 40.054 149.949 40.3331 150.512 40.8913C151.078 41.4496 151.362 42.2912 151.362 43.4162V50H149.451V43.5952C149.451 42.9304 149.27 42.4489 148.907 42.1506C148.545 41.8523 148.113 41.7031 147.61 41.7031C146.988 41.7031 146.504 41.8949 146.159 42.2784C145.814 42.6577 145.641 43.1456 145.641 43.7422V50H143.736V43.4737C143.736 42.9411 143.57 42.5128 143.238 42.1889C142.905 41.8651 142.473 41.7031 141.94 41.7031C141.578 41.7031 141.243 41.799 140.936 41.9908C140.634 42.1783 140.389 42.4403 140.201 42.777C140.018 43.1136 139.926 43.5036 139.926 43.9467V50H138.015ZM153.923 50V40.1818H155.835V50H153.923ZM154.889 38.6669C154.556 38.6669 154.271 38.5561 154.032 38.3345C153.798 38.1087 153.681 37.8402 153.681 37.5291C153.681 37.2138 153.798 36.9453 154.032 36.7237C154.271 36.4979 154.556 36.3849 154.889 36.3849C155.221 36.3849 155.504 36.4979 155.739 36.7237C155.977 36.9453 156.097 37.2138 156.097 37.5291C156.097 37.8402 155.977 38.1087 155.739 38.3345C155.504 38.5561 155.221 38.6669 154.889 38.6669ZM160.317 44.1705V50H158.406V40.1818H160.24V41.7798H160.362C160.588 41.2599 160.941 40.8423 161.423 40.527C161.909 40.2116 162.52 40.054 163.257 40.054C163.926 40.054 164.512 40.1946 165.015 40.4759C165.518 40.7528 165.908 41.1662 166.185 41.7159C166.462 42.2656 166.6 42.9453 166.6 43.755V50H164.689V43.9851C164.689 43.2734 164.504 42.7173 164.133 42.3168C163.762 41.9119 163.253 41.7095 162.605 41.7095C162.162 41.7095 161.768 41.8054 161.423 41.9972C161.082 42.1889 160.811 42.4702 160.611 42.8409C160.415 43.2074 160.317 43.6506 160.317 44.1705ZM172.839 50.1918C172.047 50.1918 171.339 49.9893 170.717 49.5845C170.099 49.1754 169.613 48.5937 169.26 47.8395C168.91 47.081 168.735 46.1712 168.735 45.1101C168.735 44.049 168.912 43.1413 169.266 42.3871C169.624 41.6328 170.114 41.0554 170.736 40.6548C171.358 40.2543 172.064 40.054 172.852 40.054C173.461 40.054 173.951 40.1562 174.322 40.3608C174.697 40.5611 174.987 40.7955 175.191 41.0639C175.4 41.3324 175.562 41.5689 175.677 41.7734H175.792V36.9091H177.703V50H175.837V48.4723H175.677C175.562 48.6811 175.396 48.9197 175.179 49.1882C174.966 49.4567 174.672 49.6911 174.297 49.8913C173.922 50.0916 173.436 50.1918 172.839 50.1918ZM173.261 48.5618C173.811 48.5618 174.275 48.4169 174.654 48.1271C175.038 47.8331 175.328 47.4261 175.524 46.9062C175.724 46.3864 175.824 45.7812 175.824 45.0909C175.824 44.4091 175.726 43.8125 175.53 43.3011C175.334 42.7898 175.047 42.3913 174.667 42.1058C174.288 41.8203 173.819 41.6776 173.261 41.6776C172.686 41.6776 172.206 41.8267 171.823 42.125C171.439 42.4233 171.15 42.8303 170.953 43.3459C170.762 43.8615 170.666 44.4432 170.666 45.0909C170.666 45.7472 170.764 46.3374 170.96 46.8615C171.156 47.3857 171.446 47.8011 171.829 48.108C172.217 48.4105 172.694 48.5618 173.261 48.5618ZM184.663 50.1982C183.695 50.1982 182.862 49.9915 182.164 49.5781C181.469 49.1605 180.932 48.5746 180.553 47.8203C180.178 47.0618 179.99 46.1733 179.99 45.1548C179.99 44.1491 180.178 43.2628 180.553 42.4957C180.932 41.7287 181.46 41.13 182.138 40.6996C182.82 40.2692 183.617 40.054 184.529 40.054C185.083 40.054 185.619 40.1456 186.139 40.3288C186.659 40.5121 187.126 40.7997 187.539 41.1918C187.953 41.5838 188.279 42.093 188.517 42.7195C188.756 43.3416 188.875 44.098 188.875 44.9886V45.6662H181.07V44.2344H187.002C187.002 43.7315 186.9 43.2862 186.695 42.8984C186.491 42.5064 186.203 42.1974 185.833 41.9716C185.466 41.7457 185.036 41.6328 184.541 41.6328C184.004 41.6328 183.536 41.7649 183.135 42.0291C182.739 42.2891 182.432 42.63 182.215 43.0518C182.002 43.4695 181.895 43.9233 181.895 44.4134V45.532C181.895 46.1882 182.01 46.7464 182.24 47.2067C182.475 47.6669 182.801 48.0185 183.218 48.2614C183.636 48.5 184.124 48.6193 184.682 48.6193C185.044 48.6193 185.374 48.5682 185.673 48.4659C185.971 48.3594 186.229 48.2017 186.446 47.9929C186.664 47.7841 186.83 47.5263 186.945 47.2195L188.754 47.5455C188.609 48.0781 188.349 48.5447 187.974 48.9453C187.603 49.3416 187.137 49.6506 186.574 49.8722C186.016 50.0895 185.379 50.1982 184.663 50.1982ZM190.996 50V40.1818H192.843V41.7415H192.945C193.124 41.2131 193.44 40.7976 193.891 40.495C194.347 40.1882 194.863 40.0348 195.438 40.0348C195.558 40.0348 195.698 40.0391 195.86 40.0476C196.026 40.0561 196.156 40.0668 196.25 40.0795V41.9077C196.173 41.8864 196.037 41.8629 195.841 41.8374C195.645 41.8075 195.449 41.7926 195.253 41.7926C194.801 41.7926 194.398 41.8885 194.045 42.0803C193.695 42.2678 193.418 42.5298 193.214 42.8665C193.009 43.1989 192.907 43.5781 192.907 44.0043V50H190.996ZM205.261 42.5788L203.529 42.8857C203.456 42.6641 203.341 42.4531 203.184 42.2528C203.03 42.0526 202.822 41.8885 202.557 41.7607C202.293 41.6328 201.963 41.5689 201.567 41.5689C201.025 41.5689 200.574 41.6903 200.211 41.9332C199.849 42.1719 199.668 42.4808 199.668 42.8601C199.668 43.1882 199.79 43.4524 200.032 43.6527C200.275 43.853 200.667 44.017 201.209 44.1449L202.768 44.5028C203.672 44.7116 204.345 45.0334 204.788 45.468C205.231 45.9027 205.453 46.4673 205.453 47.1619C205.453 47.75 205.282 48.2741 204.942 48.7344C204.605 49.1903 204.134 49.5483 203.529 49.8082C202.928 50.0682 202.231 50.1982 201.439 50.1982C200.339 50.1982 199.442 49.9638 198.748 49.495C198.053 49.022 197.627 48.3509 197.469 47.4815L199.317 47.2003C199.432 47.6818 199.668 48.0462 200.026 48.2933C200.384 48.5362 200.851 48.6577 201.426 48.6577C202.052 48.6577 202.553 48.5277 202.928 48.2678C203.303 48.0036 203.491 47.6818 203.491 47.3026C203.491 46.9957 203.376 46.7379 203.145 46.5291C202.92 46.3203 202.572 46.1626 202.104 46.0561L200.442 45.6918C199.525 45.483 198.848 45.1506 198.409 44.6946C197.974 44.2386 197.757 43.6612 197.757 42.9624C197.757 42.3828 197.919 41.8757 198.243 41.4411C198.567 41.0064 199.014 40.6676 199.585 40.4247C200.156 40.1776 200.81 40.054 201.547 40.054C202.608 40.054 203.444 40.2841 204.053 40.7443C204.662 41.2003 205.065 41.8118 205.261 42.5788ZM215.175 50.2173C214.553 50.2173 213.991 50.1023 213.488 49.8722C212.985 49.6378 212.586 49.299 212.292 48.8558C212.003 48.4126 211.858 47.8693 211.858 47.2259C211.858 46.6719 211.964 46.2159 212.177 45.858C212.39 45.5 212.678 45.2166 213.04 45.0078C213.403 44.799 213.807 44.6413 214.255 44.5348C214.702 44.4283 215.158 44.3473 215.623 44.2919C216.211 44.2237 216.688 44.1683 217.055 44.1257C217.421 44.0788 217.687 44.0043 217.854 43.902C218.02 43.7997 218.103 43.6335 218.103 43.4034V43.3587C218.103 42.8004 217.945 42.3679 217.63 42.0611C217.319 41.7543 216.854 41.6009 216.236 41.6009C215.593 41.6009 215.086 41.7436 214.715 42.0291C214.349 42.3104 214.095 42.6236 213.954 42.9688L212.158 42.5597C212.371 41.9631 212.682 41.4815 213.091 41.1151C213.505 40.7443 213.98 40.4759 214.517 40.3097C215.054 40.1392 215.618 40.054 216.211 40.054C216.603 40.054 217.018 40.1009 217.457 40.1946C217.9 40.2841 218.314 40.4503 218.697 40.6932C219.085 40.9361 219.403 41.2834 219.65 41.7351C219.897 42.1825 220.02 42.7642 220.02 43.4801V50H218.154V48.6577H218.077C217.954 48.9048 217.768 49.1477 217.521 49.3864C217.274 49.625 216.956 49.8232 216.569 49.9808C216.181 50.1385 215.716 50.2173 215.175 50.2173ZM215.591 48.6832C216.119 48.6832 216.571 48.5788 216.946 48.37C217.325 48.1612 217.613 47.8885 217.809 47.5518C218.009 47.2109 218.109 46.8466 218.109 46.4588V45.1932C218.041 45.2614 217.909 45.3253 217.713 45.3849C217.521 45.4403 217.302 45.4893 217.055 45.532C216.807 45.5703 216.567 45.6065 216.332 45.6406C216.098 45.6705 215.902 45.696 215.744 45.7173C215.373 45.7642 215.035 45.843 214.728 45.9538C214.425 46.0646 214.182 46.2244 213.999 46.4332C213.82 46.6378 213.731 46.9105 213.731 47.2514C213.731 47.7244 213.905 48.0824 214.255 48.3253C214.604 48.5639 215.05 48.6832 215.591 48.6832ZM224.477 44.1705V50H222.566V40.1818H224.401V41.7798H224.522C224.748 41.2599 225.102 40.8423 225.583 40.527C226.069 40.2116 226.68 40.054 227.418 40.054C228.087 40.054 228.673 40.1946 229.175 40.4759C229.678 40.7528 230.068 41.1662 230.345 41.7159C230.622 42.2656 230.761 42.9453 230.761 43.755V50H228.849V43.9851C228.849 43.2734 228.664 42.7173 228.293 42.3168C227.923 41.9119 227.413 41.7095 226.766 41.7095C226.322 41.7095 225.928 41.8054 225.583 41.9972C225.242 42.1889 224.972 42.4702 224.771 42.8409C224.575 43.2074 224.477 43.6506 224.477 44.1705ZM236.999 50.1918C236.207 50.1918 235.499 49.9893 234.877 49.5845C234.259 49.1754 233.773 48.5937 233.42 47.8395C233.07 47.081 232.896 46.1712 232.896 45.1101C232.896 44.049 233.072 43.1413 233.426 42.3871C233.784 41.6328 234.274 41.0554 234.896 40.6548C235.518 40.2543 236.224 40.054 237.012 40.054C237.621 40.054 238.112 40.1562 238.482 40.3608C238.857 40.5611 239.147 40.7955 239.352 41.0639C239.56 41.3324 239.722 41.5689 239.837 41.7734H239.952V36.9091H241.864V50H239.997V48.4723H239.837C239.722 48.6811 239.556 48.9197 239.339 49.1882C239.126 49.4567 238.832 49.6911 238.457 49.8913C238.082 50.0916 237.596 50.1918 236.999 50.1918ZM237.421 48.5618C237.971 48.5618 238.435 48.4169 238.815 48.1271C239.198 47.8331 239.488 47.4261 239.684 46.9062C239.884 46.3864 239.984 45.7812 239.984 45.0909C239.984 44.4091 239.886 43.8125 239.69 43.3011C239.494 42.7898 239.207 42.3913 238.827 42.1058C238.448 41.8203 237.979 41.6776 237.421 41.6776C236.846 41.6776 236.366 41.8267 235.983 42.125C235.599 42.4233 235.31 42.8303 235.114 43.3459C234.922 43.8615 234.826 44.4432 234.826 45.0909C234.826 45.7472 234.924 46.3374 235.12 46.8615C235.316 47.3857 235.606 47.8011 235.989 48.108C236.377 48.4105 236.854 48.5618 237.421 48.5618ZM252.212 50.2173C251.59 50.2173 251.028 50.1023 250.525 49.8722C250.022 49.6378 249.624 49.299 249.33 48.8558C249.04 48.4126 248.895 47.8693 248.895 47.2259C248.895 46.6719 249.001 46.2159 249.214 45.858C249.428 45.5 249.715 45.2166 250.077 45.0078C250.44 44.799 250.844 44.6413 251.292 44.5348C251.739 44.4283 252.195 44.3473 252.66 44.2919C253.248 44.2237 253.725 44.1683 254.092 44.1257C254.458 44.0788 254.724 44.0043 254.891 43.902C255.057 43.7997 255.14 43.6335 255.14 43.4034V43.3587C255.14 42.8004 254.982 42.3679 254.667 42.0611C254.356 41.7543 253.891 41.6009 253.273 41.6009C252.63 41.6009 252.123 41.7436 251.752 42.0291C251.386 42.3104 251.132 42.6236 250.991 42.9688L249.195 42.5597C249.408 41.9631 249.719 41.4815 250.129 41.1151C250.542 40.7443 251.017 40.4759 251.554 40.3097C252.091 40.1392 252.656 40.054 253.248 40.054C253.64 40.054 254.055 40.1009 254.494 40.1946C254.938 40.2841 255.351 40.4503 255.734 40.6932C256.122 40.9361 256.44 41.2834 256.687 41.7351C256.934 42.1825 257.058 42.7642 257.058 43.4801V50H255.191V48.6577H255.114C254.991 48.9048 254.805 49.1477 254.558 49.3864C254.311 49.625 253.994 49.8232 253.606 49.9808C253.218 50.1385 252.754 50.2173 252.212 50.2173ZM252.628 48.6832C253.156 48.6832 253.608 48.5788 253.983 48.37C254.362 48.1612 254.65 47.8885 254.846 47.5518C255.046 47.2109 255.146 46.8466 255.146 46.4588V45.1932C255.078 45.2614 254.946 45.3253 254.75 45.3849C254.558 45.4403 254.339 45.4893 254.092 45.532C253.844 45.5703 253.604 45.6065 253.369 45.6406C253.135 45.6705 252.939 45.696 252.781 45.7173C252.411 45.7642 252.072 45.843 251.765 45.9538C251.462 46.0646 251.219 46.2244 251.036 46.4332C250.857 46.6378 250.768 46.9105 250.768 47.2514C250.768 47.7244 250.942 48.0824 251.292 48.3253C251.641 48.5639 252.087 48.6832 252.628 48.6832ZM261.514 36.9091V50H259.603V36.9091H261.514ZM268.317 50.1982C267.35 50.1982 266.517 49.9915 265.818 49.5781C265.123 49.1605 264.586 48.5746 264.207 47.8203C263.832 47.0618 263.645 46.1733 263.645 45.1548C263.645 44.1491 263.832 43.2628 264.207 42.4957C264.586 41.7287 265.115 41.13 265.792 40.6996C266.474 40.2692 267.271 40.054 268.183 40.054C268.737 40.054 269.274 40.1456 269.794 40.3288C270.314 40.5121 270.78 40.7997 271.194 41.1918C271.607 41.5838 271.933 42.093 272.172 42.7195C272.41 43.3416 272.529 44.098 272.529 44.9886V45.6662H264.725V44.2344H270.657C270.657 43.7315 270.554 43.2862 270.35 42.8984C270.145 42.5064 269.858 42.1974 269.487 41.9716C269.12 41.7457 268.69 41.6328 268.196 41.6328C267.659 41.6328 267.19 41.7649 266.789 42.0291C266.393 42.2891 266.086 42.63 265.869 43.0518C265.656 43.4695 265.549 43.9233 265.549 44.4134V45.532C265.549 46.1882 265.664 46.7464 265.895 47.2067C266.129 47.6669 266.455 48.0185 266.873 48.2614C267.29 48.5 267.778 48.6193 268.336 48.6193C268.699 48.6193 269.029 48.5682 269.327 48.4659C269.625 48.3594 269.883 48.2017 270.1 47.9929C270.318 47.7841 270.484 47.5263 270.599 47.2195L272.408 47.5455C272.263 48.0781 272.003 48.5447 271.628 48.9453C271.257 49.3416 270.791 49.6506 270.228 49.8722C269.67 50.0895 269.033 50.1982 268.317 50.1982ZM274.65 50V40.1818H276.497V41.7415H276.6C276.779 41.2131 277.094 40.7976 277.546 40.495C278.002 40.1882 278.517 40.0348 279.093 40.0348C279.212 40.0348 279.352 40.0391 279.514 40.0476C279.681 40.0561 279.811 40.0668 279.904 40.0795V41.9077C279.828 41.8864 279.691 41.8629 279.495 41.8374C279.299 41.8075 279.103 41.7926 278.907 41.7926C278.455 41.7926 278.053 41.8885 277.699 42.0803C277.35 42.2678 277.073 42.5298 276.868 42.8665C276.664 43.1989 276.561 43.5781 276.561 44.0043V50H274.65ZM286.721 40.1818V41.7159H281.358V40.1818H286.721ZM282.797 37.8295H284.708V47.1172C284.708 47.4879 284.763 47.767 284.874 47.9545C284.985 48.1378 285.128 48.2635 285.302 48.3317C285.481 48.3956 285.675 48.4276 285.884 48.4276C286.037 48.4276 286.172 48.4169 286.287 48.3956C286.402 48.3743 286.491 48.3572 286.555 48.3445L286.9 49.9233C286.79 49.9659 286.632 50.0085 286.427 50.0511C286.223 50.098 285.967 50.1236 285.66 50.1278C285.157 50.1364 284.689 50.0469 284.254 49.8594C283.819 49.6719 283.468 49.3821 283.199 48.9901C282.931 48.598 282.797 48.1058 282.797 47.5135V37.8295ZM296.035 42.5788L294.302 42.8857C294.23 42.6641 294.115 42.4531 293.957 42.2528C293.804 42.0526 293.595 41.8885 293.331 41.7607C293.067 41.6328 292.736 41.5689 292.34 41.5689C291.799 41.5689 291.347 41.6903 290.985 41.9332C290.623 42.1719 290.442 42.4808 290.442 42.8601C290.442 43.1882 290.563 43.4524 290.806 43.6527C291.049 43.853 291.441 44.017 291.982 44.1449L293.542 44.5028C294.445 44.7116 295.118 45.0334 295.562 45.468C296.005 45.9027 296.226 46.4673 296.226 47.1619C296.226 47.75 296.056 48.2741 295.715 48.7344C295.378 49.1903 294.907 49.5483 294.302 49.8082C293.702 50.0682 293.005 50.1982 292.212 50.1982C291.113 50.1982 290.216 49.9638 289.521 49.495C288.827 49.022 288.4 48.3509 288.243 47.4815L290.09 47.2003C290.205 47.6818 290.442 48.0462 290.8 48.2933C291.157 48.5362 291.624 48.6577 292.199 48.6577C292.826 48.6577 293.327 48.5277 293.702 48.2678C294.077 48.0036 294.264 47.6818 294.264 47.3026C294.264 46.9957 294.149 46.7379 293.919 46.5291C293.693 46.3203 293.346 46.1626 292.877 46.0561L291.215 45.6918C290.299 45.483 289.621 45.1506 289.182 44.6946C288.748 44.2386 288.53 43.6612 288.53 42.9624C288.53 42.3828 288.692 41.8757 289.016 41.4411C289.34 41.0064 289.787 40.6676 290.358 40.4247C290.93 40.1776 291.584 40.054 292.321 40.054C293.382 40.054 294.217 40.2841 294.827 40.7443C295.436 41.2003 295.839 41.8118 296.035 42.5788Z" fill="#404040"/>
</g>
<defs>
<filter id="filter0_d_0_215" x="0" y="-8" width="512" height="112" filterUnits="userSpaceOnUse" color-interpolation-filters="sRGB">
<feFlood flood-opacity="0" result="BackgroundImageFix"/>
<feColorMatrix in="SourceAlpha" type="matrix" values="0 0 0 0 0 0 0 0 0 0 0 0 0 0 0 0 0 0 127 0" result="hardAlpha"/>
<feOffset dy="4"/>
<feGaussianBlur stdDeviation="6"/>
<feComposite in2="hardAlpha" operator="out"/>
<feColorMatrix type="matrix" values="0 0 0 0 0.460645 0 0 0 0 0.460645 0 0 0 0 0.460645 0 0 0 0.1 0"/>
<feBlend mode="normal" in2="BackgroundImageFix" result="effect1_dropShadow_0_215"/>
<feBlend mode="normal" in="SourceGraphic" in2="effect1_dropShadow_0_215" result="shape"/>
</filter>
</defs>
</svg>
