<svg width="500" height="88" viewBox="0 0 500 88" fill="none" xmlns="http://www.w3.org/2000/svg">
<g filter="url(#filter0_d_0_206)">
<rect width="488" height="88" rx="10" fill="white"/>
<rect x="24" y="24" width="40" height="40" rx="4" fill="#F4F8FB"/>
<path d="M36 36V52C36 52.5304 36.2107 53.0391 36.5858 53.4142C36.9609 53.7893 37.4696 54 38 54H50C50.5304 54 51.0391 53.7893 51.4142 53.4142C51.7893 53.0391 52 52.5304 52 52V40.342C52 40.0756 51.9467 39.8118 51.8433 39.5662C51.7399 39.3207 51.5885 39.0982 51.398 38.912L46.958 34.57C46.5844 34.2047 46.0826 34.0001 45.56 34H38C37.4696 34 36.9609 34.2107 36.5858 34.5858C36.2107 34.9609 36 35.4696 36 36Z" stroke="#5D5D5D" stroke-width="2" stroke-linecap="round" stroke-linejoin="round"/>
<path d="M41 45H47" stroke="#5D5D5D" stroke-width="2" stroke-linecap="round" stroke-linejoin="round"/>
<path d="M41 49H44" stroke="#5D5D5D" stroke-width="2" stroke-linecap="round" stroke-linejoin="round"/>
<path d="M46 34V38C46 38.5304 46.2107 39.0391 46.5858 39.4142C46.9609 39.7893 47.4696 40 48 40H52" stroke="#5D5D5D" stroke-width="2" stroke-linecap="round" stroke-linejoin="round"/>
<path d="M75.4382 50V36.9091H80.1044C81.1186 36.9091 81.9602 37.0838 82.6293 37.4332C83.3026 37.7827 83.8054 38.2663 84.1378 38.8842C84.4702 39.4979 84.6364 40.2074 84.6364 41.0128C84.6364 41.8139 84.468 42.5192 84.1314 43.1286C83.799 43.7337 83.2962 44.2045 82.6229 44.5412C81.9538 44.8778 81.1122 45.0462 80.098 45.0462H76.5632V43.3459H79.919C80.5582 43.3459 81.0781 43.2543 81.4787 43.071C81.8835 42.8878 82.1797 42.6214 82.3672 42.272C82.5547 41.9226 82.6484 41.5028 82.6484 41.0128C82.6484 40.5185 82.5526 40.0902 82.3608 39.728C82.1733 39.3658 81.8771 39.0888 81.4723 38.897C81.0717 38.701 80.5455 38.603 79.8935 38.603H77.4134V50H75.4382ZM81.9006 44.0938L85.1349 50H82.8849L79.7145 44.0938H81.9006ZM90.9949 50.1982C90.0275 50.1982 89.1944 49.9915 88.4956 49.5781C87.801 49.1605 87.264 48.5746 86.8848 47.8203C86.5098 47.0618 86.3223 46.1733 86.3223 45.1548C86.3223 44.1491 86.5098 43.2628 86.8848 42.4957C87.264 41.7287 87.7924 41.13 88.47 40.6996C89.1518 40.2692 89.9487 40.054 90.8606 40.054C91.4146 40.054 91.9515 40.1456 92.4714 40.3288C92.9913 40.5121 93.4579 40.7997 93.8713 41.1918C94.2846 41.5838 94.6106 42.093 94.8493 42.7195C95.0879 43.3416 95.2072 44.098 95.2072 44.9886V45.6662H87.4025V44.2344H93.3343C93.3343 43.7315 93.2321 43.2862 93.0275 42.8984C92.823 42.5064 92.5353 42.1974 92.1646 41.9716C91.7981 41.7457 91.3677 41.6328 90.8734 41.6328C90.3365 41.6328 89.8677 41.7649 89.4672 42.0291C89.0708 42.2891 88.764 42.63 88.5467 43.0518C88.3336 43.4695 88.2271 43.9233 88.2271 44.4134V45.532C88.2271 46.1882 88.3422 46.7464 88.5723 47.2067C88.8066 47.6669 89.1326 48.0185 89.5502 48.2614C89.9679 48.5 90.4558 48.6193 91.014 48.6193C91.3762 48.6193 91.7065 48.5682 92.0048 48.4659C92.3031 48.3594 92.5609 48.2017 92.7782 47.9929C92.9956 47.7841 93.1618 47.5263 93.2768 47.2195L95.0858 47.5455C94.9409 48.0781 94.6809 48.5447 94.3059 48.9453C93.9352 49.3416 93.4686 49.6506 92.9061 49.8722C92.3478 50.0895 91.7108 50.1982 90.9949 50.1982ZM100.185 50.2173C99.5629 50.2173 99.0004 50.1023 98.4975 49.8722C97.9947 49.6378 97.5962 49.299 97.3022 48.8558C97.0124 48.4126 96.8675 47.8693 96.8675 47.2259C96.8675 46.6719 96.9741 46.2159 97.1871 45.858C97.4002 45.5 97.6879 45.2166 98.0501 45.0078C98.4123 44.799 98.8171 44.6413 99.2646 44.5348C99.712 44.4283 100.168 44.3473 100.632 44.2919C101.221 44.2237 101.698 44.1683 102.064 44.1257C102.431 44.0788 102.697 44.0043 102.863 43.902C103.029 43.7997 103.113 43.6335 103.113 43.4034V43.3587C103.113 42.8004 102.955 42.3679 102.64 42.0611C102.328 41.7543 101.864 41.6009 101.246 41.6009C100.603 41.6009 100.096 41.7436 99.7248 42.0291C99.3583 42.3104 99.1048 42.6236 98.9641 42.9688L97.168 42.5597C97.381 41.9631 97.6921 41.4815 98.1012 41.1151C98.5146 40.7443 98.9897 40.4759 99.5266 40.3097C100.064 40.1392 100.628 40.054 101.221 40.054C101.613 40.054 102.028 40.1009 102.467 40.1946C102.91 40.2841 103.324 40.4503 103.707 40.6932C104.095 40.9361 104.412 41.2834 104.659 41.7351C104.907 42.1825 105.03 42.7642 105.03 43.4801V50H103.164V48.6577H103.087C102.963 48.9048 102.778 49.1477 102.531 49.3864C102.284 49.625 101.966 49.8232 101.578 49.9808C101.191 50.1385 100.726 50.2173 100.185 50.2173ZM100.6 48.6832C101.129 48.6832 101.581 48.5788 101.956 48.37C102.335 48.1612 102.623 47.8885 102.819 47.5518C103.019 47.2109 103.119 46.8466 103.119 46.4588V45.1932C103.051 45.2614 102.919 45.3253 102.723 45.3849C102.531 45.4403 102.311 45.4893 102.064 45.532C101.817 45.5703 101.576 45.6065 101.342 45.6406C101.108 45.6705 100.912 45.696 100.754 45.7173C100.383 45.7642 100.044 45.843 99.7376 45.9538C99.435 46.0646 99.1921 46.2244 99.0089 46.4332C98.8299 46.6378 98.7404 46.9105 98.7404 47.2514C98.7404 47.7244 98.9151 48.0824 99.2646 48.3253C99.614 48.5639 100.059 48.6832 100.6 48.6832ZM109.487 36.9091V50H107.576V36.9091H109.487ZM116.33 38.6094V36.9091H126.461V38.6094H122.377V50H120.408V38.6094H116.33ZM128.547 50V40.1818H130.458V50H128.547ZM129.512 38.6669C129.179 38.6669 128.894 38.5561 128.655 38.3345C128.421 38.1087 128.304 37.8402 128.304 37.5291C128.304 37.2138 128.421 36.9453 128.655 36.7237C128.894 36.4979 129.179 36.3849 129.512 36.3849C129.844 36.3849 130.127 36.4979 130.362 36.7237C130.6 36.9453 130.72 37.2138 130.72 37.5291C130.72 37.8402 130.6 38.1087 130.362 38.3345C130.127 38.5561 129.844 38.6669 129.512 38.6669ZM133.029 50V40.1818H134.863V41.7798H134.985C135.189 41.2386 135.524 40.8168 135.988 40.5142C136.453 40.2074 137.009 40.054 137.657 40.054C138.313 40.054 138.863 40.2074 139.306 40.5142C139.753 40.821 140.084 41.2429 140.297 41.7798H140.399C140.633 41.2557 141.006 40.8381 141.518 40.527C142.029 40.2116 142.638 40.054 143.346 40.054C144.236 40.054 144.963 40.3331 145.525 40.8913C146.092 41.4496 146.376 42.2912 146.376 43.4162V50H144.464V43.5952C144.464 42.9304 144.283 42.4489 143.921 42.1506C143.559 41.8523 143.126 41.7031 142.623 41.7031C142.001 41.7031 141.518 41.8949 141.172 42.2784C140.827 42.6577 140.655 43.1456 140.655 43.7422V50H138.75V43.4737C138.75 42.9411 138.584 42.5128 138.251 42.1889C137.919 41.8651 137.486 41.7031 136.954 41.7031C136.591 41.7031 136.257 41.799 135.95 41.9908C135.648 42.1783 135.403 42.4403 135.215 42.777C135.032 43.1136 134.94 43.5036 134.94 43.9467V50H133.029ZM153.169 50.1982C152.201 50.1982 151.368 49.9915 150.669 49.5781C149.975 49.1605 149.438 48.5746 149.059 47.8203C148.684 47.0618 148.496 46.1733 148.496 45.1548C148.496 44.1491 148.684 43.2628 149.059 42.4957C149.438 41.7287 149.966 41.13 150.644 40.6996C151.326 40.2692 152.123 40.054 153.034 40.054C153.588 40.054 154.125 40.1456 154.645 40.3288C155.165 40.5121 155.632 40.7997 156.045 41.1918C156.458 41.5838 156.784 42.093 157.023 42.7195C157.262 43.3416 157.381 44.098 157.381 44.9886V45.6662H149.576V44.2344H155.508C155.508 43.7315 155.406 43.2862 155.201 42.8984C154.997 42.5064 154.709 42.1974 154.338 41.9716C153.972 41.7457 153.542 41.6328 153.047 41.6328C152.51 41.6328 152.042 41.7649 151.641 42.0291C151.245 42.2891 150.938 42.63 150.721 43.0518C150.507 43.4695 150.401 43.9233 150.401 44.4134V45.532C150.401 46.1882 150.516 46.7464 150.746 47.2067C150.98 47.6669 151.306 48.0185 151.724 48.2614C152.142 48.5 152.63 48.6193 153.188 48.6193C153.55 48.6193 153.88 48.5682 154.179 48.4659C154.477 48.3594 154.735 48.2017 154.952 47.9929C155.169 47.7841 155.336 47.5263 155.451 47.2195L157.26 47.5455C157.115 48.0781 156.855 48.5447 156.48 48.9453C156.109 49.3416 155.642 49.6506 155.08 49.8722C154.522 50.0895 153.885 50.1982 153.169 50.1982ZM163.773 38.6094V36.9091H173.904V38.6094H169.82V50H167.851V38.6094H163.773ZM174.97 50V40.1818H176.818V41.7415H176.92C177.099 41.2131 177.414 40.7976 177.866 40.495C178.322 40.1882 178.838 40.0348 179.413 40.0348C179.532 40.0348 179.673 40.0391 179.835 40.0476C180.001 40.0561 180.131 40.0668 180.225 40.0795V41.9077C180.148 41.8864 180.012 41.8629 179.816 41.8374C179.619 41.8075 179.423 41.7926 179.227 41.7926C178.776 41.7926 178.373 41.8885 178.019 42.0803C177.67 42.2678 177.393 42.5298 177.188 42.8665C176.984 43.1989 176.882 43.5781 176.882 44.0043V50H174.97ZM184.648 50.2173C184.026 50.2173 183.463 50.1023 182.96 49.8722C182.458 49.6378 182.059 49.299 181.765 48.8558C181.475 48.4126 181.33 47.8693 181.33 47.2259C181.33 46.6719 181.437 46.2159 181.65 45.858C181.863 45.5 182.151 45.2166 182.513 45.0078C182.875 44.799 183.28 44.6413 183.727 44.5348C184.175 44.4283 184.631 44.3473 185.095 44.2919C185.683 44.2237 186.161 44.1683 186.527 44.1257C186.894 44.0788 187.16 44.0043 187.326 43.902C187.492 43.7997 187.575 43.6335 187.575 43.4034V43.3587C187.575 42.8004 187.418 42.3679 187.102 42.0611C186.791 41.7543 186.327 41.6009 185.709 41.6009C185.066 41.6009 184.558 41.7436 184.188 42.0291C183.821 42.3104 183.568 42.6236 183.427 42.9688L181.631 42.5597C181.844 41.9631 182.155 41.4815 182.564 41.1151C182.977 40.7443 183.453 40.4759 183.99 40.3097C184.526 40.1392 185.091 40.054 185.683 40.054C186.075 40.054 186.491 40.1009 186.93 40.1946C187.373 40.2841 187.786 40.4503 188.17 40.6932C188.558 40.9361 188.875 41.2834 189.122 41.7351C189.369 42.1825 189.493 42.7642 189.493 43.4801V50H187.627V48.6577H187.55C187.426 48.9048 187.241 49.1477 186.994 49.3864C186.747 49.625 186.429 49.8232 186.041 49.9808C185.654 50.1385 185.189 50.2173 184.648 50.2173ZM185.063 48.6832C185.592 48.6832 186.044 48.5788 186.419 48.37C186.798 48.1612 187.085 47.8885 187.281 47.5518C187.482 47.2109 187.582 46.8466 187.582 46.4588V45.1932C187.514 45.2614 187.382 45.3253 187.186 45.3849C186.994 45.4403 186.774 45.4893 186.527 45.532C186.28 45.5703 186.039 45.6065 185.805 45.6406C185.57 45.6705 185.374 45.696 185.217 45.7173C184.846 45.7642 184.507 45.843 184.2 45.9538C183.898 46.0646 183.655 46.2244 183.472 46.4332C183.293 46.6378 183.203 46.9105 183.203 47.2514C183.203 47.7244 183.378 48.0824 183.727 48.3253C184.077 48.5639 184.522 48.6832 185.063 48.6832ZM196.711 40.1818V41.7159H191.163V40.1818H196.711ZM192.684 50V39.044C192.684 38.4304 192.819 37.9212 193.087 37.5163C193.355 37.1072 193.711 36.8026 194.154 36.6023C194.598 36.3977 195.079 36.2955 195.599 36.2955C195.983 36.2955 196.311 36.3274 196.583 36.3913C196.856 36.451 197.059 36.5064 197.191 36.5575L196.743 38.1044C196.654 38.0788 196.539 38.049 196.398 38.0149C196.257 37.9766 196.087 37.9574 195.887 37.9574C195.422 37.9574 195.09 38.0724 194.89 38.3026C194.694 38.5327 194.596 38.8651 194.596 39.2997V50H192.684ZM203.356 40.1818V41.7159H197.808V40.1818H203.356ZM199.329 50V39.044C199.329 38.4304 199.463 37.9212 199.732 37.5163C200 37.1072 200.356 36.8026 200.799 36.6023C201.242 36.3977 201.724 36.2955 202.244 36.2955C202.627 36.2955 202.955 36.3274 203.228 36.3913C203.501 36.451 203.703 36.5064 203.835 36.5575L203.388 38.1044C203.298 38.0788 203.183 38.049 203.043 38.0149C202.902 37.9766 202.732 37.9574 202.531 37.9574C202.067 37.9574 201.734 38.0724 201.534 38.3026C201.338 38.5327 201.24 38.8651 201.24 39.2997V50H199.329ZM205.328 50V40.1818H207.239V50H205.328ZM206.293 38.6669C205.961 38.6669 205.675 38.5561 205.436 38.3345C205.202 38.1087 205.085 37.8402 205.085 37.5291C205.085 37.2138 205.202 36.9453 205.436 36.7237C205.675 36.4979 205.961 36.3849 206.293 36.3849C206.625 36.3849 206.909 36.4979 207.143 36.7237C207.382 36.9453 207.501 37.2138 207.501 37.5291C207.501 37.8402 207.382 38.1087 207.143 38.3345C206.909 38.5561 206.625 38.6669 206.293 38.6669ZM213.946 50.1982C212.996 50.1982 212.177 49.983 211.491 49.5526C210.809 49.1179 210.285 48.5192 209.919 47.7564C209.552 46.9936 209.369 46.12 209.369 45.1357C209.369 44.1385 209.557 43.2585 209.932 42.4957C210.307 41.7287 210.835 41.13 211.517 40.6996C212.199 40.2692 213.002 40.054 213.927 40.054C214.672 40.054 215.337 40.1925 215.921 40.4695C216.505 40.7422 216.976 41.1257 217.334 41.62C217.696 42.1143 217.911 42.6918 217.979 43.3523H216.119C216.017 42.892 215.782 42.4957 215.416 42.1634C215.054 41.831 214.568 41.6648 213.959 41.6648C213.426 41.6648 212.959 41.8054 212.559 42.0866C212.162 42.3636 211.854 42.7599 211.632 43.2756C211.41 43.7869 211.3 44.392 211.3 45.0909C211.3 45.8068 211.408 46.4247 211.626 46.9446C211.843 47.4645 212.15 47.8672 212.546 48.1527C212.947 48.4382 213.417 48.581 213.959 48.581C214.321 48.581 214.649 48.5149 214.943 48.3828C215.241 48.2464 215.491 48.0526 215.691 47.8011C215.895 47.5497 216.038 47.2472 216.119 46.8935H217.979C217.911 47.5284 217.704 48.0952 217.359 48.5938C217.014 49.0923 216.552 49.4844 215.972 49.7699C215.397 50.0554 214.721 50.1982 213.946 50.1982ZM224.94 36.9091H227.337L231.505 47.0852H231.658L235.826 36.9091H238.223V50H236.344V40.527H236.222L232.361 49.9808H230.802L226.941 40.5206H226.819V50H224.94V36.9091ZM245.077 50.1982C244.156 50.1982 243.353 49.9872 242.667 49.5653C241.981 49.1435 241.448 48.5533 241.069 47.7947C240.69 47.0362 240.5 46.1499 240.5 45.1357C240.5 44.1172 240.69 43.2266 241.069 42.4638C241.448 41.701 241.981 41.1087 242.667 40.6868C243.353 40.2649 244.156 40.054 245.077 40.054C245.997 40.054 246.8 40.2649 247.487 40.6868C248.173 41.1087 248.705 41.701 249.085 42.4638C249.464 43.2266 249.653 44.1172 249.653 45.1357C249.653 46.1499 249.464 47.0362 249.085 47.7947C248.705 48.5533 248.173 49.1435 247.487 49.5653C246.8 49.9872 245.997 50.1982 245.077 50.1982ZM245.083 48.5938C245.68 48.5938 246.174 48.4361 246.566 48.1207C246.958 47.8054 247.248 47.3857 247.435 46.8615C247.627 46.3374 247.723 45.7599 247.723 45.1293C247.723 44.5028 247.627 43.9276 247.435 43.4034C247.248 42.875 246.958 42.451 246.566 42.1314C246.174 41.8118 245.68 41.652 245.083 41.652C244.482 41.652 243.984 41.8118 243.587 42.1314C243.195 42.451 242.903 42.875 242.712 43.4034C242.524 43.9276 242.43 44.5028 242.43 45.1293C242.43 45.7599 242.524 46.3374 242.712 46.8615C242.903 47.3857 243.195 47.8054 243.587 48.1207C243.984 48.4361 244.482 48.5938 245.083 48.5938ZM253.698 44.1705V50H251.787V40.1818H253.621V41.7798H253.743C253.969 41.2599 254.322 40.8423 254.804 40.527C255.29 40.2116 255.901 40.054 256.638 40.054C257.307 40.054 257.893 40.1946 258.396 40.4759C258.899 40.7528 259.289 41.1662 259.566 41.7159C259.843 42.2656 259.981 42.9453 259.981 43.755V50H258.07V43.9851C258.07 43.2734 257.885 42.7173 257.514 42.3168C257.143 41.9119 256.634 41.7095 255.986 41.7095C255.543 41.7095 255.149 41.8054 254.804 41.9972C254.463 42.1889 254.192 42.4702 253.992 42.8409C253.796 43.2074 253.698 43.6506 253.698 44.1705ZM262.545 50V40.1818H264.456V50H262.545ZM263.51 38.6669C263.177 38.6669 262.892 38.5561 262.653 38.3345C262.419 38.1087 262.302 37.8402 262.302 37.5291C262.302 37.2138 262.419 36.9453 262.653 36.7237C262.892 36.4979 263.177 36.3849 263.51 36.3849C263.842 36.3849 264.126 36.4979 264.36 36.7237C264.599 36.9453 264.718 37.2138 264.718 37.5291C264.718 37.8402 264.599 38.1087 264.36 38.3345C264.126 38.5561 263.842 38.6669 263.51 38.6669ZM271.61 40.1818V41.7159H266.247V40.1818H271.61ZM267.685 37.8295H269.597V47.1172C269.597 47.4879 269.652 47.767 269.763 47.9545C269.874 48.1378 270.016 48.2635 270.191 48.3317C270.37 48.3956 270.564 48.4276 270.773 48.4276C270.926 48.4276 271.06 48.4169 271.175 48.3956C271.29 48.3743 271.38 48.3572 271.444 48.3445L271.789 49.9233C271.678 49.9659 271.521 50.0085 271.316 50.0511C271.112 50.098 270.856 50.1236 270.549 50.1278C270.046 50.1364 269.577 50.0469 269.143 49.8594C268.708 49.6719 268.357 49.3821 268.088 48.9901C267.82 48.598 267.685 48.1058 267.685 47.5135V37.8295ZM277.754 50.1982C276.834 50.1982 276.031 49.9872 275.345 49.5653C274.659 49.1435 274.126 48.5533 273.747 47.7947C273.367 47.0362 273.178 46.1499 273.178 45.1357C273.178 44.1172 273.367 43.2266 273.747 42.4638C274.126 41.701 274.659 41.1087 275.345 40.6868C276.031 40.2649 276.834 40.054 277.754 40.054C278.675 40.054 279.478 40.2649 280.164 40.6868C280.85 41.1087 281.383 41.701 281.762 42.4638C282.142 43.2266 282.331 44.1172 282.331 45.1357C282.331 46.1499 282.142 47.0362 281.762 47.7947C281.383 48.5533 280.85 49.1435 280.164 49.5653C279.478 49.9872 278.675 50.1982 277.754 50.1982ZM277.761 48.5938C278.357 48.5938 278.852 48.4361 279.244 48.1207C279.636 47.8054 279.926 47.3857 280.113 46.8615C280.305 46.3374 280.401 45.7599 280.401 45.1293C280.401 44.5028 280.305 43.9276 280.113 43.4034C279.926 42.875 279.636 42.451 279.244 42.1314C278.852 41.8118 278.357 41.652 277.761 41.652C277.16 41.652 276.661 41.8118 276.265 42.1314C275.873 42.451 275.581 42.875 275.389 43.4034C275.202 43.9276 275.108 44.5028 275.108 45.1293C275.108 45.7599 275.202 46.3374 275.389 46.8615C275.581 47.3857 275.873 47.8054 276.265 48.1207C276.661 48.4361 277.16 48.5938 277.761 48.5938ZM284.464 50V40.1818H286.312V41.7415H286.414C286.593 41.2131 286.908 40.7976 287.36 40.495C287.816 40.1882 288.332 40.0348 288.907 40.0348C289.026 40.0348 289.167 40.0391 289.329 40.0476C289.495 40.0561 289.625 40.0668 289.719 40.0795V41.9077C289.642 41.8864 289.506 41.8629 289.31 41.8374C289.114 41.8075 288.918 41.7926 288.722 41.7926C288.27 41.7926 287.867 41.8885 287.513 42.0803C287.164 42.2678 286.887 42.5298 286.683 42.8665C286.478 43.1989 286.376 43.5781 286.376 44.0043V50H284.464ZM291.373 50V40.1818H293.284V50H291.373ZM292.338 38.6669C292.006 38.6669 291.72 38.5561 291.481 38.3345C291.247 38.1087 291.13 37.8402 291.13 37.5291C291.13 37.2138 291.247 36.9453 291.481 36.7237C291.72 36.4979 292.006 36.3849 292.338 36.3849C292.67 36.3849 292.954 36.4979 293.188 36.7237C293.427 36.9453 293.546 37.2138 293.546 37.5291C293.546 37.8402 293.427 38.1087 293.188 38.3345C292.954 38.5561 292.67 38.6669 292.338 38.6669ZM297.766 44.1705V50H295.855V40.1818H297.69V41.7798H297.811C298.037 41.2599 298.391 40.8423 298.872 40.527C299.358 40.2116 299.969 40.054 300.707 40.054C301.376 40.054 301.962 40.1946 302.464 40.4759C302.967 40.7528 303.357 41.1662 303.634 41.7159C303.911 42.2656 304.05 42.9453 304.05 43.755V50H302.138V43.9851C302.138 43.2734 301.953 42.7173 301.582 42.3168C301.212 41.9119 300.702 41.7095 300.055 41.7095C299.612 41.7095 299.217 41.8054 298.872 41.9972C298.531 42.1889 298.261 42.4702 298.06 42.8409C297.864 43.2074 297.766 43.6506 297.766 44.1705ZM310.729 53.8864C309.95 53.8864 309.278 53.7841 308.716 53.5795C308.158 53.375 307.702 53.1044 307.348 52.7678C306.994 52.4311 306.73 52.0625 306.555 51.6619L308.198 50.9844C308.313 51.1719 308.467 51.37 308.658 51.5788C308.854 51.7919 309.119 51.973 309.451 52.1222C309.788 52.2713 310.22 52.3459 310.749 52.3459C311.473 52.3459 312.072 52.169 312.545 51.8153C313.018 51.4659 313.254 50.9077 313.254 50.1406V48.2102H313.133C313.018 48.419 312.852 48.6513 312.634 48.907C312.421 49.1626 312.127 49.3842 311.752 49.5717C311.377 49.7592 310.889 49.853 310.288 49.853C309.513 49.853 308.814 49.6719 308.192 49.3097C307.574 48.9432 307.084 48.4041 306.722 47.6925C306.364 46.9766 306.185 46.0966 306.185 45.0526C306.185 44.0085 306.362 43.1136 306.715 42.3679C307.073 41.6222 307.563 41.0511 308.185 40.6548C308.808 40.2543 309.513 40.054 310.301 40.054C310.911 40.054 311.403 40.1562 311.778 40.3608C312.153 40.5611 312.445 40.7955 312.653 41.0639C312.866 41.3324 313.031 41.5689 313.146 41.7734H313.286V40.1818H315.159V50.2173C315.159 51.0611 314.963 51.7536 314.571 52.2947C314.179 52.8359 313.648 53.2365 312.979 53.4964C312.315 53.7564 311.565 53.8864 310.729 53.8864ZM310.71 48.2678C311.26 48.2678 311.724 48.1399 312.104 47.8842C312.487 47.6243 312.777 47.2536 312.973 46.772C313.173 46.2862 313.273 45.7045 313.273 45.027C313.273 44.3665 313.175 43.7848 312.979 43.282C312.783 42.7791 312.496 42.3871 312.116 42.1058C311.737 41.8203 311.268 41.6776 310.71 41.6776C310.135 41.6776 309.656 41.8267 309.272 42.125C308.888 42.419 308.599 42.8196 308.403 43.3267C308.211 43.8338 308.115 44.4006 308.115 45.027C308.115 45.6705 308.213 46.2351 308.409 46.7209C308.605 47.2067 308.895 47.5859 309.278 47.8587C309.666 48.1314 310.143 48.2678 310.71 48.2678ZM329.779 40.348C329.711 39.7429 329.43 39.2741 328.936 38.9418C328.441 38.6051 327.819 38.4368 327.069 38.4368C326.532 38.4368 326.068 38.522 325.676 38.6925C325.284 38.8587 324.979 39.0888 324.762 39.3828C324.548 39.6726 324.442 40.0028 324.442 40.3736C324.442 40.6847 324.514 40.9531 324.659 41.179C324.808 41.4048 325.002 41.5945 325.241 41.7479C325.484 41.897 325.744 42.0227 326.021 42.125C326.298 42.223 326.564 42.304 326.82 42.3679L328.098 42.7003C328.516 42.8026 328.944 42.9411 329.383 43.1158C329.822 43.2905 330.229 43.5206 330.604 43.8061C330.979 44.0916 331.281 44.4453 331.512 44.8672C331.746 45.2891 331.863 45.794 331.863 46.3821C331.863 47.1236 331.671 47.782 331.288 48.3572C330.909 48.9325 330.357 49.3864 329.632 49.7188C328.912 50.0511 328.041 50.2173 327.018 50.2173C326.038 50.2173 325.19 50.0618 324.474 49.7507C323.758 49.4396 323.198 48.9986 322.793 48.4276C322.388 47.8523 322.164 47.1705 322.122 46.3821H324.103C324.142 46.8551 324.295 47.2493 324.563 47.5646C324.836 47.8757 325.183 48.108 325.605 48.2614C326.031 48.4105 326.498 48.4851 327.005 48.4851C327.563 48.4851 328.06 48.3977 328.494 48.223C328.933 48.044 329.279 47.7969 329.53 47.4815C329.781 47.1619 329.907 46.7891 329.907 46.3629C329.907 45.9751 329.796 45.6577 329.575 45.4105C329.357 45.1634 329.061 44.9588 328.686 44.7969C328.316 44.6349 327.896 44.4922 327.427 44.3686L325.88 43.9467C324.832 43.6612 324.001 43.2415 323.387 42.6875C322.778 42.1335 322.473 41.4006 322.473 40.4886C322.473 39.7344 322.678 39.076 323.087 38.5135C323.496 37.951 324.05 37.5142 324.749 37.2031C325.448 36.8878 326.236 36.7301 327.114 36.7301C328 36.7301 328.782 36.8857 329.46 37.1967C330.142 37.5078 330.678 37.9361 331.07 38.4815C331.463 39.0227 331.667 39.6449 331.684 40.348H329.779ZM335.278 53.6818C334.993 53.6818 334.733 53.6584 334.498 53.6115C334.264 53.5689 334.089 53.522 333.974 53.4709L334.434 51.9048C334.784 51.9986 335.095 52.0391 335.368 52.0263C335.64 52.0135 335.881 51.9112 336.09 51.7195C336.303 51.5277 336.49 51.2145 336.652 50.7798L336.889 50.1278L333.297 40.1818H335.342L337.828 47.8011H337.931L340.417 40.1818H342.469L338.423 51.3104C338.235 51.8217 337.997 52.2543 337.707 52.608C337.417 52.9659 337.072 53.2344 336.672 53.4134C336.271 53.5923 335.806 53.6818 335.278 53.6818ZM351.623 42.5788L349.89 42.8857C349.818 42.6641 349.703 42.4531 349.545 42.2528C349.392 42.0526 349.183 41.8885 348.919 41.7607C348.654 41.6328 348.324 41.5689 347.928 41.5689C347.387 41.5689 346.935 41.6903 346.573 41.9332C346.211 42.1719 346.029 42.4808 346.029 42.8601C346.029 43.1882 346.151 43.4524 346.394 43.6527C346.637 43.853 347.029 44.017 347.57 44.1449L349.13 44.5028C350.033 44.7116 350.706 45.0334 351.15 45.468C351.593 45.9027 351.814 46.4673 351.814 47.1619C351.814 47.75 351.644 48.2741 351.303 48.7344C350.966 49.1903 350.495 49.5483 349.89 49.8082C349.289 50.0682 348.593 50.1982 347.8 50.1982C346.701 50.1982 345.804 49.9638 345.109 49.495C344.414 49.022 343.988 48.3509 343.831 47.4815L345.678 47.2003C345.793 47.6818 346.029 48.0462 346.387 48.2933C346.745 48.5362 347.212 48.6577 347.787 48.6577C348.414 48.6577 348.914 48.5277 349.289 48.2678C349.664 48.0036 349.852 47.6818 349.852 47.3026C349.852 46.9957 349.737 46.7379 349.507 46.5291C349.281 46.3203 348.934 46.1626 348.465 46.0561L346.803 45.6918C345.887 45.483 345.209 45.1506 344.77 44.6946C344.336 44.2386 344.118 43.6612 344.118 42.9624C344.118 42.3828 344.28 41.8757 344.604 41.4411C344.928 41.0064 345.375 40.6676 345.946 40.4247C346.517 40.1776 347.172 40.054 347.909 40.054C348.97 40.054 349.805 40.2841 350.414 40.7443C351.024 41.2003 351.426 41.8118 351.623 42.5788ZM358.499 40.1818V41.7159H353.136V40.1818H358.499ZM354.574 37.8295H356.485V47.1172C356.485 47.4879 356.541 47.767 356.651 47.9545C356.762 48.1378 356.905 48.2635 357.08 48.3317C357.259 48.3956 357.453 48.4276 357.661 48.4276C357.815 48.4276 357.949 48.4169 358.064 48.3956C358.179 48.3743 358.269 48.3572 358.333 48.3445L358.678 49.9233C358.567 49.9659 358.409 50.0085 358.205 50.0511C358 50.098 357.744 50.1236 357.438 50.1278C356.935 50.1364 356.466 50.0469 356.031 49.8594C355.597 49.6719 355.245 49.3821 354.977 48.9901C354.708 48.598 354.574 48.1058 354.574 47.5135V37.8295ZM364.739 50.1982C363.772 50.1982 362.939 49.9915 362.24 49.5781C361.545 49.1605 361.008 48.5746 360.629 47.8203C360.254 47.0618 360.066 46.1733 360.066 45.1548C360.066 44.1491 360.254 43.2628 360.629 42.4957C361.008 41.7287 361.537 41.13 362.214 40.6996C362.896 40.2692 363.693 40.054 364.605 40.054C365.159 40.054 365.696 40.1456 366.216 40.3288C366.735 40.5121 367.202 40.7997 367.615 41.1918C368.029 41.5838 368.355 42.093 368.593 42.7195C368.832 43.3416 368.951 44.098 368.951 44.9886V45.6662H361.147V44.2344H367.078C367.078 43.7315 366.976 43.2862 366.772 42.8984C366.567 42.5064 366.279 42.1974 365.909 41.9716C365.542 41.7457 365.112 41.6328 364.618 41.6328C364.081 41.6328 363.612 41.7649 363.211 42.0291C362.815 42.2891 362.508 42.63 362.291 43.0518C362.078 43.4695 361.971 43.9233 361.971 44.4134V45.532C361.971 46.1882 362.086 46.7464 362.316 47.2067C362.551 47.6669 362.877 48.0185 363.294 48.2614C363.712 48.5 364.2 48.6193 364.758 48.6193C365.12 48.6193 365.451 48.5682 365.749 48.4659C366.047 48.3594 366.305 48.2017 366.522 47.9929C366.74 47.7841 366.906 47.5263 367.021 47.2195L368.83 47.5455C368.685 48.0781 368.425 48.5447 368.05 48.9453C367.679 49.3416 367.213 49.6506 366.65 49.8722C366.092 50.0895 365.455 50.1982 364.739 50.1982ZM371.072 50V40.1818H372.906V41.7798H373.028C373.232 41.2386 373.567 40.8168 374.031 40.5142C374.496 40.2074 375.052 40.054 375.7 40.054C376.356 40.054 376.906 40.2074 377.349 40.5142C377.796 40.821 378.127 41.2429 378.34 41.7798H378.442C378.676 41.2557 379.049 40.8381 379.561 40.527C380.072 40.2116 380.681 40.054 381.389 40.054C382.279 40.054 383.006 40.3331 383.568 40.8913C384.135 41.4496 384.419 42.2912 384.419 43.4162V50H382.507V43.5952C382.507 42.9304 382.326 42.4489 381.964 42.1506C381.602 41.8523 381.169 41.7031 380.666 41.7031C380.044 41.7031 379.561 41.8949 379.215 42.2784C378.87 42.6577 378.698 43.1456 378.698 43.7422V50H376.793V43.4737C376.793 42.9411 376.627 42.5128 376.294 42.1889C375.962 41.8651 375.529 41.7031 374.997 41.7031C374.634 41.7031 374.3 41.799 373.993 41.9908C373.691 42.1783 373.445 42.4403 373.258 42.777C373.075 43.1136 372.983 43.5036 372.983 43.9467V50H371.072Z" fill="#404040"/>
</g>
<defs>
<filter id="filter0_d_0_206" x="-12" y="-8" width="512" height="112" filterUnits="userSpaceOnUse" color-interpolation-filters="sRGB">
<feFlood flood-opacity="0" result="BackgroundImageFix"/>
<feColorMatrix in="SourceAlpha" type="matrix" values="0 0 0 0 0 0 0 0 0 0 0 0 0 0 0 0 0 0 127 0" result="hardAlpha"/>
<feOffset dy="4"/>
<feGaussianBlur stdDeviation="6"/>
<feComposite in2="hardAlpha" operator="out"/>
<feColorMatrix type="matrix" values="0 0 0 0 0.460645 0 0 0 0 0.460645 0 0 0 0 0.460645 0 0 0 0.1 0"/>
<feBlend mode="normal" in2="BackgroundImageFix" result="effect1_dropShadow_0_206"/>
<feBlend mode="normal" in="SourceGraphic" in2="effect1_dropShadow_0_206" result="shape"/>
</filter>
</defs>
</svg>
