<svg width="500" height="88" viewBox="0 0 500 88" fill="none" xmlns="http://www.w3.org/2000/svg">
<g filter="url(#filter0_d_0_224)">
<rect x="12" width="488" height="88" rx="10" fill="white"/>
<rect x="36" y="24" width="40" height="40" rx="4" fill="#F4F8FB"/>
<path d="M49.034 43.117C48.0882 43.355 47.2619 43.9302 46.7103 44.7344C46.1586 45.5387 45.9197 46.5168 46.0383 47.4848C46.1569 48.4528 46.625 49.3442 47.3545 49.9915C48.084 50.6388 49.0247 50.9974 50 51H61C61.706 50.9995 62.404 50.8495 63.0479 50.5599C63.6918 50.2702 64.267 49.8475 64.7357 49.3195C65.2045 48.7915 65.5561 48.1702 65.7674 47.4965C65.9787 46.8229 66.045 46.1121 65.9618 45.4109C65.8786 44.7098 65.6479 44.0343 65.2848 43.4287C64.9217 42.8232 64.4345 42.3014 63.8552 41.8978C63.276 41.4941 62.6178 41.2177 61.924 41.0868C61.2302 40.9558 60.5166 40.9733 59.83 41.138L58.5 41.5" stroke="#5D5D5D" stroke-width="2" stroke-linecap="round" stroke-linejoin="round"/>
<path d="M59.83 41.1382C59.4882 39.7848 58.6446 38.6119 57.4701 37.8575C56.2957 37.103 54.8783 36.8233 53.5053 37.0751C52.1322 37.3269 50.9063 38.0914 50.0761 39.2135C49.2458 40.3357 48.8733 41.7316 49.034 43.1182C49.034 43.1182 49.187 44.0002 49.5 44.5002" stroke="#5D5D5D" stroke-width="2" stroke-linecap="round" stroke-linejoin="round"/>
<path d="M87.4382 50V36.9091H92.1044C93.1229 36.9091 93.9666 37.0945 94.6357 37.4652C95.3047 37.8359 95.8054 38.343 96.1378 38.9865C96.4702 39.6257 96.6364 40.3459 96.6364 41.147C96.6364 41.9524 96.468 42.6768 96.1314 43.3203C95.799 43.9595 95.2962 44.4666 94.6229 44.8416C93.9538 45.2124 93.1122 45.3977 92.098 45.3977H88.8892V43.723H91.919C92.5625 43.723 93.0845 43.6122 93.4851 43.3906C93.8857 43.1648 94.1797 42.858 94.3672 42.4702C94.5547 42.0824 94.6484 41.6413 94.6484 41.147C94.6484 40.6527 94.5547 40.2138 94.3672 39.8303C94.1797 39.4467 93.8835 39.1463 93.4787 38.929C93.0781 38.7116 92.5497 38.603 91.8935 38.603H89.4134V50H87.4382ZM98.7985 50V40.1818H100.646V41.7415H100.748C100.927 41.2131 101.242 40.7976 101.694 40.495C102.15 40.1882 102.666 40.0348 103.241 40.0348C103.36 40.0348 103.501 40.0391 103.663 40.0476C103.829 40.0561 103.959 40.0668 104.053 40.0795V41.9077C103.976 41.8864 103.84 41.8629 103.644 41.8374C103.448 41.8075 103.252 41.7926 103.056 41.7926C102.604 41.7926 102.201 41.8885 101.847 42.0803C101.498 42.2678 101.221 42.5298 101.017 42.8665C100.812 43.1989 100.71 43.5781 100.71 44.0043V50H98.7985ZM109.587 50.1982C108.619 50.1982 107.786 49.9915 107.087 49.5781C106.393 49.1605 105.856 48.5746 105.477 47.8203C105.102 47.0618 104.914 46.1733 104.914 45.1548C104.914 44.1491 105.102 43.2628 105.477 42.4957C105.856 41.7287 106.384 41.13 107.062 40.6996C107.744 40.2692 108.54 40.054 109.452 40.054C110.006 40.054 110.543 40.1456 111.063 40.3288C111.583 40.5121 112.05 40.7997 112.463 41.1918C112.876 41.5838 113.202 42.093 113.441 42.7195C113.68 43.3416 113.799 44.098 113.799 44.9886V45.6662H105.994V44.2344H111.926C111.926 43.7315 111.824 43.2862 111.619 42.8984C111.415 42.5064 111.127 42.1974 110.756 41.9716C110.39 41.7457 109.96 41.6328 109.465 41.6328C108.928 41.6328 108.46 41.7649 108.059 42.0291C107.663 42.2891 107.356 42.63 107.138 43.0518C106.925 43.4695 106.819 43.9233 106.819 44.4134V45.532C106.819 46.1882 106.934 46.7464 107.164 47.2067C107.398 47.6669 107.724 48.0185 108.142 48.2614C108.56 48.5 109.048 48.6193 109.606 48.6193C109.968 48.6193 110.298 48.5682 110.597 48.4659C110.895 48.3594 111.153 48.2017 111.37 47.9929C111.587 47.7841 111.754 47.5263 111.869 47.2195L113.678 47.5455C113.533 48.0781 113.273 48.5447 112.898 48.9453C112.527 49.3416 112.06 49.6506 111.498 49.8722C110.94 50.0895 110.303 50.1982 109.587 50.1982ZM119.595 50.1918C118.802 50.1918 118.095 49.9893 117.473 49.5845C116.855 49.1754 116.369 48.5937 116.015 47.8395C115.666 47.081 115.491 46.1712 115.491 45.1101C115.491 44.049 115.668 43.1413 116.022 42.3871C116.38 41.6328 116.87 41.0554 117.492 40.6548C118.114 40.2543 118.819 40.054 119.608 40.054C120.217 40.054 120.707 40.1562 121.078 40.3608C121.453 40.5611 121.743 40.7955 121.947 41.0639C122.156 41.3324 122.318 41.5689 122.433 41.7734H122.548V36.9091H124.459V50H122.593V48.4723H122.433C122.318 48.6811 122.152 48.9197 121.934 49.1882C121.721 49.4567 121.427 49.6911 121.052 49.8913C120.677 50.0916 120.192 50.1918 119.595 50.1918ZM120.017 48.5618C120.567 48.5618 121.031 48.4169 121.41 48.1271C121.794 47.8331 122.084 47.4261 122.28 46.9062C122.48 46.3864 122.58 45.7812 122.58 45.0909C122.58 44.4091 122.482 43.8125 122.286 43.3011C122.09 42.7898 121.802 42.3913 121.423 42.1058C121.044 41.8203 120.575 41.6776 120.017 41.6776C119.442 41.6776 118.962 41.8267 118.579 42.125C118.195 42.4233 117.905 42.8303 117.709 43.3459C117.518 43.8615 117.422 44.4432 117.422 45.0909C117.422 45.7472 117.52 46.3374 117.716 46.8615C117.912 47.3857 118.202 47.8011 118.585 48.108C118.973 48.4105 119.45 48.5618 120.017 48.5618ZM127.187 50V40.1818H129.098V50H127.187ZM128.152 38.6669C127.82 38.6669 127.534 38.5561 127.296 38.3345C127.061 38.1087 126.944 37.8402 126.944 37.5291C126.944 37.2138 127.061 36.9453 127.296 36.7237C127.534 36.4979 127.82 36.3849 128.152 36.3849C128.485 36.3849 128.768 36.4979 129.002 36.7237C129.241 36.9453 129.36 37.2138 129.36 37.5291C129.36 37.8402 129.241 38.1087 129.002 38.3345C128.768 38.5561 128.485 38.6669 128.152 38.6669ZM135.805 50.1982C134.855 50.1982 134.037 49.983 133.351 49.5526C132.669 49.1179 132.145 48.5192 131.778 47.7564C131.412 46.9936 131.229 46.12 131.229 45.1357C131.229 44.1385 131.416 43.2585 131.791 42.4957C132.166 41.7287 132.694 41.13 133.376 40.6996C134.058 40.2692 134.861 40.054 135.786 40.054C136.532 40.054 137.197 40.1925 137.78 40.4695C138.364 40.7422 138.835 41.1257 139.193 41.62C139.555 42.1143 139.77 42.6918 139.839 43.3523H137.979C137.876 42.892 137.642 42.4957 137.275 42.1634C136.913 41.831 136.427 41.6648 135.818 41.6648C135.285 41.6648 134.819 41.8054 134.418 42.0866C134.022 42.3636 133.713 42.7599 133.491 43.2756C133.27 43.7869 133.159 44.392 133.159 45.0909C133.159 45.8068 133.268 46.4247 133.485 46.9446C133.702 47.4645 134.009 47.8672 134.405 48.1527C134.806 48.4382 135.277 48.581 135.818 48.581C136.18 48.581 136.508 48.5149 136.802 48.3828C137.101 48.2464 137.35 48.0526 137.55 47.8011C137.755 47.5497 137.898 47.2472 137.979 46.8935H139.839C139.77 47.5284 139.564 48.0952 139.219 48.5938C138.873 49.0923 138.411 49.4844 137.831 49.7699C137.256 50.0554 136.581 50.1982 135.805 50.1982ZM146.466 40.1818V41.7159H141.103V40.1818H146.466ZM142.541 37.8295H144.452V47.1172C144.452 47.4879 144.507 47.767 144.618 47.9545C144.729 48.1378 144.872 48.2635 145.047 48.3317C145.225 48.3956 145.419 48.4276 145.628 48.4276C145.782 48.4276 145.916 48.4169 146.031 48.3956C146.146 48.3743 146.235 48.3572 146.299 48.3445L146.645 49.9233C146.534 49.9659 146.376 50.0085 146.172 50.0511C145.967 50.098 145.711 50.1236 145.404 50.1278C144.902 50.1364 144.433 50.0469 143.998 49.8594C143.564 49.6719 143.212 49.3821 142.944 48.9901C142.675 48.598 142.541 48.1058 142.541 47.5135V37.8295ZM148.58 50V40.1818H150.491V50H148.58ZM149.545 38.6669C149.213 38.6669 148.927 38.5561 148.688 38.3345C148.454 38.1087 148.337 37.8402 148.337 37.5291C148.337 37.2138 148.454 36.9453 148.688 36.7237C148.927 36.4979 149.213 36.3849 149.545 36.3849C149.877 36.3849 150.161 36.4979 150.395 36.7237C150.634 36.9453 150.753 37.2138 150.753 37.5291C150.753 37.8402 150.634 38.1087 150.395 38.3345C150.161 38.5561 149.877 38.6669 149.545 38.6669ZM157.198 50.1982C156.277 50.1982 155.474 49.9872 154.788 49.5653C154.102 49.1435 153.569 48.5533 153.19 47.7947C152.811 47.0362 152.621 46.1499 152.621 45.1357C152.621 44.1172 152.811 43.2266 153.19 42.4638C153.569 41.701 154.102 41.1087 154.788 40.6868C155.474 40.2649 156.277 40.054 157.198 40.054C158.118 40.054 158.922 40.2649 159.608 40.6868C160.294 41.1087 160.826 41.701 161.206 42.4638C161.585 43.2266 161.775 44.1172 161.775 45.1357C161.775 46.1499 161.585 47.0362 161.206 47.7947C160.826 48.5533 160.294 49.1435 159.608 49.5653C158.922 49.9872 158.118 50.1982 157.198 50.1982ZM157.204 48.5938C157.801 48.5938 158.295 48.4361 158.687 48.1207C159.079 47.8054 159.369 47.3857 159.556 46.8615C159.748 46.3374 159.844 45.7599 159.844 45.1293C159.844 44.5028 159.748 43.9276 159.556 43.4034C159.369 42.875 159.079 42.451 158.687 42.1314C158.295 41.8118 157.801 41.652 157.204 41.652C156.603 41.652 156.105 41.8118 155.708 42.1314C155.316 42.451 155.025 42.875 154.833 43.4034C154.645 43.9276 154.551 44.5028 154.551 45.1293C154.551 45.7599 154.645 46.3374 154.833 46.8615C155.025 47.3857 155.316 47.8054 155.708 48.1207C156.105 48.4361 156.603 48.5938 157.204 48.5938ZM165.819 44.1705V50H163.908V40.1818H165.742V41.7798H165.864C166.09 41.2599 166.443 40.8423 166.925 40.527C167.411 40.2116 168.022 40.054 168.759 40.054C169.428 40.054 170.014 40.1946 170.517 40.4759C171.02 40.7528 171.41 41.1662 171.687 41.7159C171.964 42.2656 172.102 42.9453 172.102 43.755V50H170.191V43.9851C170.191 43.2734 170.006 42.7173 169.635 42.3168C169.264 41.9119 168.755 41.7095 168.107 41.7095C167.664 41.7095 167.27 41.8054 166.925 41.9972C166.584 42.1889 166.313 42.4702 166.113 42.8409C165.917 43.2074 165.819 43.6506 165.819 44.1705ZM185.649 45.9283V40.1818H187.566V50H185.687V48.2997H185.585C185.359 48.8239 184.997 49.2607 184.498 49.6101C184.004 49.9553 183.388 50.1278 182.651 50.1278C182.02 50.1278 181.462 49.9893 180.976 49.7124C180.495 49.4311 180.115 49.0156 179.838 48.4659C179.566 47.9162 179.429 47.2365 179.429 46.4268V40.1818H181.341V46.1967C181.341 46.8658 181.526 47.3984 181.897 47.7947C182.267 48.1911 182.749 48.3892 183.341 48.3892C183.699 48.3892 184.055 48.2997 184.409 48.1207C184.767 47.9418 185.063 47.6712 185.297 47.3089C185.536 46.9467 185.653 46.4865 185.649 45.9283ZM197.492 42.5788L195.759 42.8857C195.687 42.6641 195.572 42.4531 195.414 42.2528C195.261 42.0526 195.052 41.8885 194.788 41.7607C194.524 41.6328 194.193 41.5689 193.797 41.5689C193.256 41.5689 192.804 41.6903 192.442 41.9332C192.08 42.1719 191.899 42.4808 191.899 42.8601C191.899 43.1882 192.02 43.4524 192.263 43.6527C192.506 43.853 192.898 44.017 193.439 44.1449L194.999 44.5028C195.902 44.7116 196.575 45.0334 197.019 45.468C197.462 45.9027 197.683 46.4673 197.683 47.1619C197.683 47.75 197.513 48.2741 197.172 48.7344C196.835 49.1903 196.365 49.5483 195.759 49.8082C195.159 50.0682 194.462 50.1982 193.669 50.1982C192.57 50.1982 191.673 49.9638 190.978 49.495C190.284 49.022 189.857 48.3509 189.7 47.4815L191.547 47.2003C191.662 47.6818 191.899 48.0462 192.257 48.2933C192.615 48.5362 193.081 48.6577 193.656 48.6577C194.283 48.6577 194.784 48.5277 195.159 48.2678C195.534 48.0036 195.721 47.6818 195.721 47.3026C195.721 46.9957 195.606 46.7379 195.376 46.5291C195.15 46.3203 194.803 46.1626 194.334 46.0561L192.672 45.6918C191.756 45.483 191.078 45.1506 190.639 44.6946C190.205 44.2386 189.987 43.6612 189.987 42.9624C189.987 42.3828 190.149 41.8757 190.473 41.4411C190.797 41.0064 191.244 40.6676 191.816 40.4247C192.387 40.1776 193.041 40.054 193.778 40.054C194.839 40.054 195.674 40.2841 196.284 40.7443C196.893 41.2003 197.296 41.8118 197.492 42.5788ZM199.785 50V40.1818H201.696V50H199.785ZM200.75 38.6669C200.418 38.6669 200.132 38.5561 199.893 38.3345C199.659 38.1087 199.542 37.8402 199.542 37.5291C199.542 37.2138 199.659 36.9453 199.893 36.7237C200.132 36.4979 200.418 36.3849 200.75 36.3849C201.082 36.3849 201.366 36.4979 201.6 36.7237C201.839 36.9453 201.958 37.2138 201.958 37.5291C201.958 37.8402 201.839 38.1087 201.6 38.3345C201.366 38.5561 201.082 38.6669 200.75 38.6669ZM206.178 44.1705V50H204.267V40.1818H206.102V41.7798H206.223C206.449 41.2599 206.803 40.8423 207.284 40.527C207.77 40.2116 208.382 40.054 209.119 40.054C209.788 40.054 210.374 40.1946 210.877 40.4759C211.379 40.7528 211.769 41.1662 212.046 41.7159C212.323 42.2656 212.462 42.9453 212.462 43.755V50H210.551V43.9851C210.551 43.2734 210.365 42.7173 209.994 42.3168C209.624 41.9119 209.115 41.7095 208.467 41.7095C208.024 41.7095 207.629 41.8054 207.284 41.9972C206.943 42.1889 206.673 42.4702 206.472 42.8409C206.276 43.2074 206.178 43.6506 206.178 44.1705ZM219.142 53.8864C218.362 53.8864 217.691 53.7841 217.128 53.5795C216.57 53.375 216.114 53.1044 215.76 52.7678C215.406 52.4311 215.142 52.0625 214.968 51.6619L216.61 50.9844C216.725 51.1719 216.879 51.37 217.07 51.5788C217.267 51.7919 217.531 51.973 217.863 52.1222C218.2 52.2713 218.632 52.3459 219.161 52.3459C219.885 52.3459 220.484 52.169 220.957 51.8153C221.43 51.4659 221.666 50.9077 221.666 50.1406V48.2102H221.545C221.43 48.419 221.264 48.6513 221.046 48.907C220.833 49.1626 220.539 49.3842 220.164 49.5717C219.789 49.7592 219.301 49.853 218.7 49.853C217.925 49.853 217.226 49.6719 216.604 49.3097C215.986 48.9432 215.496 48.4041 215.134 47.6925C214.776 46.9766 214.597 46.0966 214.597 45.0526C214.597 44.0085 214.774 43.1136 215.127 42.3679C215.485 41.6222 215.975 41.0511 216.597 40.6548C217.22 40.2543 217.925 40.054 218.713 40.054C219.323 40.054 219.815 40.1562 220.19 40.3608C220.565 40.5611 220.857 40.7955 221.066 41.0639C221.279 41.3324 221.443 41.5689 221.558 41.7734H221.698V40.1818H223.571V50.2173C223.571 51.0611 223.375 51.7536 222.983 52.2947C222.591 52.8359 222.061 53.2365 221.392 53.4964C220.727 53.7564 219.977 53.8864 219.142 53.8864ZM219.122 48.2678C219.672 48.2678 220.137 48.1399 220.516 47.8842C220.899 47.6243 221.189 47.2536 221.385 46.772C221.585 46.2862 221.686 45.7045 221.686 45.027C221.686 44.3665 221.588 43.7848 221.392 43.282C221.195 42.7791 220.908 42.3871 220.529 42.1058C220.149 41.8203 219.681 41.6776 219.122 41.6776C218.547 41.6776 218.068 41.8267 217.684 42.125C217.301 42.419 217.011 42.8196 216.815 43.3267C216.623 43.8338 216.527 44.4006 216.527 45.027C216.527 45.6705 216.625 46.2351 216.821 46.7209C217.017 47.2067 217.307 47.5859 217.691 47.8587C218.078 48.1314 218.556 48.2678 219.122 48.2678ZM232.157 50H230.061L234.772 36.9091H237.054L241.765 50H239.668L235.967 39.2869H235.865L232.157 50ZM232.509 44.8736H239.31V46.5355H232.509V44.8736ZM245.63 36.9091V50H243.655V36.9091H245.63ZM253.27 36.9091H255.667L259.835 47.0852H259.988L264.156 36.9091H266.553V50H264.674V40.527H264.552L260.691 49.9808H259.132L255.271 40.5206H255.15V50H253.27V36.9091ZM273.407 50.1982C272.486 50.1982 271.683 49.9872 270.997 49.5653C270.311 49.1435 269.778 48.5533 269.399 47.7947C269.02 47.0362 268.83 46.1499 268.83 45.1357C268.83 44.1172 269.02 43.2266 269.399 42.4638C269.778 41.701 270.311 41.1087 270.997 40.6868C271.683 40.2649 272.486 40.054 273.407 40.054C274.327 40.054 275.131 40.2649 275.817 40.6868C276.503 41.1087 277.035 41.701 277.415 42.4638C277.794 43.2266 277.983 44.1172 277.983 45.1357C277.983 46.1499 277.794 47.0362 277.415 47.7947C277.035 48.5533 276.503 49.1435 275.817 49.5653C275.131 49.9872 274.327 50.1982 273.407 50.1982ZM273.413 48.5938C274.01 48.5938 274.504 48.4361 274.896 48.1207C275.288 47.8054 275.578 47.3857 275.765 46.8615C275.957 46.3374 276.053 45.7599 276.053 45.1293C276.053 44.5028 275.957 43.9276 275.765 43.4034C275.578 42.875 275.288 42.451 274.896 42.1314C274.504 41.8118 274.01 41.652 273.413 41.652C272.812 41.652 272.314 41.8118 271.917 42.1314C271.525 42.451 271.233 42.875 271.042 43.4034C270.854 43.9276 270.76 44.5028 270.76 45.1293C270.76 45.7599 270.854 46.3374 271.042 46.8615C271.233 47.3857 271.525 47.8054 271.917 48.1207C272.314 48.4361 272.812 48.5938 273.413 48.5938ZM283.792 50.1918C283 50.1918 282.292 49.9893 281.67 49.5845C281.052 49.1754 280.566 48.5937 280.213 47.8395C279.863 47.081 279.689 46.1712 279.689 45.1101C279.689 44.049 279.865 43.1413 280.219 42.3871C280.577 41.6328 281.067 41.0554 281.689 40.6548C282.311 40.2543 283.017 40.054 283.805 40.054C284.414 40.054 284.904 40.1562 285.275 40.3608C285.65 40.5611 285.94 40.7955 286.145 41.0639C286.353 41.3324 286.515 41.5689 286.63 41.7734H286.745V36.9091H288.657V50H286.79V48.4723H286.63C286.515 48.6811 286.349 48.9197 286.132 49.1882C285.919 49.4567 285.625 49.6911 285.25 49.8913C284.875 50.0916 284.389 50.1918 283.792 50.1918ZM284.214 48.5618C284.764 48.5618 285.228 48.4169 285.608 48.1271C285.991 47.8331 286.281 47.4261 286.477 46.9062C286.677 46.3864 286.777 45.7812 286.777 45.0909C286.777 44.4091 286.679 43.8125 286.483 43.3011C286.287 42.7898 286 42.3913 285.62 42.1058C285.241 41.8203 284.772 41.6776 284.214 41.6776C283.639 41.6776 283.159 41.8267 282.776 42.125C282.392 42.4233 282.103 42.8303 281.907 43.3459C281.715 43.8615 281.619 44.4432 281.619 45.0909C281.619 45.7472 281.717 46.3374 281.913 46.8615C282.109 47.3857 282.399 47.8011 282.782 48.108C283.17 48.4105 283.647 48.5618 284.214 48.5618ZM295.616 50.1982C294.649 50.1982 293.816 49.9915 293.117 49.5781C292.422 49.1605 291.885 48.5746 291.506 47.8203C291.131 47.0618 290.943 46.1733 290.943 45.1548C290.943 44.1491 291.131 43.2628 291.506 42.4957C291.885 41.7287 292.414 41.13 293.091 40.6996C293.773 40.2692 294.57 40.054 295.482 40.054C296.036 40.054 296.573 40.1456 297.093 40.3288C297.612 40.5121 298.079 40.7997 298.492 41.1918C298.906 41.5838 299.232 42.093 299.47 42.7195C299.709 43.3416 299.828 44.098 299.828 44.9886V45.6662H292.024V44.2344H297.955C297.955 43.7315 297.853 43.2862 297.649 42.8984C297.444 42.5064 297.156 42.1974 296.786 41.9716C296.419 41.7457 295.989 41.6328 295.494 41.6328C294.958 41.6328 294.489 41.7649 294.088 42.0291C293.692 42.2891 293.385 42.63 293.168 43.0518C292.955 43.4695 292.848 43.9233 292.848 44.4134V45.532C292.848 46.1882 292.963 46.7464 293.193 47.2067C293.428 47.6669 293.754 48.0185 294.171 48.2614C294.589 48.5 295.077 48.6193 295.635 48.6193C295.997 48.6193 296.328 48.5682 296.626 48.4659C296.924 48.3594 297.182 48.2017 297.399 47.9929C297.617 47.7841 297.783 47.5263 297.898 47.2195L299.707 47.5455C299.562 48.0781 299.302 48.5447 298.927 48.9453C298.556 49.3416 298.09 49.6506 297.527 49.8722C296.969 50.0895 296.332 50.1982 295.616 50.1982ZM303.86 36.9091V50H301.949V36.9091H303.86ZM313.789 42.5788L312.056 42.8857C311.984 42.6641 311.869 42.4531 311.711 42.2528C311.558 42.0526 311.349 41.8885 311.085 41.7607C310.82 41.6328 310.49 41.5689 310.094 41.5689C309.553 41.5689 309.101 41.6903 308.739 41.9332C308.377 42.1719 308.195 42.4808 308.195 42.8601C308.195 43.1882 308.317 43.4524 308.56 43.6527C308.803 43.853 309.195 44.017 309.736 44.1449L311.296 44.5028C312.199 44.7116 312.872 45.0334 313.316 45.468C313.759 45.9027 313.98 46.4673 313.98 47.1619C313.98 47.75 313.81 48.2741 313.469 48.7344C313.132 49.1903 312.661 49.5483 312.056 49.8082C311.455 50.0682 310.759 50.1982 309.966 50.1982C308.867 50.1982 307.97 49.9638 307.275 49.495C306.58 49.022 306.154 48.3509 305.997 47.4815L307.844 47.2003C307.959 47.6818 308.195 48.0462 308.553 48.2933C308.911 48.5362 309.378 48.6577 309.953 48.6577C310.58 48.6577 311.08 48.5277 311.455 48.2678C311.83 48.0036 312.018 47.6818 312.018 47.3026C312.018 46.9957 311.903 46.7379 311.673 46.5291C311.447 46.3203 311.1 46.1626 310.631 46.0561L308.969 45.6918C308.053 45.483 307.375 45.1506 306.936 44.6946C306.502 44.2386 306.284 43.6612 306.284 42.9624C306.284 42.3828 306.446 41.8757 306.77 41.4411C307.094 41.0064 307.541 40.6676 308.112 40.4247C308.683 40.1776 309.338 40.054 310.075 40.054C311.136 40.054 311.971 40.2841 312.58 40.7443C313.19 41.2003 313.593 41.8118 313.789 42.5788Z" fill="#404040"/>
</g>
<defs>
<filter id="filter0_d_0_224" x="0" y="-8" width="512" height="112" filterUnits="userSpaceOnUse" color-interpolation-filters="sRGB">
<feFlood flood-opacity="0" result="BackgroundImageFix"/>
<feColorMatrix in="SourceAlpha" type="matrix" values="0 0 0 0 0 0 0 0 0 0 0 0 0 0 0 0 0 0 127 0" result="hardAlpha"/>
<feOffset dy="4"/>
<feGaussianBlur stdDeviation="6"/>
<feComposite in2="hardAlpha" operator="out"/>
<feColorMatrix type="matrix" values="0 0 0 0 0.460645 0 0 0 0 0.460645 0 0 0 0 0.460645 0 0 0 0.1 0"/>
<feBlend mode="normal" in2="BackgroundImageFix" result="effect1_dropShadow_0_224"/>
<feBlend mode="normal" in="SourceGraphic" in2="effect1_dropShadow_0_224" result="shape"/>
</filter>
</defs>
</svg>
