<svg width="662" height="265" viewBox="0 0 662 265" fill="none" xmlns="http://www.w3.org/2000/svg">
<path d="M45.8164 81.5V48.88L33.0764 73.17H27.6864L14.9464 48.88V81.5H5.28645V31.8H15.6464L30.3464 60.08L45.1864 31.8H55.4764V81.5H45.8164ZM62.0127 70.65C62.0127 68.27 62.666 66.1933 63.9727 64.42C65.326 62.6 67.1927 61.2 69.5727 60.22C71.9527 59.24 74.6827 58.75 77.7627 58.75C79.3027 58.75 80.866 58.8667 82.4527 59.1C84.0394 59.3333 85.416 59.7067 86.5827 60.22V58.26C86.5827 55.9267 85.8827 54.13 84.4827 52.87C83.1294 51.61 81.0994 50.98 78.3927 50.98C76.386 50.98 74.4727 51.33 72.6527 52.03C70.8327 52.73 68.9194 53.7567 66.9127 55.11L63.9027 48.95C66.3294 47.3633 68.8027 46.1733 71.3227 45.38C73.8894 44.5867 76.5727 44.19 79.3727 44.19C84.5994 44.19 88.6594 45.4967 91.5527 48.11C94.4927 50.7233 95.9627 54.4567 95.9627 59.31V71C95.9627 71.98 96.126 72.68 96.4527 73.1C96.826 73.52 97.4094 73.7767 98.2027 73.87V81.5C97.3627 81.64 96.5927 81.7567 95.8927 81.85C95.2394 81.9433 94.6794 81.99 94.2127 81.99C92.346 81.99 90.9227 81.57 89.9427 80.73C89.0094 79.89 88.426 78.8633 88.1927 77.65L87.9827 75.76C86.396 77.8133 84.4127 79.4 82.0327 80.52C79.6527 81.64 77.226 82.2 74.7527 82.2C72.326 82.2 70.1327 81.71 68.1727 80.73C66.2594 79.7033 64.7427 78.3267 63.6227 76.6C62.5494 74.8267 62.0127 72.8433 62.0127 70.65ZM84.8327 72.54C85.346 71.98 85.766 71.42 86.0927 70.86C86.4194 70.3 86.5827 69.7867 86.5827 69.32V65.61C85.4627 65.1433 84.2494 64.7933 82.9427 64.56C81.636 64.28 80.3994 64.14 79.2327 64.14C76.806 64.14 74.7994 64.6767 73.2127 65.75C71.6727 66.7767 70.9027 68.1533 70.9027 69.88C70.9027 70.8133 71.1594 71.7 71.6727 72.54C72.186 73.38 72.9327 74.0567 73.9127 74.57C74.8927 75.0833 76.0594 75.34 77.4127 75.34C78.8127 75.34 80.1894 75.0833 81.5427 74.57C82.896 74.01 83.9927 73.3333 84.8327 72.54ZM129.788 81.5L119.078 65.68L114.108 70.58V81.5H104.728V30.4H114.108V61.34L128.878 44.89H138.818L125.168 60.43L139.798 81.5H129.788ZM143.761 81.5V44.82H153.141V81.5H143.761ZM143.761 39.71V30.4H153.141V39.71H143.761ZM195.693 81.5H186.313V60.92C186.313 57.98 185.8 55.8333 184.773 54.48C183.746 53.1267 182.323 52.45 180.503 52.45C179.243 52.45 177.96 52.7767 176.653 53.43C175.393 54.0833 174.25 54.9933 173.223 56.16C172.196 57.28 171.45 58.5867 170.983 60.08V81.5H161.603V44.82H170.073V51.61C171.006 50.0233 172.196 48.6933 173.643 47.62C175.09 46.5 176.746 45.66 178.613 45.1C180.526 44.4933 182.533 44.19 184.633 44.19C186.92 44.19 188.786 44.61 190.233 45.45C191.726 46.2433 192.846 47.34 193.593 48.74C194.386 50.0933 194.923 51.6333 195.203 53.36C195.53 55.0867 195.693 56.8367 195.693 58.61V81.5ZM218.199 81.71C215.772 81.71 213.532 81.2433 211.479 80.31C209.472 79.33 207.722 77.9767 206.229 76.25C204.782 74.5233 203.662 72.54 202.869 70.3C202.076 68.06 201.679 65.68 201.679 63.16C201.679 60.5 202.099 58.0267 202.939 55.74C203.779 53.4533 204.946 51.4467 206.439 49.72C207.979 47.9467 209.776 46.5933 211.829 45.66C213.929 44.68 216.239 44.19 218.759 44.19C221.606 44.19 224.102 44.8433 226.249 46.15C228.396 47.41 230.169 49.1133 231.569 51.26V44.82H239.759V79.75C239.759 83.39 238.872 86.4933 237.099 89.06C235.372 91.6733 232.969 93.6567 229.889 95.01C226.809 96.41 223.309 97.11 219.389 97.11C215.422 97.11 212.062 96.4333 209.309 95.08C206.556 93.7733 204.199 91.9067 202.239 89.48L207.349 84.51C208.749 86.2367 210.499 87.59 212.599 88.57C214.746 89.55 217.009 90.04 219.389 90.04C221.396 90.04 223.216 89.6667 224.849 88.92C226.529 88.22 227.859 87.1 228.839 85.56C229.866 84.0667 230.379 82.13 230.379 79.75V75.13C229.166 77.23 227.439 78.8633 225.199 80.03C223.006 81.15 220.672 81.71 218.199 81.71ZM221.349 74.22C222.376 74.22 223.356 74.0567 224.289 73.73C225.222 73.4033 226.086 72.96 226.879 72.4C227.672 71.84 228.372 71.1867 228.979 70.44C229.586 69.6467 230.052 68.8533 230.379 68.06V59.31C229.819 57.8633 229.026 56.6033 227.999 55.53C227.019 54.4567 225.899 53.64 224.639 53.08C223.426 52.4733 222.142 52.17 220.789 52.17C219.342 52.17 218.036 52.4733 216.869 53.08C215.702 53.6867 214.699 54.55 213.859 55.67C213.019 56.7433 212.366 57.9567 211.899 59.31C211.479 60.6167 211.269 61.9933 211.269 63.44C211.269 64.9333 211.526 66.3333 212.039 67.64C212.552 68.9467 213.252 70.09 214.139 71.07C215.072 72.05 216.146 72.82 217.359 73.38C218.619 73.94 219.949 74.22 221.349 74.22ZM265.941 81.5V31.8H299.331V40.27H275.601V53.08H295.341V60.92H275.601V81.5H265.941ZM299.698 70.65C299.698 68.27 300.352 66.1933 301.658 64.42C303.012 62.6 304.878 61.2 307.258 60.22C309.638 59.24 312.368 58.75 315.448 58.75C316.988 58.75 318.552 58.8667 320.138 59.1C321.725 59.3333 323.102 59.7067 324.268 60.22V58.26C324.268 55.9267 323.568 54.13 322.168 52.87C320.815 51.61 318.785 50.98 316.078 50.98C314.072 50.98 312.158 51.33 310.338 52.03C308.518 52.73 306.605 53.7567 304.598 55.11L301.588 48.95C304.015 47.3633 306.488 46.1733 309.008 45.38C311.575 44.5867 314.258 44.19 317.058 44.19C322.285 44.19 326.345 45.4967 329.238 48.11C332.178 50.7233 333.648 54.4567 333.648 59.31V71C333.648 71.98 333.812 72.68 334.138 73.1C334.512 73.52 335.095 73.7767 335.888 73.87V81.5C335.048 81.64 334.278 81.7567 333.578 81.85C332.925 81.9433 332.365 81.99 331.898 81.99C330.032 81.99 328.608 81.57 327.628 80.73C326.695 79.89 326.112 78.8633 325.878 77.65L325.668 75.76C324.082 77.8133 322.098 79.4 319.718 80.52C317.338 81.64 314.912 82.2 312.438 82.2C310.012 82.2 307.818 81.71 305.858 80.73C303.945 79.7033 302.428 78.3267 301.308 76.6C300.235 74.8267 299.698 72.8433 299.698 70.65ZM322.518 72.54C323.032 71.98 323.452 71.42 323.778 70.86C324.105 70.3 324.268 69.7867 324.268 69.32V65.61C323.148 65.1433 321.935 64.7933 320.628 64.56C319.322 64.28 318.085 64.14 316.918 64.14C314.492 64.14 312.485 64.6767 310.898 65.75C309.358 66.7767 308.588 68.1533 308.588 69.88C308.588 70.8133 308.845 71.7 309.358 72.54C309.872 73.38 310.618 74.0567 311.598 74.57C312.578 75.0833 313.745 75.34 315.098 75.34C316.498 75.34 317.875 75.0833 319.228 74.57C320.582 74.01 321.678 73.3333 322.518 72.54ZM355.924 82.2C352.797 82.2 349.81 81.6867 346.964 80.66C344.117 79.6333 341.667 78.1167 339.614 76.11L342.974 70.02C345.167 71.7933 347.314 73.1 349.414 73.94C351.56 74.78 353.614 75.2 355.574 75.2C357.394 75.2 358.84 74.8733 359.914 74.22C361.034 73.5667 361.594 72.5867 361.594 71.28C361.594 70.3933 361.29 69.7167 360.684 69.25C360.077 68.7367 359.19 68.2933 358.024 67.92C356.904 67.5467 355.527 67.1267 353.894 66.66C351.187 65.7733 348.924 64.91 347.104 64.07C345.284 63.23 343.907 62.18 342.974 60.92C342.087 59.6133 341.644 57.9567 341.644 55.95C341.644 53.5233 342.25 51.4467 343.464 49.72C344.724 47.9467 346.45 46.57 348.644 45.59C350.884 44.61 353.497 44.12 356.484 44.12C359.097 44.12 361.57 44.54 363.904 45.38C366.237 46.1733 368.36 47.48 370.274 49.3L366.494 55.25C364.627 53.8033 362.854 52.7533 361.174 52.1C359.494 51.4 357.79 51.05 356.064 51.05C355.084 51.05 354.15 51.1667 353.264 51.4C352.424 51.6333 351.724 52.03 351.164 52.59C350.65 53.1033 350.394 53.85 350.394 54.83C350.394 55.7167 350.627 56.4167 351.094 56.93C351.607 57.3967 352.354 57.8167 353.334 58.19C354.36 58.5633 355.597 58.9833 357.044 59.45C359.984 60.29 362.457 61.1533 364.464 62.04C366.517 62.9267 368.057 64.0233 369.084 65.33C370.11 66.59 370.624 68.34 370.624 70.58C370.624 74.22 369.294 77.0667 366.634 79.12C363.974 81.1733 360.404 82.2 355.924 82.2ZM398.778 79.61C397.985 79.9367 397.028 80.31 395.908 80.73C394.788 81.15 393.575 81.4767 392.268 81.71C391.008 81.99 389.725 82.13 388.418 82.13C386.692 82.13 385.105 81.8267 383.658 81.22C382.212 80.6133 381.045 79.6567 380.158 78.35C379.318 76.9967 378.898 75.2467 378.898 73.1V52.03H374.068V44.82H378.898V32.92H388.278V44.82H395.978V52.03H388.278V69.95C388.325 71.21 388.675 72.12 389.328 72.68C389.982 73.24 390.798 73.52 391.778 73.52C392.758 73.52 393.715 73.3567 394.648 73.03C395.582 72.7033 396.328 72.4233 396.888 72.19L398.778 79.61ZM420.263 82.2C417.323 82.2 414.663 81.71 412.283 80.73C409.903 79.7033 407.873 78.3267 406.193 76.6C404.513 74.8267 403.207 72.82 402.273 70.58C401.387 68.2933 400.943 65.89 400.943 63.37C400.943 59.87 401.713 56.6733 403.253 53.78C404.84 50.8867 407.08 48.5767 409.973 46.85C412.913 45.0767 416.367 44.19 420.333 44.19C424.347 44.19 427.777 45.0767 430.623 46.85C433.47 48.5767 435.64 50.8867 437.133 53.78C438.673 56.6267 439.443 59.7067 439.443 63.02C439.443 63.58 439.42 64.1633 439.373 64.77C439.327 65.33 439.28 65.7967 439.233 66.17H410.883C411.07 68.0367 411.607 69.67 412.493 71.07C413.427 72.47 414.593 73.5433 415.993 74.29C417.44 74.99 418.98 75.34 420.613 75.34C422.48 75.34 424.23 74.8967 425.863 74.01C427.543 73.0767 428.687 71.8633 429.293 70.37L437.343 72.61C436.457 74.4767 435.173 76.1333 433.493 77.58C431.86 79.0267 429.923 80.17 427.683 81.01C425.443 81.8033 422.97 82.2 420.263 82.2ZM410.673 60.22H429.853C429.667 58.3533 429.13 56.7433 428.243 55.39C427.403 53.99 426.283 52.9167 424.883 52.17C423.483 51.3767 421.92 50.98 420.193 50.98C418.513 50.98 416.973 51.3767 415.573 52.17C414.22 52.9167 413.1 53.99 412.213 55.39C411.373 56.7433 410.86 58.3533 410.673 60.22ZM458.668 82.2C455.541 82.2 452.554 81.6867 449.708 80.66C446.861 79.6333 444.411 78.1167 442.358 76.11L445.718 70.02C447.911 71.7933 450.058 73.1 452.158 73.94C454.304 74.78 456.358 75.2 458.318 75.2C460.138 75.2 461.584 74.8733 462.658 74.22C463.778 73.5667 464.338 72.5867 464.338 71.28C464.338 70.3933 464.034 69.7167 463.428 69.25C462.821 68.7367 461.934 68.2933 460.768 67.92C459.648 67.5467 458.271 67.1267 456.638 66.66C453.931 65.7733 451.668 64.91 449.848 64.07C448.028 63.23 446.651 62.18 445.718 60.92C444.831 59.6133 444.388 57.9567 444.388 55.95C444.388 53.5233 444.994 51.4467 446.208 49.72C447.468 47.9467 449.194 46.57 451.388 45.59C453.628 44.61 456.241 44.12 459.228 44.12C461.841 44.12 464.314 44.54 466.648 45.38C468.981 46.1733 471.104 47.48 473.018 49.3L469.238 55.25C467.371 53.8033 465.598 52.7533 463.918 52.1C462.238 51.4 460.534 51.05 458.808 51.05C457.828 51.05 456.894 51.1667 456.008 51.4C455.168 51.6333 454.468 52.03 453.908 52.59C453.394 53.1033 453.138 53.85 453.138 54.83C453.138 55.7167 453.371 56.4167 453.838 56.93C454.351 57.3967 455.098 57.8167 456.078 58.19C457.104 58.5633 458.341 58.9833 459.788 59.45C462.728 60.29 465.201 61.1533 467.208 62.04C469.261 62.9267 470.801 64.0233 471.828 65.33C472.854 66.59 473.368 68.34 473.368 70.58C473.368 74.22 472.038 77.0667 469.378 79.12C466.718 81.1733 463.148 82.2 458.668 82.2ZM501.522 79.61C500.729 79.9367 499.772 80.31 498.652 80.73C497.532 81.15 496.319 81.4767 495.012 81.71C493.752 81.99 492.469 82.13 491.162 82.13C489.436 82.13 487.849 81.8267 486.402 81.22C484.956 80.6133 483.789 79.6567 482.902 78.35C482.062 76.9967 481.642 75.2467 481.642 73.1V52.03H476.812V44.82H481.642V32.92H491.022V44.82H498.722V52.03H491.022V69.95C491.069 71.21 491.419 72.12 492.072 72.68C492.726 73.24 493.542 73.52 494.522 73.52C495.502 73.52 496.459 73.3567 497.392 73.03C498.326 72.7033 499.072 72.4233 499.632 72.19L501.522 79.61ZM521.124 56.3C521.124 53.2667 521.661 50.3033 522.734 47.41C523.854 44.47 525.464 41.81 527.564 39.43C529.664 37.0033 532.231 35.09 535.264 33.69C538.297 32.2433 541.751 31.52 545.624 31.52C550.197 31.52 554.141 32.5233 557.454 34.53C560.814 36.5367 563.311 39.15 564.944 42.37L557.524 47.48C556.684 45.6133 555.587 44.1433 554.234 43.07C552.881 41.95 551.434 41.18 549.894 40.76C548.354 40.2933 546.837 40.06 545.344 40.06C542.917 40.06 540.794 40.55 538.974 41.53C537.201 42.51 535.707 43.7933 534.494 45.38C533.281 46.9667 532.371 48.74 531.764 50.7C531.204 52.66 530.924 54.62 530.924 56.58C530.924 58.7733 531.274 60.8967 531.974 62.95C532.674 64.9567 533.654 66.7533 534.914 68.34C536.221 69.88 537.761 71.1167 539.534 72.05C541.354 72.9367 543.337 73.38 545.484 73.38C547.024 73.38 548.587 73.1233 550.174 72.61C551.761 72.0967 553.231 71.28 554.584 70.16C555.937 69.04 556.987 67.5933 557.734 65.82L565.644 70.37C564.664 72.8433 563.054 74.9433 560.814 76.67C558.621 78.3967 556.147 79.7033 553.394 80.59C550.641 81.4767 547.911 81.92 545.204 81.92C541.657 81.92 538.414 81.1967 535.474 79.75C532.534 78.2567 529.991 76.2967 527.844 73.87C525.744 71.3967 524.087 68.6433 522.874 65.61C521.707 62.53 521.124 59.4267 521.124 56.3ZM571.212 81.5V44.82H580.592V81.5H571.212ZM571.212 39.71V30.4H580.592V39.71H571.212ZM611.034 79.61C610.241 79.9367 609.284 80.31 608.164 80.73C607.044 81.15 605.831 81.4767 604.524 81.71C603.264 81.99 601.981 82.13 600.674 82.13C598.948 82.13 597.361 81.8267 595.914 81.22C594.468 80.6133 593.301 79.6567 592.414 78.35C591.574 76.9967 591.154 75.2467 591.154 73.1V52.03H586.324V44.82H591.154V32.92H600.534V44.82H608.234V52.03H600.534V69.95C600.581 71.21 600.931 72.12 601.584 72.68C602.238 73.24 603.054 73.52 604.034 73.52C605.014 73.52 605.971 73.3567 606.904 73.03C607.838 72.7033 608.584 72.4233 609.144 72.19L611.034 79.61ZM616.553 88.64C617.393 88.8267 618.163 88.99 618.863 89.13C619.609 89.27 620.239 89.34 620.753 89.34C621.639 89.34 622.363 89.1067 622.923 88.64C623.529 88.22 624.113 87.4267 624.673 86.26C625.233 85.14 625.816 83.5533 626.423 81.5L611.933 44.82H621.663L631.533 71.91L640.213 44.82H649.173L633.773 88.78C633.213 90.4133 632.349 91.8833 631.183 93.19C630.063 94.5433 628.639 95.5933 626.913 96.34C625.233 97.1333 623.343 97.53 621.243 97.53C620.496 97.53 619.749 97.46 619.003 97.32C618.256 97.2267 617.439 97.04 616.553 96.76V88.64ZM650.734 89.55L652.624 81.22H649.684V71.42H657.804V81.22L654.934 89.55H650.734ZM100.875 118.8V168.5H91.2853V147.29H68.7453V168.5H59.0853V118.8H68.7453V138.89H91.2853V118.8H100.875ZM107.403 157.65C107.403 155.27 108.057 153.193 109.363 151.42C110.717 149.6 112.583 148.2 114.963 147.22C117.343 146.24 120.073 145.75 123.153 145.75C124.693 145.75 126.257 145.867 127.843 146.1C129.43 146.333 130.807 146.707 131.973 147.22V145.26C131.973 142.927 131.273 141.13 129.873 139.87C128.52 138.61 126.49 137.98 123.783 137.98C121.777 137.98 119.863 138.33 118.043 139.03C116.223 139.73 114.31 140.757 112.303 142.11L109.293 135.95C111.72 134.363 114.193 133.173 116.713 132.38C119.28 131.587 121.963 131.19 124.763 131.19C129.99 131.19 134.05 132.497 136.943 135.11C139.883 137.723 141.353 141.457 141.353 146.31V158C141.353 158.98 141.517 159.68 141.843 160.1C142.217 160.52 142.8 160.777 143.593 160.87V168.5C142.753 168.64 141.983 168.757 141.283 168.85C140.63 168.943 140.07 168.99 139.603 168.99C137.737 168.99 136.313 168.57 135.333 167.73C134.4 166.89 133.817 165.863 133.583 164.65L133.373 162.76C131.787 164.813 129.803 166.4 127.423 167.52C125.043 168.64 122.617 169.2 120.143 169.2C117.717 169.2 115.523 168.71 113.563 167.73C111.65 166.703 110.133 165.327 109.013 163.6C107.94 161.827 107.403 159.843 107.403 157.65ZM130.223 159.54C130.737 158.98 131.157 158.42 131.483 157.86C131.81 157.3 131.973 156.787 131.973 156.32V152.61C130.853 152.143 129.64 151.793 128.333 151.56C127.027 151.28 125.79 151.14 124.623 151.14C122.197 151.14 120.19 151.677 118.603 152.75C117.063 153.777 116.293 155.153 116.293 156.88C116.293 157.813 116.55 158.7 117.063 159.54C117.577 160.38 118.323 161.057 119.303 161.57C120.283 162.083 121.45 162.34 122.803 162.34C124.203 162.34 125.58 162.083 126.933 161.57C128.287 161.01 129.383 160.333 130.223 159.54ZM172.099 169.2C169.252 169.2 166.732 168.57 164.539 167.31C162.392 166.003 160.712 164.253 159.499 162.06V183.41H150.119V131.82H158.309V138.12C159.709 135.973 161.482 134.293 163.629 133.08C165.775 131.82 168.225 131.19 170.979 131.19C173.452 131.19 175.715 131.68 177.769 132.66C179.869 133.64 181.689 135.017 183.229 136.79C184.769 138.517 185.959 140.523 186.799 142.81C187.685 145.05 188.129 147.477 188.129 150.09C188.129 153.637 187.429 156.857 186.029 159.75C184.675 162.643 182.785 164.953 180.359 166.68C177.979 168.36 175.225 169.2 172.099 169.2ZM168.949 161.22C170.395 161.22 171.702 160.917 172.869 160.31C174.035 159.703 175.039 158.887 175.879 157.86C176.765 156.787 177.419 155.597 177.839 154.29C178.305 152.937 178.539 151.537 178.539 150.09C178.539 148.55 178.282 147.127 177.769 145.82C177.302 144.513 176.602 143.37 175.669 142.39C174.735 141.363 173.639 140.57 172.379 140.01C171.165 139.45 169.835 139.17 168.389 139.17C167.502 139.17 166.592 139.333 165.659 139.66C164.772 139.94 163.909 140.36 163.069 140.92C162.229 141.48 161.482 142.133 160.829 142.88C160.222 143.627 159.779 144.443 159.499 145.33V153.94C160.059 155.293 160.805 156.53 161.739 157.65C162.719 158.77 163.839 159.657 165.099 160.31C166.359 160.917 167.642 161.22 168.949 161.22ZM216.464 169.2C213.617 169.2 211.097 168.57 208.904 167.31C206.757 166.003 205.077 164.253 203.864 162.06V183.41H194.484V131.82H202.674V138.12C204.074 135.973 205.847 134.293 207.994 133.08C210.141 131.82 212.591 131.19 215.344 131.19C217.817 131.19 220.081 131.68 222.134 132.66C224.234 133.64 226.054 135.017 227.594 136.79C229.134 138.517 230.324 140.523 231.164 142.81C232.051 145.05 232.494 147.477 232.494 150.09C232.494 153.637 231.794 156.857 230.394 159.75C229.041 162.643 227.151 164.953 224.724 166.68C222.344 168.36 219.591 169.2 216.464 169.2ZM213.314 161.22C214.761 161.22 216.067 160.917 217.234 160.31C218.401 159.703 219.404 158.887 220.244 157.86C221.131 156.787 221.784 155.597 222.204 154.29C222.671 152.937 222.904 151.537 222.904 150.09C222.904 148.55 222.647 147.127 222.134 145.82C221.667 144.513 220.967 143.37 220.034 142.39C219.101 141.363 218.004 140.57 216.744 140.01C215.531 139.45 214.201 139.17 212.754 139.17C211.867 139.17 210.957 139.333 210.024 139.66C209.137 139.94 208.274 140.36 207.434 140.92C206.594 141.48 205.847 142.133 205.194 142.88C204.587 143.627 204.144 144.443 203.864 145.33V153.94C204.424 155.293 205.171 156.53 206.104 157.65C207.084 158.77 208.204 159.657 209.464 160.31C210.724 160.917 212.007 161.22 213.314 161.22ZM238.849 168.5V131.82H248.229V168.5H238.849ZM238.849 126.71V117.4H248.229V126.71H238.849ZM273.701 169.2C270.761 169.2 268.101 168.71 265.721 167.73C263.341 166.703 261.311 165.327 259.631 163.6C257.951 161.827 256.644 159.82 255.711 157.58C254.824 155.293 254.381 152.89 254.381 150.37C254.381 146.87 255.151 143.673 256.691 140.78C258.278 137.887 260.518 135.577 263.411 133.85C266.351 132.077 269.804 131.19 273.771 131.19C277.784 131.19 281.214 132.077 284.061 133.85C286.908 135.577 289.078 137.887 290.571 140.78C292.111 143.627 292.881 146.707 292.881 150.02C292.881 150.58 292.858 151.163 292.811 151.77C292.764 152.33 292.718 152.797 292.671 153.17H264.321C264.508 155.037 265.044 156.67 265.931 158.07C266.864 159.47 268.031 160.543 269.431 161.29C270.878 161.99 272.418 162.34 274.051 162.34C275.918 162.34 277.668 161.897 279.301 161.01C280.981 160.077 282.124 158.863 282.731 157.37L290.781 159.61C289.894 161.477 288.611 163.133 286.931 164.58C285.298 166.027 283.361 167.17 281.121 168.01C278.881 168.803 276.408 169.2 273.701 169.2ZM264.111 147.22H283.291C283.104 145.353 282.568 143.743 281.681 142.39C280.841 140.99 279.721 139.917 278.321 139.17C276.921 138.377 275.358 137.98 273.631 137.98C271.951 137.98 270.411 138.377 269.011 139.17C267.658 139.917 266.538 140.99 265.651 142.39C264.811 143.743 264.298 145.353 264.111 147.22ZM312.105 169.2C308.979 169.2 305.992 168.687 303.145 167.66C300.299 166.633 297.849 165.117 295.795 163.11L299.155 157.02C301.349 158.793 303.495 160.1 305.595 160.94C307.742 161.78 309.795 162.2 311.755 162.2C313.575 162.2 315.022 161.873 316.095 161.22C317.215 160.567 317.775 159.587 317.775 158.28C317.775 157.393 317.472 156.717 316.865 156.25C316.259 155.737 315.372 155.293 314.205 154.92C313.085 154.547 311.709 154.127 310.075 153.66C307.369 152.773 305.105 151.91 303.285 151.07C301.465 150.23 300.089 149.18 299.155 147.92C298.269 146.613 297.825 144.957 297.825 142.95C297.825 140.523 298.432 138.447 299.645 136.72C300.905 134.947 302.632 133.57 304.825 132.59C307.065 131.61 309.679 131.12 312.665 131.12C315.279 131.12 317.752 131.54 320.085 132.38C322.419 133.173 324.542 134.48 326.455 136.3L322.675 142.25C320.809 140.803 319.035 139.753 317.355 139.1C315.675 138.4 313.972 138.05 312.245 138.05C311.265 138.05 310.332 138.167 309.445 138.4C308.605 138.633 307.905 139.03 307.345 139.59C306.832 140.103 306.575 140.85 306.575 141.83C306.575 142.717 306.809 143.417 307.275 143.93C307.789 144.397 308.535 144.817 309.515 145.19C310.542 145.563 311.779 145.983 313.225 146.45C316.165 147.29 318.639 148.153 320.645 149.04C322.699 149.927 324.239 151.023 325.265 152.33C326.292 153.59 326.805 155.34 326.805 157.58C326.805 161.22 325.475 164.067 322.815 166.12C320.155 168.173 316.585 169.2 312.105 169.2ZM354.96 166.61C354.167 166.937 353.21 167.31 352.09 167.73C350.97 168.15 349.757 168.477 348.45 168.71C347.19 168.99 345.907 169.13 344.6 169.13C342.873 169.13 341.287 168.827 339.84 168.22C338.393 167.613 337.227 166.657 336.34 165.35C335.5 163.997 335.08 162.247 335.08 160.1V139.03H330.25V131.82H335.08V119.92H344.46V131.82H352.16V139.03H344.46V156.95C344.507 158.21 344.857 159.12 345.51 159.68C346.163 160.24 346.98 160.52 347.96 160.52C348.94 160.52 349.897 160.357 350.83 160.03C351.763 159.703 352.51 159.423 353.07 159.19L354.96 166.61ZM377.572 168.5V118.8H398.642C400.928 118.8 403.028 119.267 404.942 120.2C406.855 121.133 408.512 122.393 409.912 123.98C411.358 125.567 412.478 127.34 413.272 129.3C414.065 131.26 414.462 133.267 414.462 135.32C414.462 138.12 413.808 140.78 412.502 143.3C411.195 145.82 409.398 147.873 407.112 149.46C404.825 151.047 402.118 151.84 398.992 151.84H387.232V168.5H377.572ZM387.232 143.37H398.432C399.598 143.37 400.648 143.043 401.582 142.39C402.515 141.737 403.262 140.803 403.822 139.59C404.382 138.33 404.662 136.907 404.662 135.32C404.662 133.593 404.335 132.123 403.682 130.91C403.075 129.697 402.258 128.787 401.232 128.18C400.252 127.573 399.178 127.27 398.012 127.27H387.232V143.37ZM436.533 169.2C433.593 169.2 430.933 168.71 428.553 167.73C426.173 166.703 424.143 165.327 422.463 163.6C420.783 161.827 419.476 159.82 418.543 157.58C417.656 155.293 417.213 152.89 417.213 150.37C417.213 146.87 417.983 143.673 419.523 140.78C421.11 137.887 423.35 135.577 426.243 133.85C429.183 132.077 432.636 131.19 436.603 131.19C440.616 131.19 444.046 132.077 446.893 133.85C449.74 135.577 451.91 137.887 453.403 140.78C454.943 143.627 455.713 146.707 455.713 150.02C455.713 150.58 455.69 151.163 455.643 151.77C455.596 152.33 455.55 152.797 455.503 153.17H427.153C427.34 155.037 427.876 156.67 428.763 158.07C429.696 159.47 430.863 160.543 432.263 161.29C433.71 161.99 435.25 162.34 436.883 162.34C438.75 162.34 440.5 161.897 442.133 161.01C443.813 160.077 444.956 158.863 445.563 157.37L453.613 159.61C452.726 161.477 451.443 163.133 449.763 164.58C448.13 166.027 446.193 167.17 443.953 168.01C441.713 168.803 439.24 169.2 436.533 169.2ZM426.943 147.22H446.123C445.936 145.353 445.4 143.743 444.513 142.39C443.673 140.99 442.553 139.917 441.153 139.17C439.753 138.377 438.19 137.98 436.463 137.98C434.783 137.98 433.243 138.377 431.843 139.17C430.49 139.917 429.37 140.99 428.483 142.39C427.643 143.743 427.13 145.353 426.943 147.22ZM478.367 169.2C475.381 169.2 472.697 168.71 470.317 167.73C467.937 166.703 465.907 165.303 464.227 163.53C462.594 161.757 461.334 159.727 460.447 157.44C459.561 155.153 459.117 152.75 459.117 150.23C459.117 147.663 459.561 145.237 460.447 142.95C461.334 140.663 462.594 138.633 464.227 136.86C465.907 135.087 467.937 133.71 470.317 132.73C472.697 131.703 475.381 131.19 478.367 131.19C481.354 131.19 484.014 131.703 486.347 132.73C488.727 133.71 490.757 135.087 492.437 136.86C494.117 138.633 495.377 140.663 496.217 142.95C497.104 145.237 497.547 147.663 497.547 150.23C497.547 152.75 497.104 155.153 496.217 157.44C495.377 159.727 494.117 161.757 492.437 163.53C490.804 165.303 488.797 166.703 486.417 167.73C484.037 168.71 481.354 169.2 478.367 169.2ZM468.777 150.23C468.777 152.377 469.197 154.29 470.037 155.97C470.877 157.603 472.021 158.887 473.467 159.82C474.914 160.753 476.547 161.22 478.367 161.22C480.141 161.22 481.751 160.753 483.197 159.82C484.644 158.84 485.787 157.533 486.627 155.9C487.514 154.22 487.957 152.307 487.957 150.16C487.957 148.06 487.514 146.17 486.627 144.49C485.787 142.81 484.644 141.503 483.197 140.57C481.751 139.637 480.141 139.17 478.367 139.17C476.547 139.17 474.914 139.66 473.467 140.64C472.021 141.573 470.877 142.88 470.037 144.56C469.197 146.193 468.777 148.083 468.777 150.23ZM525.858 169.2C523.012 169.2 520.492 168.57 518.298 167.31C516.152 166.003 514.472 164.253 513.258 162.06V183.41H503.878V131.82H512.068V138.12C513.468 135.973 515.242 134.293 517.388 133.08C519.535 131.82 521.985 131.19 524.738 131.19C527.212 131.19 529.475 131.68 531.528 132.66C533.628 133.64 535.448 135.017 536.988 136.79C538.528 138.517 539.718 140.523 540.558 142.81C541.445 145.05 541.888 147.477 541.888 150.09C541.888 153.637 541.188 156.857 539.788 159.75C538.435 162.643 536.545 164.953 534.118 166.68C531.738 168.36 528.985 169.2 525.858 169.2ZM522.708 161.22C524.155 161.22 525.462 160.917 526.628 160.31C527.795 159.703 528.798 158.887 529.638 157.86C530.525 156.787 531.178 155.597 531.598 154.29C532.065 152.937 532.298 151.537 532.298 150.09C532.298 148.55 532.042 147.127 531.528 145.82C531.062 144.513 530.362 143.37 529.428 142.39C528.495 141.363 527.398 140.57 526.138 140.01C524.925 139.45 523.595 139.17 522.148 139.17C521.262 139.17 520.352 139.333 519.418 139.66C518.532 139.94 517.668 140.36 516.828 140.92C515.988 141.48 515.242 142.133 514.588 142.88C513.982 143.627 513.538 144.443 513.258 145.33V153.94C513.818 155.293 514.565 156.53 515.498 157.65C516.478 158.77 517.598 159.657 518.858 160.31C520.118 160.917 521.402 161.22 522.708 161.22ZM548.174 117.4H557.554V156.74C557.554 158.42 557.834 159.563 558.394 160.17C558.954 160.73 559.724 161.01 560.704 161.01C561.45 161.01 562.22 160.917 563.014 160.73C563.807 160.543 564.507 160.31 565.114 160.03L566.374 167.17C565.114 167.777 563.644 168.243 561.964 168.57C560.284 168.897 558.767 169.06 557.414 169.06C554.474 169.06 552.187 168.29 550.554 166.75C548.967 165.163 548.174 162.923 548.174 160.03V117.4ZM587.47 169.2C584.53 169.2 581.87 168.71 579.49 167.73C577.11 166.703 575.08 165.327 573.4 163.6C571.72 161.827 570.414 159.82 569.48 157.58C568.594 155.293 568.15 152.89 568.15 150.37C568.15 146.87 568.92 143.673 570.46 140.78C572.047 137.887 574.287 135.577 577.18 133.85C580.12 132.077 583.574 131.19 587.54 131.19C591.554 131.19 594.984 132.077 597.83 133.85C600.677 135.577 602.847 137.887 604.34 140.78C605.88 143.627 606.65 146.707 606.65 150.02C606.65 150.58 606.627 151.163 606.58 151.77C606.534 152.33 606.487 152.797 606.44 153.17H578.09C578.277 155.037 578.814 156.67 579.7 158.07C580.634 159.47 581.8 160.543 583.2 161.29C584.647 161.99 586.187 162.34 587.82 162.34C589.687 162.34 591.437 161.897 593.07 161.01C594.75 160.077 595.894 158.863 596.5 157.37L604.55 159.61C603.664 161.477 602.38 163.133 600.7 164.58C599.067 166.027 597.13 167.17 594.89 168.01C592.65 168.803 590.177 169.2 587.47 169.2ZM577.88 147.22H597.06C596.874 145.353 596.337 143.743 595.45 142.39C594.61 140.99 593.49 139.917 592.09 139.17C590.69 138.377 589.127 137.98 587.4 137.98C585.72 137.98 584.18 138.377 582.78 139.17C581.427 139.917 580.307 140.99 579.42 142.39C578.58 143.743 578.067 145.353 577.88 147.22Z" fill="white"/>
<path d="M113.278 206.82L108.334 223.5H105.238L101.734 210.876L98.0138 223.5L94.9418 223.524L90.2138 206.82H93.1178L96.5738 220.404L100.318 206.82H103.39L106.87 220.332L110.35 206.82H113.278ZM127.654 216.564C127.654 217.06 127.622 217.508 127.558 217.908H117.454C117.534 218.964 117.926 219.812 118.63 220.452C119.334 221.092 120.198 221.412 121.222 221.412C122.694 221.412 123.734 220.796 124.342 219.564H127.294C126.894 220.78 126.166 221.78 125.11 222.564C124.07 223.332 122.774 223.716 121.222 223.716C119.958 223.716 118.822 223.436 117.814 222.876C116.822 222.3 116.038 221.5 115.462 220.476C114.902 219.436 114.622 218.236 114.622 216.876C114.622 215.516 114.894 214.324 115.438 213.3C115.998 212.26 116.774 211.46 117.766 210.9C118.774 210.34 119.926 210.06 121.222 210.06C122.47 210.06 123.582 210.332 124.558 210.876C125.534 211.42 126.294 212.188 126.838 213.18C127.382 214.156 127.654 215.284 127.654 216.564ZM124.798 215.7C124.782 214.692 124.422 213.884 123.718 213.276C123.014 212.668 122.142 212.364 121.102 212.364C120.158 212.364 119.35 212.668 118.678 213.276C118.006 213.868 117.606 214.676 117.478 215.7H124.798ZM135.669 216.828C135.669 215.5 135.941 214.324 136.485 213.3C137.045 212.276 137.797 211.484 138.741 210.924C139.701 210.348 140.757 210.06 141.909 210.06C142.949 210.06 143.853 210.268 144.621 210.684C145.405 211.084 146.029 211.588 146.493 212.196V210.276H149.253V223.5H146.493V221.532C146.029 222.156 145.397 222.676 144.597 223.092C143.797 223.508 142.885 223.716 141.861 223.716C140.725 223.716 139.685 223.428 138.741 222.852C137.797 222.26 137.045 221.444 136.485 220.404C135.941 219.348 135.669 218.156 135.669 216.828ZM146.493 216.876C146.493 215.964 146.301 215.172 145.917 214.5C145.549 213.828 145.061 213.316 144.453 212.964C143.845 212.612 143.189 212.436 142.485 212.436C141.781 212.436 141.125 212.612 140.517 212.964C139.909 213.3 139.413 213.804 139.029 214.476C138.661 215.132 138.477 215.916 138.477 216.828C138.477 217.74 138.661 218.54 139.029 219.228C139.413 219.916 139.909 220.444 140.517 220.812C141.141 221.164 141.797 221.34 142.485 221.34C143.189 221.34 143.845 221.164 144.453 220.812C145.061 220.46 145.549 219.948 145.917 219.276C146.301 218.588 146.493 217.788 146.493 216.876ZM155.583 212.196C155.983 211.524 156.511 211.004 157.167 210.636C157.839 210.252 158.631 210.06 159.543 210.06V212.892H158.847C157.775 212.892 156.959 213.164 156.399 213.708C155.855 214.252 155.583 215.196 155.583 216.54V223.5H152.847V210.276H155.583V212.196ZM174.178 216.564C174.178 217.06 174.146 217.508 174.082 217.908H163.978C164.058 218.964 164.45 219.812 165.154 220.452C165.858 221.092 166.722 221.412 167.746 221.412C169.218 221.412 170.258 220.796 170.866 219.564H173.818C173.418 220.78 172.69 221.78 171.634 222.564C170.594 223.332 169.298 223.716 167.746 223.716C166.482 223.716 165.346 223.436 164.338 222.876C163.346 222.3 162.562 221.5 161.986 220.476C161.426 219.436 161.146 218.236 161.146 216.876C161.146 215.516 161.418 214.324 161.962 213.3C162.522 212.26 163.298 211.46 164.29 210.9C165.298 210.34 166.45 210.06 167.746 210.06C168.994 210.06 170.106 210.332 171.082 210.876C172.058 211.42 172.818 212.188 173.362 213.18C173.906 214.156 174.178 215.284 174.178 216.564ZM171.322 215.7C171.306 214.692 170.946 213.884 170.242 213.276C169.538 212.668 168.666 212.364 167.626 212.364C166.682 212.364 165.874 212.668 165.202 213.276C164.53 213.868 164.13 214.676 164.002 215.7H171.322ZM182.193 216.828C182.193 215.5 182.465 214.324 183.009 213.3C183.569 212.276 184.321 211.484 185.265 210.924C186.225 210.348 187.289 210.06 188.457 210.06C189.321 210.06 190.169 210.252 191.001 210.636C191.849 211.004 192.521 211.5 193.017 212.124V205.74H195.777V223.5H193.017V221.508C192.569 222.148 191.945 222.676 191.145 223.092C190.361 223.508 189.457 223.716 188.433 223.716C187.281 223.716 186.225 223.428 185.265 222.852C184.321 222.26 183.569 221.444 183.009 220.404C182.465 219.348 182.193 218.156 182.193 216.828ZM193.017 216.876C193.017 215.964 192.825 215.172 192.441 214.5C192.073 213.828 191.585 213.316 190.977 212.964C190.369 212.612 189.713 212.436 189.009 212.436C188.305 212.436 187.649 212.612 187.041 212.964C186.433 213.3 185.937 213.804 185.553 214.476C185.185 215.132 185.001 215.916 185.001 216.828C185.001 217.74 185.185 218.54 185.553 219.228C185.937 219.916 186.433 220.444 187.041 220.812C187.665 221.164 188.321 221.34 189.009 221.34C189.713 221.34 190.369 221.164 190.977 220.812C191.585 220.46 192.073 219.948 192.441 219.276C192.825 218.588 193.017 217.788 193.017 216.876ZM211.49 216.564C211.49 217.06 211.458 217.508 211.394 217.908H201.29C201.37 218.964 201.762 219.812 202.466 220.452C203.17 221.092 204.034 221.412 205.058 221.412C206.53 221.412 207.57 220.796 208.178 219.564H211.13C210.73 220.78 210.002 221.78 208.946 222.564C207.906 223.332 206.61 223.716 205.058 223.716C203.794 223.716 202.658 223.436 201.65 222.876C200.658 222.3 199.874 221.5 199.298 220.476C198.738 219.436 198.458 218.236 198.458 216.876C198.458 215.516 198.73 214.324 199.274 213.3C199.834 212.26 200.61 211.46 201.602 210.9C202.61 210.34 203.762 210.06 205.058 210.06C206.306 210.06 207.418 210.332 208.394 210.876C209.37 211.42 210.13 212.188 210.674 213.18C211.218 214.156 211.49 215.284 211.49 216.564ZM208.634 215.7C208.618 214.692 208.258 213.884 207.554 213.276C206.85 212.668 205.978 212.364 204.938 212.364C203.994 212.364 203.186 212.668 202.514 213.276C201.842 213.868 201.442 214.676 201.314 215.7H208.634ZM213.271 216.828C213.271 215.5 213.543 214.324 214.087 213.3C214.647 212.276 215.399 211.484 216.343 210.924C217.303 210.348 218.367 210.06 219.535 210.06C220.399 210.06 221.247 210.252 222.079 210.636C222.927 211.004 223.599 211.5 224.095 212.124V205.74H226.855V223.5H224.095V221.508C223.647 222.148 223.023 222.676 222.223 223.092C221.439 223.508 220.535 223.716 219.511 223.716C218.359 223.716 217.303 223.428 216.343 222.852C215.399 222.26 214.647 221.444 214.087 220.404C213.543 219.348 213.271 218.156 213.271 216.828ZM224.095 216.876C224.095 215.964 223.903 215.172 223.519 214.5C223.151 213.828 222.663 213.316 222.055 212.964C221.447 212.612 220.791 212.436 220.087 212.436C219.383 212.436 218.727 212.612 218.119 212.964C217.511 213.3 217.015 213.804 216.631 214.476C216.263 215.132 216.079 215.916 216.079 216.828C216.079 217.74 216.263 218.54 216.631 219.228C217.015 219.916 217.511 220.444 218.119 220.812C218.743 221.164 219.399 221.34 220.087 221.34C220.791 221.34 221.447 221.164 222.055 220.812C222.663 220.46 223.151 219.948 223.519 219.276C223.903 218.588 224.095 217.788 224.095 216.876ZM231.84 208.524C231.344 208.524 230.928 208.356 230.592 208.02C230.256 207.684 230.088 207.268 230.088 206.772C230.088 206.276 230.256 205.86 230.592 205.524C230.928 205.188 231.344 205.02 231.84 205.02C232.32 205.02 232.728 205.188 233.064 205.524C233.4 205.86 233.568 206.276 233.568 206.772C233.568 207.268 233.4 207.684 233.064 208.02C232.728 208.356 232.32 208.524 231.84 208.524ZM233.184 210.276V223.5H230.448V210.276H233.184ZM235.865 216.876C235.865 215.516 236.137 214.324 236.681 213.3C237.241 212.26 238.009 211.46 238.985 210.9C239.961 210.34 241.081 210.06 242.345 210.06C243.945 210.06 245.265 210.444 246.305 211.212C247.361 211.964 248.073 213.044 248.441 214.452H245.489C245.249 213.796 244.865 213.284 244.337 212.916C243.809 212.548 243.145 212.364 242.345 212.364C241.225 212.364 240.329 212.764 239.657 213.564C239.001 214.348 238.673 215.452 238.673 216.876C238.673 218.3 239.001 219.412 239.657 220.212C240.329 221.012 241.225 221.412 242.345 221.412C243.929 221.412 244.977 220.716 245.489 219.324H248.441C248.057 220.668 247.337 221.74 246.281 222.54C245.225 223.324 243.913 223.716 242.345 223.716C241.081 223.716 239.961 223.436 238.985 222.876C238.009 222.3 237.241 221.5 236.681 220.476C236.137 219.436 235.865 218.236 235.865 216.876ZM250.255 216.828C250.255 215.5 250.527 214.324 251.071 213.3C251.631 212.276 252.383 211.484 253.327 210.924C254.287 210.348 255.343 210.06 256.495 210.06C257.535 210.06 258.439 210.268 259.207 210.684C259.991 211.084 260.615 211.588 261.079 212.196V210.276H263.839V223.5H261.079V221.532C260.615 222.156 259.983 222.676 259.183 223.092C258.383 223.508 257.471 223.716 256.447 223.716C255.311 223.716 254.271 223.428 253.327 222.852C252.383 222.26 251.631 221.444 251.071 220.404C250.527 219.348 250.255 218.156 250.255 216.828ZM261.079 216.876C261.079 215.964 260.887 215.172 260.503 214.5C260.135 213.828 259.647 213.316 259.039 212.964C258.431 212.612 257.775 212.436 257.071 212.436C256.367 212.436 255.711 212.612 255.103 212.964C254.495 213.3 253.999 213.804 253.615 214.476C253.247 215.132 253.063 215.916 253.063 216.828C253.063 217.74 253.247 218.54 253.615 219.228C253.999 219.916 254.495 220.444 255.103 220.812C255.727 221.164 256.383 221.34 257.071 221.34C257.775 221.34 258.431 221.164 259.039 220.812C259.647 220.46 260.135 219.948 260.503 219.276C260.887 218.588 261.079 217.788 261.079 216.876ZM270.625 212.508V219.828C270.625 220.324 270.737 220.684 270.961 220.908C271.201 221.116 271.601 221.22 272.161 221.22H273.841V223.5H271.681C270.449 223.5 269.505 223.212 268.849 222.636C268.193 222.06 267.865 221.124 267.865 219.828V212.508H266.305V210.276H267.865V206.988H270.625V210.276H273.841V212.508H270.625ZM288.483 216.564C288.483 217.06 288.451 217.508 288.387 217.908H278.283C278.363 218.964 278.755 219.812 279.459 220.452C280.163 221.092 281.027 221.412 282.051 221.412C283.523 221.412 284.563 220.796 285.171 219.564H288.122C287.723 220.78 286.995 221.78 285.939 222.564C284.899 223.332 283.603 223.716 282.051 223.716C280.787 223.716 279.651 223.436 278.643 222.876C277.651 222.3 276.867 221.5 276.291 220.476C275.731 219.436 275.451 218.236 275.451 216.876C275.451 215.516 275.723 214.324 276.267 213.3C276.827 212.26 277.603 211.46 278.595 210.9C279.603 210.34 280.755 210.06 282.051 210.06C283.299 210.06 284.411 210.332 285.387 210.876C286.363 211.42 287.123 212.188 287.667 213.18C288.211 214.156 288.483 215.284 288.483 216.564ZM285.627 215.7C285.611 214.692 285.251 213.884 284.547 213.276C283.843 212.668 282.971 212.364 281.931 212.364C280.987 212.364 280.179 212.668 279.507 213.276C278.835 213.868 278.435 214.676 278.307 215.7H285.627ZM290.263 216.828C290.263 215.5 290.535 214.324 291.079 213.3C291.639 212.276 292.391 211.484 293.335 210.924C294.295 210.348 295.359 210.06 296.527 210.06C297.391 210.06 298.239 210.252 299.071 210.636C299.919 211.004 300.591 211.5 301.087 212.124V205.74H303.847V223.5H301.087V221.508C300.639 222.148 300.015 222.676 299.215 223.092C298.431 223.508 297.527 223.716 296.503 223.716C295.351 223.716 294.295 223.428 293.335 222.852C292.391 222.26 291.639 221.444 291.079 220.404C290.535 219.348 290.263 218.156 290.263 216.828ZM301.087 216.876C301.087 215.964 300.895 215.172 300.511 214.5C300.143 213.828 299.655 213.316 299.047 212.964C298.439 212.612 297.783 212.436 297.079 212.436C296.375 212.436 295.719 212.612 295.111 212.964C294.503 213.3 294.007 213.804 293.623 214.476C293.255 215.132 293.071 215.916 293.071 216.828C293.071 217.74 293.255 218.54 293.623 219.228C294.007 219.916 294.503 220.444 295.111 220.812C295.735 221.164 296.391 221.34 297.079 221.34C297.783 221.34 298.439 221.164 299.047 220.812C299.655 220.46 300.143 219.948 300.511 219.276C300.895 218.588 301.087 217.788 301.087 216.876ZM316.867 212.508V219.828C316.867 220.324 316.979 220.684 317.203 220.908C317.443 221.116 317.843 221.22 318.403 221.22H320.083V223.5H317.923C316.691 223.5 315.747 223.212 315.091 222.636C314.435 222.06 314.107 221.124 314.107 219.828V212.508H312.547V210.276H314.107V206.988H316.867V210.276H320.083V212.508H316.867ZM328.341 223.716C327.093 223.716 325.965 223.436 324.957 222.876C323.949 222.3 323.157 221.5 322.581 220.476C322.005 219.436 321.717 218.236 321.717 216.876C321.717 215.532 322.013 214.34 322.605 213.3C323.197 212.26 324.005 211.46 325.029 210.9C326.053 210.34 327.197 210.06 328.461 210.06C329.725 210.06 330.869 210.34 331.893 210.9C332.917 211.46 333.725 212.26 334.317 213.3C334.909 214.34 335.205 215.532 335.205 216.876C335.205 218.22 334.901 219.412 334.293 220.452C333.685 221.492 332.853 222.3 331.797 222.876C330.757 223.436 329.605 223.716 328.341 223.716ZM328.341 221.34C329.045 221.34 329.701 221.172 330.309 220.836C330.933 220.5 331.437 219.996 331.821 219.324C332.205 218.652 332.397 217.836 332.397 216.876C332.397 215.916 332.213 215.108 331.845 214.452C331.477 213.78 330.989 213.276 330.381 212.94C329.773 212.604 329.117 212.436 328.413 212.436C327.709 212.436 327.053 212.604 326.445 212.94C325.853 213.276 325.381 213.78 325.029 214.452C324.677 215.108 324.501 215.916 324.501 216.876C324.501 218.3 324.861 219.404 325.581 220.188C326.317 220.956 327.237 221.34 328.341 221.34ZM349.88 223.716C348.632 223.716 347.504 223.436 346.496 222.876C345.488 222.3 344.696 221.5 344.12 220.476C343.544 219.436 343.256 218.236 343.256 216.876C343.256 215.532 343.552 214.34 344.144 213.3C344.736 212.26 345.544 211.46 346.568 210.9C347.592 210.34 348.736 210.06 350 210.06C351.264 210.06 352.408 210.34 353.432 210.9C354.456 211.46 355.264 212.26 355.856 213.3C356.448 214.34 356.744 215.532 356.744 216.876C356.744 218.22 356.44 219.412 355.832 220.452C355.224 221.492 354.392 222.3 353.336 222.876C352.296 223.436 351.144 223.716 349.88 223.716ZM349.88 221.34C350.584 221.34 351.24 221.172 351.848 220.836C352.472 220.5 352.976 219.996 353.36 219.324C353.744 218.652 353.936 217.836 353.936 216.876C353.936 215.916 353.752 215.108 353.384 214.452C353.016 213.78 352.528 213.276 351.92 212.94C351.312 212.604 350.656 212.436 349.952 212.436C349.248 212.436 348.592 212.604 347.984 212.94C347.392 213.276 346.92 213.78 346.568 214.452C346.216 215.108 346.04 215.916 346.04 216.876C346.04 218.3 346.4 219.404 347.12 220.188C347.856 220.956 348.776 221.34 349.88 221.34ZM362.184 212.22C362.648 211.612 363.28 211.1 364.08 210.684C364.88 210.268 365.784 210.06 366.792 210.06C367.944 210.06 368.992 210.348 369.936 210.924C370.896 211.484 371.648 212.276 372.192 213.3C372.736 214.324 373.008 215.5 373.008 216.828C373.008 218.156 372.736 219.348 372.192 220.404C371.648 221.444 370.896 222.26 369.936 222.852C368.992 223.428 367.944 223.716 366.792 223.716C365.784 223.716 364.888 223.516 364.104 223.116C363.32 222.7 362.68 222.188 362.184 221.58V229.788H359.448V210.276H362.184V212.22ZM370.224 216.828C370.224 215.916 370.032 215.132 369.648 214.476C369.28 213.804 368.784 213.3 368.16 212.964C367.552 212.612 366.896 212.436 366.192 212.436C365.504 212.436 364.848 212.612 364.224 212.964C363.616 213.316 363.12 213.828 362.736 214.5C362.368 215.172 362.184 215.964 362.184 216.876C362.184 217.788 362.368 218.588 362.736 219.276C363.12 219.948 363.616 220.46 364.224 220.812C364.848 221.164 365.504 221.34 366.192 221.34C366.896 221.34 367.552 221.164 368.16 220.812C368.784 220.444 369.28 219.916 369.648 219.228C370.032 218.54 370.224 217.74 370.224 216.828ZM378.906 212.508V219.828C378.906 220.324 379.018 220.684 379.242 220.908C379.482 221.116 379.882 221.22 380.442 221.22H382.122V223.5H379.962C378.73 223.5 377.786 223.212 377.13 222.636C376.474 222.06 376.146 221.124 376.146 219.828V212.508H374.586V210.276H376.146V206.988H378.906V210.276H382.122V212.508H378.906ZM386.036 208.524C385.54 208.524 385.124 208.356 384.788 208.02C384.452 207.684 384.284 207.268 384.284 206.772C384.284 206.276 384.452 205.86 384.788 205.524C385.124 205.188 385.54 205.02 386.036 205.02C386.516 205.02 386.924 205.188 387.26 205.524C387.596 205.86 387.764 206.276 387.764 206.772C387.764 207.268 387.596 207.684 387.26 208.02C386.924 208.356 386.516 208.524 386.036 208.524ZM387.38 210.276V223.5H384.644V210.276H387.38ZM406.98 210.06C408.02 210.06 408.948 210.276 409.764 210.708C410.596 211.14 411.244 211.78 411.708 212.628C412.188 213.476 412.428 214.5 412.428 215.7V223.5H409.716V216.108C409.716 214.924 409.42 214.02 408.828 213.396C408.236 212.756 407.428 212.436 406.404 212.436C405.38 212.436 404.564 212.756 403.956 213.396C403.364 214.02 403.068 214.924 403.068 216.108V223.5H400.356V216.108C400.356 214.924 400.06 214.02 399.468 213.396C398.876 212.756 398.068 212.436 397.044 212.436C396.02 212.436 395.204 212.756 394.596 213.396C394.004 214.02 393.708 214.924 393.708 216.108V223.5H390.972V210.276H393.708V211.788C394.156 211.244 394.724 210.82 395.412 210.516C396.1 210.212 396.836 210.06 397.62 210.06C398.676 210.06 399.62 210.284 400.452 210.732C401.284 211.18 401.924 211.828 402.372 212.676C402.772 211.876 403.396 211.244 404.244 210.78C405.092 210.3 406.004 210.06 406.98 210.06ZM417.301 208.524C416.805 208.524 416.389 208.356 416.053 208.02C415.717 207.684 415.549 207.268 415.549 206.772C415.549 206.276 415.717 205.86 416.053 205.524C416.389 205.188 416.805 205.02 417.301 205.02C417.781 205.02 418.189 205.188 418.525 205.524C418.861 205.86 419.029 206.276 419.029 206.772C419.029 207.268 418.861 207.684 418.525 208.02C418.189 208.356 417.781 208.524 417.301 208.524ZM418.645 210.276V223.5H415.909V210.276H418.645ZM424.662 221.268H430.662V223.5H421.494V221.268L427.518 212.508H421.494V210.276H430.662V212.508L424.662 221.268ZM445.654 216.564C445.654 217.06 445.622 217.508 445.558 217.908H435.454C435.534 218.964 435.926 219.812 436.63 220.452C437.334 221.092 438.198 221.412 439.222 221.412C440.694 221.412 441.734 220.796 442.342 219.564H445.294C444.894 220.78 444.166 221.78 443.11 222.564C442.07 223.332 440.774 223.716 439.222 223.716C437.958 223.716 436.822 223.436 435.814 222.876C434.822 222.3 434.038 221.5 433.462 220.476C432.902 219.436 432.622 218.236 432.622 216.876C432.622 215.516 432.894 214.324 433.438 213.3C433.998 212.26 434.774 211.46 435.766 210.9C436.774 210.34 437.926 210.06 439.222 210.06C440.47 210.06 441.582 210.332 442.558 210.876C443.534 211.42 444.294 212.188 444.838 213.18C445.382 214.156 445.654 215.284 445.654 216.564ZM442.798 215.7C442.782 214.692 442.422 213.884 441.718 213.276C441.014 212.668 440.142 212.364 439.102 212.364C438.158 212.364 437.35 212.668 436.678 213.276C436.006 213.868 435.606 214.676 435.478 215.7H442.798ZM466.485 210.276L458.373 229.716H455.541L458.229 223.284L453.021 210.276H456.069L459.789 220.356L463.653 210.276H466.485ZM474.286 223.716C473.038 223.716 471.91 223.436 470.902 222.876C469.894 222.3 469.102 221.5 468.526 220.476C467.95 219.436 467.662 218.236 467.662 216.876C467.662 215.532 467.958 214.34 468.55 213.3C469.142 212.26 469.95 211.46 470.974 210.9C471.998 210.34 473.142 210.06 474.406 210.06C475.67 210.06 476.814 210.34 477.838 210.9C478.862 211.46 479.67 212.26 480.262 213.3C480.854 214.34 481.15 215.532 481.15 216.876C481.15 218.22 480.846 219.412 480.238 220.452C479.63 221.492 478.798 222.3 477.742 222.876C476.702 223.436 475.55 223.716 474.286 223.716ZM474.286 221.34C474.99 221.34 475.646 221.172 476.254 220.836C476.878 220.5 477.382 219.996 477.766 219.324C478.15 218.652 478.342 217.836 478.342 216.876C478.342 215.916 478.158 215.108 477.79 214.452C477.422 213.78 476.934 213.276 476.326 212.94C475.718 212.604 475.062 212.436 474.358 212.436C473.654 212.436 472.998 212.604 472.39 212.94C471.798 213.276 471.326 213.78 470.974 214.452C470.622 215.108 470.446 215.916 470.446 216.876C470.446 218.3 470.806 219.404 471.526 220.188C472.262 220.956 473.182 221.34 474.286 221.34ZM495.831 210.276V223.5H493.095V221.94C492.663 222.484 492.095 222.916 491.391 223.236C490.703 223.54 489.967 223.692 489.183 223.692C488.143 223.692 487.207 223.476 486.375 223.044C485.559 222.612 484.911 221.972 484.431 221.124C483.967 220.276 483.735 219.252 483.735 218.052V210.276H486.447V217.644C486.447 218.828 486.743 219.74 487.335 220.38C487.927 221.004 488.735 221.316 489.759 221.316C490.783 221.316 491.591 221.004 492.183 220.38C492.791 219.74 493.095 218.828 493.095 217.644V210.276H495.831ZM502.177 212.196C502.577 211.524 503.105 211.004 503.761 210.636C504.433 210.252 505.225 210.06 506.137 210.06V212.892H505.441C504.369 212.892 503.553 213.164 502.993 213.708C502.449 214.252 502.177 215.196 502.177 216.54V223.5H499.441V210.276H502.177V212.196ZM513.974 216.828C513.974 215.5 514.246 214.324 514.79 213.3C515.35 212.276 516.102 211.484 517.046 210.924C518.006 210.348 519.07 210.06 520.238 210.06C521.102 210.06 521.95 210.252 522.782 210.636C523.63 211.004 524.302 211.5 524.798 212.124V205.74H527.558V223.5H524.798V221.508C524.35 222.148 523.726 222.676 522.926 223.092C522.142 223.508 521.238 223.716 520.214 223.716C519.062 223.716 518.006 223.428 517.046 222.852C516.102 222.26 515.35 221.444 514.79 220.404C514.246 219.348 513.974 218.156 513.974 216.828ZM524.798 216.876C524.798 215.964 524.606 215.172 524.222 214.5C523.854 213.828 523.366 213.316 522.758 212.964C522.15 212.612 521.494 212.436 520.79 212.436C520.086 212.436 519.43 212.612 518.822 212.964C518.214 213.3 517.718 213.804 517.334 214.476C516.966 215.132 516.782 215.916 516.782 216.828C516.782 217.74 516.966 218.54 517.334 219.228C517.718 219.916 518.214 220.444 518.822 220.812C519.446 221.164 520.102 221.34 520.79 221.34C521.494 221.34 522.15 221.164 522.758 220.812C523.366 220.46 523.854 219.948 524.222 219.276C524.606 218.588 524.798 217.788 524.798 216.876ZM530.24 216.828C530.24 215.5 530.512 214.324 531.056 213.3C531.616 212.276 532.368 211.484 533.312 210.924C534.272 210.348 535.328 210.06 536.48 210.06C537.52 210.06 538.424 210.268 539.192 210.684C539.976 211.084 540.6 211.588 541.064 212.196V210.276H543.824V223.5H541.064V221.532C540.6 222.156 539.968 222.676 539.168 223.092C538.368 223.508 537.456 223.716 536.432 223.716C535.296 223.716 534.256 223.428 533.312 222.852C532.368 222.26 531.616 221.444 531.056 220.404C530.512 219.348 530.24 218.156 530.24 216.828ZM541.064 216.876C541.064 215.964 540.872 215.172 540.488 214.5C540.12 213.828 539.632 213.316 539.024 212.964C538.416 212.612 537.76 212.436 537.056 212.436C536.352 212.436 535.696 212.612 535.088 212.964C534.48 213.3 533.984 213.804 533.6 214.476C533.232 215.132 533.048 215.916 533.048 216.828C533.048 217.74 533.232 218.54 533.6 219.228C533.984 219.916 534.48 220.444 535.088 220.812C535.712 221.164 536.368 221.34 537.056 221.34C537.76 221.34 538.416 221.164 539.024 220.812C539.632 220.46 540.12 219.948 540.488 219.276C540.872 218.588 541.064 217.788 541.064 216.876ZM548.809 208.524C548.313 208.524 547.897 208.356 547.561 208.02C547.225 207.684 547.057 207.268 547.057 206.772C547.057 206.276 547.225 205.86 547.561 205.524C547.897 205.188 548.313 205.02 548.809 205.02C549.289 205.02 549.697 205.188 550.033 205.524C550.369 205.86 550.537 206.276 550.537 206.772C550.537 207.268 550.369 207.684 550.033 208.02C549.697 208.356 549.289 208.524 548.809 208.524ZM550.153 210.276V223.5H547.417V210.276H550.153ZM556.481 205.74V223.5H553.745V205.74H556.481ZM571.977 210.276L563.865 229.716H561.033L563.721 223.284L558.513 210.276H561.561L565.281 220.356L569.145 210.276H571.977ZM269.544 240.876C269.544 239.516 269.816 238.324 270.36 237.3C270.92 236.26 271.688 235.46 272.664 234.9C273.64 234.34 274.76 234.06 276.024 234.06C277.624 234.06 278.944 234.444 279.984 235.212C281.04 235.964 281.752 237.044 282.12 238.452H279.168C278.928 237.796 278.544 237.284 278.016 236.916C277.488 236.548 276.824 236.364 276.024 236.364C274.904 236.364 274.008 236.764 273.336 237.564C272.68 238.348 272.352 239.452 272.352 240.876C272.352 242.3 272.68 243.412 273.336 244.212C274.008 245.012 274.904 245.412 276.024 245.412C277.608 245.412 278.656 244.716 279.168 243.324H282.12C281.736 244.668 281.016 245.74 279.96 246.54C278.904 247.324 277.592 247.716 276.024 247.716C274.76 247.716 273.64 247.436 272.664 246.876C271.688 246.3 270.92 245.5 270.36 244.476C269.816 243.436 269.544 242.236 269.544 240.876ZM290.583 247.716C289.335 247.716 288.207 247.436 287.199 246.876C286.191 246.3 285.399 245.5 284.823 244.476C284.247 243.436 283.959 242.236 283.959 240.876C283.959 239.532 284.255 238.34 284.847 237.3C285.439 236.26 286.247 235.46 287.271 234.9C288.295 234.34 289.439 234.06 290.703 234.06C291.967 234.06 293.111 234.34 294.135 234.9C295.159 235.46 295.967 236.26 296.559 237.3C297.151 238.34 297.447 239.532 297.447 240.876C297.447 242.22 297.143 243.412 296.535 244.452C295.927 245.492 295.095 246.3 294.039 246.876C292.999 247.436 291.847 247.716 290.583 247.716ZM290.583 245.34C291.287 245.34 291.943 245.172 292.551 244.836C293.175 244.5 293.679 243.996 294.063 243.324C294.447 242.652 294.639 241.836 294.639 240.876C294.639 239.916 294.455 239.108 294.087 238.452C293.719 237.78 293.231 237.276 292.623 236.94C292.015 236.604 291.359 236.436 290.655 236.436C289.951 236.436 289.295 236.604 288.687 236.94C288.095 237.276 287.623 237.78 287.271 238.452C286.919 239.108 286.743 239.916 286.743 240.876C286.743 242.3 287.103 243.404 287.823 244.188C288.559 244.956 289.479 245.34 290.583 245.34ZM316.16 234.06C317.2 234.06 318.128 234.276 318.944 234.708C319.776 235.14 320.424 235.78 320.888 236.628C321.368 237.476 321.608 238.5 321.608 239.7V247.5H318.896V240.108C318.896 238.924 318.6 238.02 318.008 237.396C317.416 236.756 316.608 236.436 315.584 236.436C314.56 236.436 313.744 236.756 313.136 237.396C312.544 238.02 312.248 238.924 312.248 240.108V247.5H309.536V240.108C309.536 238.924 309.24 238.02 308.648 237.396C308.056 236.756 307.248 236.436 306.224 236.436C305.2 236.436 304.384 236.756 303.776 237.396C303.184 238.02 302.888 238.924 302.888 240.108V247.5H300.152V234.276H302.888V235.788C303.336 235.244 303.904 234.82 304.592 234.516C305.28 234.212 306.016 234.06 306.8 234.06C307.856 234.06 308.8 234.284 309.632 234.732C310.464 235.18 311.104 235.828 311.552 236.676C311.952 235.876 312.576 235.244 313.424 234.78C314.272 234.3 315.184 234.06 316.16 234.06ZM341.097 234.06C342.137 234.06 343.065 234.276 343.881 234.708C344.713 235.14 345.361 235.78 345.825 236.628C346.305 237.476 346.545 238.5 346.545 239.7V247.5H343.833V240.108C343.833 238.924 343.537 238.02 342.945 237.396C342.353 236.756 341.545 236.436 340.521 236.436C339.497 236.436 338.681 236.756 338.073 237.396C337.481 238.02 337.185 238.924 337.185 240.108V247.5H334.473V240.108C334.473 238.924 334.177 238.02 333.585 237.396C332.993 236.756 332.185 236.436 331.161 236.436C330.137 236.436 329.321 236.756 328.713 237.396C328.121 238.02 327.825 238.924 327.825 240.108V247.5H325.089V234.276H327.825V235.788C328.273 235.244 328.841 234.82 329.529 234.516C330.217 234.212 330.953 234.06 331.737 234.06C332.793 234.06 333.737 234.284 334.569 234.732C335.401 235.18 336.041 235.828 336.489 236.676C336.889 235.876 337.513 235.244 338.361 234.78C339.209 234.3 340.121 234.06 341.097 234.06ZM362.003 234.276V247.5H359.267V245.94C358.835 246.484 358.267 246.916 357.563 247.236C356.875 247.54 356.139 247.692 355.355 247.692C354.315 247.692 353.379 247.476 352.547 247.044C351.731 246.612 351.083 245.972 350.603 245.124C350.139 244.276 349.907 243.252 349.907 242.052V234.276H352.619V241.644C352.619 242.828 352.915 243.74 353.507 244.38C354.099 245.004 354.907 245.316 355.931 245.316C356.955 245.316 357.763 245.004 358.355 244.38C358.963 243.74 359.267 242.828 359.267 241.644V234.276H362.003ZM368.805 236.508V243.828C368.805 244.324 368.917 244.684 369.141 244.908C369.381 245.116 369.781 245.22 370.341 245.22H372.021V247.5H369.861C368.629 247.5 367.685 247.212 367.029 246.636C366.373 246.06 366.045 245.124 366.045 243.828V236.508H364.485V234.276H366.045V230.988H368.805V234.276H372.021V236.508H368.805ZM386.662 240.564C386.662 241.06 386.63 241.508 386.566 241.908H376.462C376.542 242.964 376.934 243.812 377.638 244.452C378.342 245.092 379.206 245.412 380.23 245.412C381.702 245.412 382.742 244.796 383.35 243.564H386.302C385.902 244.78 385.174 245.78 384.118 246.564C383.078 247.332 381.782 247.716 380.23 247.716C378.966 247.716 377.83 247.436 376.822 246.876C375.83 246.3 375.046 245.5 374.47 244.476C373.91 243.436 373.63 242.236 373.63 240.876C373.63 239.516 373.902 238.324 374.446 237.3C375.006 236.26 375.782 235.46 376.774 234.9C377.782 234.34 378.934 234.06 380.23 234.06C381.478 234.06 382.59 234.332 383.566 234.876C384.542 235.42 385.302 236.188 385.846 237.18C386.39 238.156 386.662 239.284 386.662 240.564ZM383.806 239.7C383.79 238.692 383.43 237.884 382.726 237.276C382.022 236.668 381.15 236.364 380.11 236.364C379.166 236.364 378.358 236.668 377.686 237.276C377.014 237.868 376.614 238.676 376.486 239.7H383.806ZM390.459 247.668C389.963 247.668 389.547 247.5 389.211 247.164C388.875 246.828 388.707 246.412 388.707 245.916C388.707 245.42 388.875 245.004 389.211 244.668C389.547 244.332 389.963 244.164 390.459 244.164C390.939 244.164 391.347 244.332 391.683 244.668C392.019 245.004 392.187 245.42 392.187 245.916C392.187 246.412 392.019 246.828 391.683 247.164C391.347 247.5 390.939 247.668 390.459 247.668Z" fill="#E1E1E1"/>
</svg>
