<svg width="930" height="62" viewBox="0 0 930 62" fill="none" xmlns="http://www.w3.org/2000/svg">
<path d="M333.25 28.3828V45H342.312V28.3828H349.07L350.477 20.7422H342.312V18.0391C342.312 14 343.898 12.4531 347.992 12.4531C349.266 12.4531 350.289 12.4844 350.883 12.5469V5.61719C349.766 5.3125 347.031 5 345.453 5C337.102 5 333.25 8.94531 333.25 17.4531V20.7422H328.094V28.3828H333.25Z" fill="white"/>
<path d="M429.5 7.5H399.492C398.117 7.5 397 8.63281 397 10.0234V39.9766C397 41.3672 398.117 42.5 399.492 42.5H429.5C430.875 42.5 432 41.3672 432 39.9766V10.0234C432 8.63281 430.875 7.5 429.5 7.5ZM407.578 37.5H402.391V20.7969H407.586V37.5H407.578ZM404.984 18.5156C403.32 18.5156 401.977 17.1641 401.977 15.5078C401.977 13.8516 403.32 12.5 404.984 12.5C406.641 12.5 407.992 13.8516 407.992 15.5078C407.992 17.1719 406.648 18.5156 404.984 18.5156ZM427.023 37.5H421.836V29.375C421.836 27.4375 421.797 24.9453 419.141 24.9453C416.438 24.9453 416.023 27.0547 416.023 29.2344V37.5H410.836V20.7969H415.812V23.0781H415.883C416.578 21.7656 418.273 20.3828 420.797 20.3828C426.047 20.3828 427.023 23.8438 427.023 28.3438V37.5Z" fill="white"/>
<path d="M519.945 14.6953C519.453 12.8437 518.008 11.3906 516.172 10.8984C512.844 10 499.5 10 499.5 10C499.5 10 486.156 10 482.828 10.8984C480.992 11.3906 479.547 12.8437 479.055 14.6953C478.164 18.0469 478.164 25.0312 478.164 25.0312C478.164 25.0312 478.164 32.0156 479.055 35.3672C479.547 37.2187 480.992 38.6094 482.828 39.1016C486.156 40 499.5 40 499.5 40C499.5 40 512.844 40 516.172 39.1016C518.008 38.6094 519.453 37.2109 519.945 35.3672C520.836 32.0156 520.836 25.0312 520.836 25.0312C520.836 25.0312 520.836 18.0469 519.945 14.6953ZM495.141 31.375V18.6875L506.289 25.0312L495.141 31.375Z" fill="white"/>
<g clip-path="url(#clip0_26_138)">
<path d="M596.394 10.7812H601.763L590.036 24.1819L603.832 42.4197H593.032L584.568 31.3614L574.894 42.4197H569.517L582.058 28.0835L568.832 10.7812H579.905L587.549 20.8888L596.394 10.7812ZM594.508 39.2102H597.482L578.286 13.8234H575.091L594.508 39.2102Z" fill="white"/>
</g>
<defs>
<clipPath id="clip0_26_138">
<rect width="35" height="35" fill="white" transform="translate(567 7.5)"/>
</clipPath>
</defs>
</svg>
