<svg width="40" height="41" viewBox="0 0 40 41" fill="none" xmlns="http://www.w3.org/2000/svg">
<path d="M32.7333 12.5333C35.3659 12.5333 37.5 10.3992 37.5 7.76667C37.5 5.13411 35.3659 3 32.7333 3C30.1008 3 27.9667 5.13411 27.9667 7.76667C27.9667 10.3992 30.1008 12.5333 32.7333 12.5333Z" stroke="#3772FF" stroke-width="1.5" stroke-miterlimit="10"/>
<path d="M7.26667 25.2667C9.89922 25.2667 12.0333 23.1326 12.0333 20.5001C12.0333 17.8675 9.89922 15.7334 7.26667 15.7334C4.63411 15.7334 2.5 17.8675 2.5 20.5001C2.5 23.1326 4.63411 25.2667 7.26667 25.2667Z" stroke="#3772FF" stroke-width="1.5" stroke-miterlimit="10"/>
<path d="M32.7333 37.9999C35.3659 37.9999 37.5 35.8658 37.5 33.2332C37.5 30.6007 35.3659 28.4666 32.7333 28.4666C30.1008 28.4666 27.9667 30.6007 27.9667 33.2332C27.9667 35.8658 30.1008 37.9999 32.7333 37.9999Z" stroke="#3772FF" stroke-width="1.5" stroke-miterlimit="10"/>
<path d="M28.4667 9.8999L11.5333 18.3666" stroke="#3772FF" stroke-width="1.5" stroke-miterlimit="10"/>
<path d="M28.4667 31.1L11.5333 22.6333" stroke="#3772FF" stroke-width="1.5" stroke-miterlimit="10"/>
</svg>
