<svg width="48" height="49" viewBox="0 0 48 49" fill="none" xmlns="http://www.w3.org/2000/svg">
<path d="M19.22 20.7C23.9697 20.7 27.82 16.8496 27.82 12.1C27.82 7.35035 23.9697 3.5 19.22 3.5C14.4704 3.5 10.62 7.35035 10.62 12.1C10.62 16.8496 14.4704 20.7 19.22 20.7Z" stroke="#3772FF" stroke-width="2" stroke-miterlimit="10"/>
<path d="M3 39.78L4.4 32.84C5.08421 29.4126 6.93466 26.3281 9.63657 24.1111C12.3385 21.8942 15.725 20.6817 19.22 20.68C22.5451 20.6701 25.7775 21.7757 28.4 23.82" stroke="#3772FF" stroke-width="2" stroke-miterlimit="10"/>
<path d="M33.54 45.5001C39.8692 45.5001 45 40.3693 45 34.0401C45 27.7109 39.8692 22.5801 33.54 22.5801C27.2108 22.5801 22.08 27.7109 22.08 34.0401C22.08 40.3693 27.2108 45.5001 33.54 45.5001Z" stroke="#3772FF" stroke-width="2" stroke-miterlimit="10"/>
<path d="M27.82 34.04H39.28" stroke="#3772FF" stroke-width="2" stroke-miterlimit="10"/>
<path d="M33.54 28.3201V39.7801" stroke="#3772FF" stroke-width="2" stroke-miterlimit="10"/>
</svg>
