<svg width="60" height="60" viewBox="0 0 60 60" fill="none" xmlns="http://www.w3.org/2000/svg">
<g clip-path="url(#clip0_15_54)">
<path d="M48.75 25.875C48.75 31.2539 47.0039 36.2227 44.0625 40.2539L58.8984 55.1016C60.3633 56.5664 60.3633 58.9453 58.8984 60.4102C57.4336 61.875 55.0547 61.875 53.5898 60.4102L38.7539 45.5625C34.7227 48.5156 29.7539 50.25 24.375 50.25C10.9102 50.25 0 39.3398 0 25.875C0 12.4102 10.9102 1.5 24.375 1.5C37.8398 1.5 48.75 12.4102 48.75 25.875ZM12.1875 26.8125V34.3125C12.1875 35.8711 13.4414 37.125 15 37.125C16.5586 37.125 17.8125 35.8711 17.8125 34.3125V26.8125C17.8125 25.2539 16.5586 24 15 24C13.4414 24 12.1875 25.2539 12.1875 26.8125ZM21.5625 15.5625V34.3125C21.5625 35.8711 22.8164 37.125 24.375 37.125C25.9336 37.125 27.1875 35.8711 27.1875 34.3125V15.5625C27.1875 14.0039 25.9336 12.75 24.375 12.75C22.8164 12.75 21.5625 14.0039 21.5625 15.5625ZM30.9375 23.0625V34.3125C30.9375 35.8711 32.1914 37.125 33.75 37.125C35.3086 37.125 36.5625 35.8711 36.5625 34.3125V23.0625C36.5625 21.5039 35.3086 20.25 33.75 20.25C32.1914 20.25 30.9375 21.5039 30.9375 23.0625Z" fill="#3A49F9"/>
</g>
<defs>
<clipPath id="clip0_15_54">
<rect width="60" height="60" fill="white"/>
</clipPath>
</defs>
</svg>
