<svg width="60" height="60" viewBox="0 0 60 60" fill="none" xmlns="http://www.w3.org/2000/svg">
<g clip-path="url(#clip0_15_58)">
<path d="M60 11.25C60 17.1328 53.0742 25.9102 50.0859 29.4141C49.6406 29.9297 48.9844 30.1289 48.3867 30H37.5C35.4258 30 33.75 31.6758 33.75 33.75C33.75 35.8242 35.4258 37.5 37.5 37.5H48.75C54.9609 37.5 60 42.5391 60 48.75C60 54.9609 54.9609 60 48.75 60H16.3594C17.3789 58.8398 18.6211 57.3516 19.875 55.6875C20.6133 54.7031 21.375 53.625 22.1016 52.5H48.75C50.8242 52.5 52.5 50.8242 52.5 48.75C52.5 46.6758 50.8242 45 48.75 45H37.5C31.2891 45 26.25 39.9609 26.25 33.75C26.25 27.5391 31.2891 22.5 37.5 22.5H42.1641C39.7031 18.8086 37.5 14.5664 37.5 11.25C37.5 5.03906 42.5391 0 48.75 0C54.9609 0 60 5.03906 60 11.25ZM13.7227 57.3164C13.2773 57.8203 12.8789 58.2656 12.5391 58.6406L12.3281 58.875L12.3047 58.8516C11.6016 59.3906 10.5938 59.3203 9.96094 58.6406C7.00781 55.4297 0 47.168 0 41.25C0 35.0391 5.03906 30 11.25 30C17.4609 30 22.5 35.0391 22.5 41.25C22.5 44.7656 20.0273 49.1016 17.4023 52.7227C16.1484 54.4453 14.8594 56.0039 13.793 57.2344L13.7227 57.3164ZM15 41.25C15 40.2554 14.6049 39.3016 13.9017 38.5984C13.1984 37.8951 12.2446 37.5 11.25 37.5C10.2554 37.5 9.30161 37.8951 8.59835 38.5984C7.89509 39.3016 7.5 40.2554 7.5 41.25C7.5 42.2446 7.89509 43.1984 8.59835 43.9016C9.30161 44.6049 10.2554 45 11.25 45C12.2446 45 13.1984 44.6049 13.9017 43.9016C14.6049 43.1984 15 42.2446 15 41.25ZM48.75 15C49.7446 15 50.6984 14.6049 51.4016 13.9017C52.1049 13.1984 52.5 12.2446 52.5 11.25C52.5 10.2554 52.1049 9.30161 51.4016 8.59835C50.6984 7.89509 49.7446 7.5 48.75 7.5C47.7554 7.5 46.8016 7.89509 46.0984 8.59835C45.3951 9.30161 45 10.2554 45 11.25C45 12.2446 45.3951 13.1984 46.0984 13.9017C46.8016 14.6049 47.7554 15 48.75 15Z" fill="#3A49F9"/>
</g>
<defs>
<clipPath id="clip0_15_58">
<rect width="60" height="60" fill="white"/>
</clipPath>
</defs>
</svg>
