<svg width="45" height="40" viewBox="0 0 45 40" fill="none" xmlns="http://www.w3.org/2000/svg">
<path d="M42.9453 9.69531C42.4531 7.84375 41.0078 6.39062 39.1719 5.89844C35.8438 5 22.5 5 22.5 5C22.5 5 9.15625 5 5.82812 5.89844C3.99219 6.39062 2.54688 7.84375 2.05469 9.69531C1.16406 13.0469 1.16406 20.0312 1.16406 20.0312C1.16406 20.0312 1.16406 27.0156 2.05469 30.3672C2.54688 32.2187 3.99219 33.6094 5.82812 34.1016C9.15625 35 22.5 35 22.5 35C22.5 35 35.8438 35 39.1719 34.1016C41.0078 33.6094 42.4531 32.2109 42.9453 30.3672C43.8359 27.0156 43.8359 20.0312 43.8359 20.0312C43.8359 20.0312 43.8359 13.0469 42.9453 9.69531ZM18.1406 26.375V13.6875L29.2891 20.0312L18.1406 26.375Z" fill="white"/>
</svg>
